<ttFont>
    <TTGlyph name=".notdef" xMin="65" yMin="0" xMax="449" yMax="768">
      <contour>
        <pt x="65" y="0" on="1"/>
        <pt x="65" y="768" on="1"/>
        <pt x="449" y="768" on="1"/>
        <pt x="449" y="0" on="1"/>
      </contour>
      <contour>
        <pt x="128" y="65" on="1"/>
        <pt x="384" y="65" on="1"/>
        <pt x="384" y="705" on="1"/>
        <pt x="128" y="705" on="1"/>
      </contour>
    </TTGlyph>
    <TTGlyph name="A" xMin="24" yMin="-12" xMax="556" yMax="670">
      <contour>
        <pt x="389" y="152" on="1"/>
        <pt x="177" y="152" on="1"/>
        <pt x="130" y="-12" on="1"/>
        <pt x="24" y="2" on="1"/>
        <pt x="237" y="670" on="1"/>
        <pt x="341" y="670" on="1"/>
        <pt x="556" y="7" on="1"/>
        <pt x="437" y="-12" on="1"/>
      </contour>
      <contour>
        <pt x="205" y="247" on="1"/>
        <pt x="361" y="247" on="1"/>
        <pt x="285" y="513" on="1"/>
      </contour>
    </TTGlyph>
    <TTGlyph name="AE" xMin="24" yMin="-12" xMax="842" yMax="670">
      <contour>
        <pt x="232" y="278" on="1"/>
        <pt x="359" y="278" on="1"/>
        <pt x="295" y="505" on="1"/>
      </contour>
      <contour>
        <pt x="579" y="400" on="1"/>
        <pt x="824" y="400" on="1"/>
        <pt x="824" y="299" on="1"/>
        <pt x="579" y="299" on="1"/>
        <pt x="579" y="101" on="1"/>
        <pt x="839" y="101" on="1"/>
        <pt x="839" y="-1" on="1"/>
        <pt x="444" y="-1" on="1"/>
        <pt x="390" y="172" on="1"/>
        <pt x="200" y="172" on="1"/>
        <pt x="143" y="-12" on="1"/>
        <pt x="24" y="2" on="1"/>
        <pt x="243" y="670" on="1"/>
        <pt x="349" y="670" on="1"/>
        <pt x="453" y="317" on="1"/>
        <pt x="453" y="656" on="1"/>
        <pt x="842" y="656" on="1"/>
        <pt x="842" y="558" on="1"/>
        <pt x="579" y="558" on="1"/>
      </contour>
    </TTGlyph>
    <TTGlyph name="Aacute" xMin="30" yMin="-12" xMax="562" yMax="855">
      <contour>
        <pt x="386" y="172" on="1"/>
        <pt x="201" y="172" on="1"/>
        <pt x="145" y="-12" on="1"/>
        <pt x="30" y="2" on="1"/>
        <pt x="242" y="670" on="1"/>
        <pt x="346" y="670" on="1"/>
        <pt x="562" y="7" on="1"/>
        <pt x="443" y="-12" on="1"/>
      </contour>
      <contour>
        <pt x="228" y="267" on="1"/>
        <pt x="358" y="267" on="1"/>
        <pt x="294" y="495" on="1"/>
      </contour>
      <contour>
        <pt x="150" y="764" on="1"/>
        <pt x="370" y="855" on="1"/>
        <pt x="433" y="775" on="1"/>
        <pt x="214" y="690" on="1"/>
      </contour>
    </TTGlyph>
    <TTGlyph name="Acircumflex" xMin="30" yMin="-12" xMax="562" yMax="886">
      <contour>
        <pt x="386" y="172" on="1"/>
        <pt x="201" y="172" on="1"/>
        <pt x="145" y="-12" on="1"/>
        <pt x="30" y="2" on="1"/>
        <pt x="242" y="670" on="1"/>
        <pt x="346" y="670" on="1"/>
        <pt x="562" y="7" on="1"/>
        <pt x="443" y="-12" on="1"/>
      </contour>
      <contour>
        <pt x="228" y="267" on="1"/>
        <pt x="358" y="267" on="1"/>
        <pt x="294" y="495" on="1"/>
      </contour>
      <contour>
        <pt x="150" y="677" on="1"/>
        <pt x="150" y="777" on="1"/>
        <pt x="290" y="886" on="1"/>
        <pt x="435" y="777" on="1"/>
        <pt x="435" y="678" on="1"/>
        <pt x="291" y="767" on="1"/>
      </contour>
    </TTGlyph>
    <TTGlyph name="Adieresis" xMin="30" yMin="-12" xMax="562" yMax="850">
      <contour>
        <pt x="386" y="172" on="1"/>
        <pt x="201" y="172" on="1"/>
        <pt x="145" y="-12" on="1"/>
        <pt x="30" y="2" on="1"/>
        <pt x="242" y="670" on="1"/>
        <pt x="346" y="670" on="1"/>
        <pt x="562" y="7" on="1"/>
        <pt x="443" y="-12" on="1"/>
      </contour>
      <contour>
        <pt x="228" y="267" on="1"/>
        <pt x="358" y="267" on="1"/>
        <pt x="294" y="495" on="1"/>
      </contour>
      <contour>
        <pt x="334" y="776" on="1"/>
        <pt x="334" y="804" on="0"/>
        <pt x="350" y="824" on="1"/>
        <pt x="370" y="850" on="0"/>
        <pt x="406" y="850" on="1"/>
        <pt x="439" y="850" on="0"/>
        <pt x="460" y="824" on="1"/>
        <pt x="477" y="802" on="0"/>
        <pt x="477" y="776" on="1"/>
        <pt x="477" y="748" on="0"/>
        <pt x="460" y="727" on="1"/>
        <pt x="440" y="702" on="0"/>
        <pt x="406" y="702" on="1"/>
        <pt x="371" y="702" on="0"/>
        <pt x="350" y="727" on="1"/>
        <pt x="334" y="747" on="0"/>
      </contour>
      <contour>
        <pt x="119" y="776" on="1"/>
        <pt x="119" y="804" on="0"/>
        <pt x="135" y="824" on="1"/>
        <pt x="155" y="850" on="0"/>
        <pt x="190" y="850" on="1"/>
        <pt x="224" y="850" on="0"/>
        <pt x="245" y="824" on="1"/>
        <pt x="262" y="802" on="0"/>
        <pt x="262" y="776" on="1"/>
        <pt x="262" y="748" on="0"/>
        <pt x="245" y="727" on="1"/>
        <pt x="225" y="702" on="0"/>
        <pt x="155" y="702" on="0"/>
        <pt x="136" y="727" on="1"/>
        <pt x="119" y="747" on="0"/>
      </contour>
    </TTGlyph>
    <TTGlyph name="Agrave" xMin="30" yMin="-12" xMax="562" yMax="861">
      <contour>
        <pt x="386" y="172" on="1"/>
        <pt x="201" y="172" on="1"/>
        <pt x="145" y="-12" on="1"/>
        <pt x="30" y="2" on="1"/>
        <pt x="242" y="670" on="1"/>
        <pt x="346" y="670" on="1"/>
        <pt x="562" y="7" on="1"/>
        <pt x="443" y="-12" on="1"/>
      </contour>
      <contour>
        <pt x="228" y="267" on="1"/>
        <pt x="358" y="267" on="1"/>
        <pt x="294" y="495" on="1"/>
      </contour>
      <contour>
        <pt x="374" y="702" on="1"/>
        <pt x="160" y="795" on="1"/>
        <pt x="208" y="861" on="1"/>
        <pt x="423" y="763" on="1"/>
      </contour>
    </TTGlyph>
    <TTGlyph name="Aring" xMin="30" yMin="-12" xMax="562" yMax="880">
      <contour>
        <pt x="386" y="172" on="1"/>
        <pt x="201" y="172" on="1"/>
        <pt x="145" y="-12" on="1"/>
        <pt x="30" y="2" on="1"/>
        <pt x="242" y="670" on="1"/>
        <pt x="346" y="670" on="1"/>
        <pt x="562" y="7" on="1"/>
        <pt x="443" y="-12" on="1"/>
      </contour>
      <contour>
        <pt x="228" y="267" on="1"/>
        <pt x="358" y="267" on="1"/>
        <pt x="294" y="495" on="1"/>
      </contour>
      <contour>
        <pt x="300" y="702" on="1"/>
        <pt x="259" y="702" on="0"/>
        <pt x="207" y="753" on="0"/>
        <pt x="207" y="792" on="1"/>
        <pt x="207" y="830" on="0"/>
        <pt x="259" y="880" on="0"/>
        <pt x="300" y="880" on="1"/>
        <pt x="341" y="880" on="0"/>
        <pt x="393" y="829" on="0"/>
        <pt x="393" y="792" on="1"/>
        <pt x="393" y="753" on="0"/>
        <pt x="341" y="702" on="0"/>
      </contour>
      <contour>
        <pt x="300" y="836" on="1"/>
        <pt x="266" y="836" on="0"/>
        <pt x="266" y="792" on="1"/>
        <pt x="266" y="747" on="0"/>
        <pt x="300" y="746" on="1"/>
        <pt x="334" y="746" on="0"/>
        <pt x="334" y="792" on="1"/>
        <pt x="334" y="836" on="0"/>
      </contour>
    </TTGlyph>
    <TTGlyph name="Atilde" xMin="30" yMin="-12" xMax="562" yMax="845">
      <contour>
        <pt x="386" y="172" on="1"/>
        <pt x="201" y="172" on="1"/>
        <pt x="145" y="-12" on="1"/>
        <pt x="30" y="2" on="1"/>
        <pt x="242" y="670" on="1"/>
        <pt x="346" y="670" on="1"/>
        <pt x="562" y="7" on="1"/>
        <pt x="443" y="-12" on="1"/>
      </contour>
      <contour>
        <pt x="228" y="267" on="1"/>
        <pt x="358" y="267" on="1"/>
        <pt x="294" y="495" on="1"/>
      </contour>
      <contour>
        <pt x="286" y="736" on="1"/>
        <pt x="249" y="760" on="0"/>
        <pt x="241" y="760" on="1"/>
        <pt x="214" y="760" on="0"/>
        <pt x="173" y="712" on="1"/>
        <pt x="133" y="792" on="1"/>
        <pt x="173" y="843" on="0"/>
        <pt x="241" y="845" on="1"/>
        <pt x="272" y="846" on="0"/>
        <pt x="351" y="791" on="0"/>
        <pt x="361" y="791" on="1"/>
        <pt x="374" y="791" on="0"/>
        <pt x="414" y="822" on="1"/>
        <pt x="452" y="744" on="1"/>
        <pt x="436" y="728" on="0"/>
        <pt x="379" y="706" on="0"/>
        <pt x="364" y="706" on="1"/>
        <pt x="334" y="705" on="0"/>
      </contour>
    </TTGlyph>
    <TTGlyph name="B" xMin="65" yMin="-2" xMax="482" yMax="660">
      <contour>
        <pt x="65" y="2" on="1"/>
        <pt x="65" y="656" on="1"/>
        <pt x="73" y="656" on="0"/>
        <pt x="161" y="658" on="1"/>
        <pt x="226" y="660" on="0"/>
        <pt x="263" y="660" on="1"/>
        <pt x="345" y="660" on="0"/>
        <pt x="440" y="573" on="0"/>
        <pt x="440" y="494" on="1"/>
        <pt x="440" y="454" on="0"/>
        <pt x="389" y="381" on="0"/>
        <pt x="348" y="359" on="1"/>
        <pt x="401" y="355" on="0"/>
        <pt x="482" y="259" on="0"/>
        <pt x="482" y="197" on="1"/>
        <pt x="482" y="79" on="0"/>
        <pt x="398" y="32" on="1"/>
        <pt x="337" y="-2" on="0"/>
        <pt x="215" y="-2" on="1"/>
        <pt x="187" y="-2" on="0"/>
        <pt x="84" y="2" on="0"/>
      </contour>
      <contour>
        <pt x="185" y="583" on="1"/>
        <pt x="185" y="389" on="1"/>
        <pt x="230" y="389" on="1"/>
        <pt x="276" y="389" on="0"/>
        <pt x="304" y="418" on="1"/>
        <pt x="329" y="445" on="0"/>
        <pt x="329" y="484" on="1"/>
        <pt x="328" y="584" on="0"/>
        <pt x="244" y="585" on="1"/>
        <pt x="222" y="585" on="0"/>
      </contour>
      <contour>
        <pt x="185" y="311" on="1"/>
        <pt x="185" y="83" on="1"/>
        <pt x="254" y="83" on="1"/>
        <pt x="309" y="83" on="0"/>
        <pt x="338" y="116" on="1"/>
        <pt x="366" y="146" on="0"/>
        <pt x="366" y="198" on="1"/>
        <pt x="366" y="241" on="0"/>
        <pt x="337" y="274" on="1"/>
        <pt x="304" y="311" on="0"/>
        <pt x="252" y="311" on="1"/>
      </contour>
    </TTGlyph>
    <TTGlyph name="C" xMin="32" yMin="-8" xMax="529" yMax="676">
      <contour>
        <pt x="32" y="337" on="1"/>
        <pt x="32" y="470" on="0"/>
        <pt x="102" y="566" on="1"/>
        <pt x="183" y="676" on="0"/>
        <pt x="321" y="676" on="1"/>
        <pt x="408" y="676" on="0"/>
        <pt x="522" y="605" on="1"/>
        <pt x="479" y="525" on="1"/>
        <pt x="414" y="563" on="0"/>
        <pt x="413" y="565" on="1"/>
        <pt x="376" y="582" on="0"/>
        <pt x="337" y="583" on="1"/>
        <pt x="255" y="583" on="0"/>
        <pt x="208" y="490" on="1"/>
        <pt x="170" y="416" on="0"/>
        <pt x="170" y="326" on="1"/>
        <pt x="170" y="229" on="0"/>
        <pt x="220" y="162" on="1"/>
        <pt x="267" y="99" on="0"/>
        <pt x="334" y="98" on="1"/>
        <pt x="370" y="98" on="0"/>
        <pt x="402" y="111" on="1"/>
        <pt x="427" y="120" on="0"/>
        <pt x="481" y="151" on="1"/>
        <pt x="529" y="71" on="1"/>
        <pt x="461" y="27" on="0"/>
        <pt x="423" y="11" on="1"/>
        <pt x="374" y="-8" on="0"/>
        <pt x="315" y="-8" on="1"/>
        <pt x="176" y="-8" on="0"/>
        <pt x="99" y="100" on="1"/>
        <pt x="32" y="196" on="0"/>
      </contour>
    </TTGlyph>
    <TTGlyph name="Ccedilla" xMin="38" yMin="-224" xMax="535" yMax="676">
      <contour>
        <pt x="356" y="-224" on="1"/>
        <pt x="290" y="-224" on="0"/>
        <pt x="267" y="-175" on="1"/>
        <pt x="305" y="-140" on="1"/>
        <pt x="334" y="-173" on="0"/>
        <pt x="357" y="-173" on="1"/>
        <pt x="393" y="-173" on="0"/>
        <pt x="393" y="-138" on="1"/>
        <pt x="393" y="-98" on="0"/>
        <pt x="359" y="-98" on="1"/>
        <pt x="345" y="-98" on="0"/>
        <pt x="324" y="-114" on="1"/>
        <pt x="276" y="-92" on="1"/>
        <pt x="282" y="-6" on="1"/>
        <pt x="162" y="9" on="0"/>
        <pt x="96" y="115" on="1"/>
        <pt x="38" y="207" on="0"/>
        <pt x="38" y="337" on="1"/>
        <pt x="38" y="470" on="0"/>
        <pt x="106" y="565" on="1"/>
        <pt x="184" y="675" on="0"/>
        <pt x="323" y="676" on="1"/>
        <pt x="416" y="677" on="0"/>
        <pt x="526" y="611" on="1"/>
        <pt x="474" y="500" on="1"/>
        <pt x="439" y="524" on="0"/>
        <pt x="404" y="546" on="1"/>
        <pt x="360" y="573" on="0"/>
        <pt x="328" y="572" on="1"/>
        <pt x="245" y="572" on="0"/>
        <pt x="198" y="485" on="1"/>
        <pt x="160" y="414" on="0"/>
        <pt x="160" y="326" on="1"/>
        <pt x="160" y="228" on="0"/>
        <pt x="254" y="97" on="0"/>
        <pt x="319" y="97" on="1"/>
        <pt x="374" y="97" on="0"/>
        <pt x="478" y="156" on="1"/>
        <pt x="535" y="59" on="1"/>
        <pt x="465" y="21" on="0"/>
        <pt x="432" y="10" on="1"/>
        <pt x="389" y="-6" on="0"/>
        <pt x="340" y="-8" on="1"/>
        <pt x="337" y="-48" on="1"/>
        <pt x="346" y="-44" on="0"/>
        <pt x="362" y="-44" on="1"/>
        <pt x="405" y="-44" on="0"/>
        <pt x="432" y="-74" on="1"/>
        <pt x="455" y="-100" on="0"/>
        <pt x="455" y="-135" on="1"/>
        <pt x="455" y="-171" on="0"/>
        <pt x="403" y="-224" on="0"/>
      </contour>
    </TTGlyph>
    <TTGlyph name="D" xMin="65" yMin="-2" xMax="546" yMax="663">
      <contour>
        <pt x="65" y="2" on="1"/>
        <pt x="65" y="658" on="1"/>
        <pt x="147" y="662" on="0"/>
        <pt x="231" y="663" on="1"/>
        <pt x="543" y="663" on="0"/>
        <pt x="546" y="331" on="1"/>
        <pt x="547" y="174" on="0"/>
        <pt x="467" y="88" on="1"/>
        <pt x="385" y="-2" on="0"/>
        <pt x="227" y="-2" on="1"/>
        <pt x="202" y="-2" on="0"/>
        <pt x="107" y="2" on="0"/>
      </contour>
      <contour>
        <pt x="240" y="583" on="1"/>
        <pt x="233" y="583" on="0"/>
        <pt x="216" y="583" on="1"/>
        <pt x="201" y="582" on="0"/>
        <pt x="189" y="582" on="1"/>
        <pt x="189" y="89" on="1"/>
        <pt x="246" y="89" on="1"/>
        <pt x="325" y="89" on="0"/>
        <pt x="374" y="164" on="1"/>
        <pt x="418" y="231" on="0"/>
        <pt x="418" y="321" on="1"/>
        <pt x="418" y="583" on="0"/>
      </contour>
    </TTGlyph>
    <TTGlyph name="Delta" xMin="79" yMin="0" xMax="665" yMax="673">
      <contour>
        <pt x="328" y="673" on="1"/>
        <pt x="436" y="673" on="1"/>
        <pt x="665" y="0" on="1"/>
        <pt x="79" y="0" on="1"/>
      </contour>
      <contour>
        <pt x="241" y="92" on="1"/>
        <pt x="504" y="92" on="1"/>
        <pt x="381" y="502" on="1"/>
      </contour>
    </TTGlyph>
    <TTGlyph name="E" xMin="65" yMin="0" xMax="432" yMax="655">
      <contour>
        <pt x="183" y="400" on="1"/>
        <pt x="416" y="400" on="1"/>
        <pt x="416" y="309" on="1"/>
        <pt x="183" y="310" on="1"/>
        <pt x="183" y="91" on="1"/>
        <pt x="429" y="91" on="1"/>
        <pt x="429" y="0" on="1"/>
        <pt x="65" y="0" on="1"/>
        <pt x="65" y="655" on="1"/>
        <pt x="432" y="655" on="1"/>
        <pt x="432" y="568" on="1"/>
        <pt x="183" y="568" on="1"/>
      </contour>
    </TTGlyph>
    <TTGlyph name="Eacute" xMin="70" yMin="0" xMax="437" yMax="865">
      <contour>
        <pt x="189" y="400" on="1"/>
        <pt x="421" y="400" on="1"/>
        <pt x="421" y="299" on="1"/>
        <pt x="189" y="300" on="1"/>
        <pt x="189" y="112" on="1"/>
        <pt x="435" y="113" on="1"/>
        <pt x="435" y="0" on="1"/>
        <pt x="70" y="0" on="1"/>
        <pt x="70" y="655" on="1"/>
        <pt x="437" y="655" on="1"/>
        <pt x="437" y="548" on="1"/>
        <pt x="189" y="548" on="1"/>
      </contour>
      <contour>
        <pt x="119" y="774" on="1"/>
        <pt x="338" y="865" on="1"/>
        <pt x="401" y="785" on="1"/>
        <pt x="182" y="700" on="1"/>
      </contour>
    </TTGlyph>
    <TTGlyph name="Ecircumflex" xMin="70" yMin="0" xMax="437" yMax="896">
      <contour>
        <pt x="189" y="400" on="1"/>
        <pt x="421" y="400" on="1"/>
        <pt x="421" y="299" on="1"/>
        <pt x="189" y="300" on="1"/>
        <pt x="189" y="112" on="1"/>
        <pt x="435" y="113" on="1"/>
        <pt x="435" y="0" on="1"/>
        <pt x="70" y="0" on="1"/>
        <pt x="70" y="655" on="1"/>
        <pt x="437" y="655" on="1"/>
        <pt x="437" y="548" on="1"/>
        <pt x="189" y="548" on="1"/>
      </contour>
      <contour>
        <pt x="128" y="697" on="1"/>
        <pt x="128" y="787" on="1"/>
        <pt x="269" y="896" on="1"/>
        <pt x="415" y="787" on="1"/>
        <pt x="415" y="698" on="1"/>
        <pt x="269" y="777" on="1"/>
      </contour>
    </TTGlyph>
    <TTGlyph name="Edieresis" xMin="70" yMin="0" xMax="445" yMax="850">
      <contour>
        <pt x="189" y="400" on="1"/>
        <pt x="421" y="400" on="1"/>
        <pt x="421" y="299" on="1"/>
        <pt x="189" y="300" on="1"/>
        <pt x="189" y="112" on="1"/>
        <pt x="435" y="113" on="1"/>
        <pt x="435" y="0" on="1"/>
        <pt x="70" y="0" on="1"/>
        <pt x="70" y="655" on="1"/>
        <pt x="437" y="655" on="1"/>
        <pt x="437" y="548" on="1"/>
        <pt x="189" y="548" on="1"/>
      </contour>
      <contour>
        <pt x="302" y="776" on="1"/>
        <pt x="302" y="803" on="0"/>
        <pt x="319" y="824" on="1"/>
        <pt x="338" y="850" on="0"/>
        <pt x="374" y="850" on="1"/>
        <pt x="408" y="850" on="0"/>
        <pt x="428" y="824" on="1"/>
        <pt x="445" y="802" on="0"/>
        <pt x="445" y="776" on="1"/>
        <pt x="445" y="748" on="0"/>
        <pt x="428" y="727" on="1"/>
        <pt x="408" y="702" on="0"/>
        <pt x="374" y="702" on="1"/>
        <pt x="339" y="702" on="0"/>
        <pt x="319" y="727" on="1"/>
        <pt x="302" y="747" on="0"/>
      </contour>
      <contour>
        <pt x="88" y="776" on="1"/>
        <pt x="88" y="804" on="0"/>
        <pt x="104" y="824" on="1"/>
        <pt x="124" y="850" on="0"/>
        <pt x="160" y="850" on="1"/>
        <pt x="193" y="850" on="0"/>
        <pt x="213" y="824" on="1"/>
        <pt x="230" y="802" on="0"/>
        <pt x="230" y="776" on="1"/>
        <pt x="230" y="748" on="0"/>
        <pt x="213" y="727" on="1"/>
        <pt x="194" y="702" on="0"/>
        <pt x="160" y="702" on="1"/>
        <pt x="125" y="702" on="0"/>
        <pt x="104" y="727" on="1"/>
        <pt x="88" y="747" on="0"/>
      </contour>
    </TTGlyph>
    <TTGlyph name="Egrave" xMin="70" yMin="0" xMax="437" yMax="861">
      <contour>
        <pt x="189" y="400" on="1"/>
        <pt x="421" y="400" on="1"/>
        <pt x="421" y="299" on="1"/>
        <pt x="189" y="300" on="1"/>
        <pt x="189" y="112" on="1"/>
        <pt x="435" y="113" on="1"/>
        <pt x="435" y="0" on="1"/>
        <pt x="70" y="0" on="1"/>
        <pt x="70" y="655" on="1"/>
        <pt x="437" y="655" on="1"/>
        <pt x="437" y="548" on="1"/>
        <pt x="189" y="548" on="1"/>
      </contour>
      <contour>
        <pt x="342" y="702" on="1"/>
        <pt x="129" y="795" on="1"/>
        <pt x="176" y="861" on="1"/>
        <pt x="392" y="763" on="1"/>
      </contour>
    </TTGlyph>
    <TTGlyph name="Eth" xMin="6" yMin="-2" xMax="546" yMax="663">
      <contour>
        <pt x="248" y="361" on="1"/>
        <pt x="248" y="257" on="1"/>
        <pt x="183" y="257" on="1"/>
        <pt x="183" y="110" on="1"/>
        <pt x="249" y="110" on="1"/>
        <pt x="330" y="110" on="0"/>
        <pt x="376" y="174" on="1"/>
        <pt x="417" y="232" on="0"/>
        <pt x="417" y="321" on="1"/>
        <pt x="417" y="440" on="0"/>
        <pt x="380" y="498" on="1"/>
        <pt x="338" y="563" on="0"/>
        <pt x="244" y="562" on="1"/>
        <pt x="237" y="562" on="0"/>
        <pt x="215" y="562" on="1"/>
        <pt x="195" y="561" on="0"/>
        <pt x="183" y="561" on="1"/>
        <pt x="183" y="361" on="1"/>
      </contour>
      <contour>
        <pt x="60" y="361" on="1"/>
        <pt x="60" y="658" on="1"/>
        <pt x="143" y="662" on="0"/>
        <pt x="218" y="663" on="1"/>
        <pt x="384" y="663" on="0"/>
        <pt x="463" y="586" on="1"/>
        <pt x="545" y="505" on="0"/>
        <pt x="546" y="331" on="1"/>
        <pt x="547" y="174" on="0"/>
        <pt x="466" y="88" on="1"/>
        <pt x="383" y="-2" on="0"/>
        <pt x="224" y="-2" on="1"/>
        <pt x="198" y="-2" on="0"/>
        <pt x="102" y="2" on="0"/>
        <pt x="60" y="2" on="1"/>
        <pt x="60" y="257" on="1"/>
        <pt x="6" y="257" on="1"/>
        <pt x="6" y="361" on="1"/>
      </contour>
    </TTGlyph>
    <TTGlyph name="F" xMin="65" yMin="0" xMax="433" yMax="655">
      <contour>
        <pt x="183" y="400" on="1"/>
        <pt x="418" y="400" on="1"/>
        <pt x="418" y="309" on="1"/>
        <pt x="183" y="309" on="1"/>
        <pt x="183" y="0" on="1"/>
        <pt x="65" y="0" on="1"/>
        <pt x="65" y="655" on="1"/>
        <pt x="433" y="655" on="1"/>
        <pt x="433" y="568" on="1"/>
        <pt x="183" y="568" on="1"/>
      </contour>
    </TTGlyph>
    <TTGlyph name="G" xMin="32" yMin="-6" xMax="531" yMax="676">
      <contour>
        <pt x="309" y="-6" on="1"/>
        <pt x="177" y="-6" on="0"/>
        <pt x="100" y="101" on="1"/>
        <pt x="32" y="195" on="0"/>
        <pt x="32" y="331" on="1"/>
        <pt x="31" y="455" on="0"/>
        <pt x="96" y="556" on="1"/>
        <pt x="174" y="676" on="0"/>
        <pt x="306" y="676" on="1"/>
        <pt x="353" y="676" on="0"/>
        <pt x="413" y="658" on="1"/>
        <pt x="482" y="636" on="0"/>
        <pt x="521" y="604" on="1"/>
        <pt x="479" y="526" on="1"/>
        <pt x="397" y="582" on="0"/>
        <pt x="329" y="583" on="1"/>
        <pt x="252" y="583" on="0"/>
        <pt x="206" y="489" on="1"/>
        <pt x="168" y="412" on="0"/>
        <pt x="168" y="326" on="1"/>
        <pt x="168" y="230" on="0"/>
        <pt x="252" y="94" on="0"/>
        <pt x="313" y="94" on="1"/>
        <pt x="375" y="94" on="0"/>
        <pt x="410" y="111" on="1"/>
        <pt x="410" y="311" on="1"/>
        <pt x="275" y="311" on="1"/>
        <pt x="275" y="400" on="1"/>
        <pt x="531" y="400" on="1"/>
        <pt x="531" y="67" on="1"/>
        <pt x="464" y="26" on="0"/>
        <pt x="425" y="12" on="1"/>
        <pt x="375" y="-6" on="0"/>
      </contour>
    </TTGlyph>
    <TTGlyph name="H" xMin="65" yMin="0" xMax="531" yMax="655">
      <contour>
        <pt x="411" y="309" on="1"/>
        <pt x="186" y="309" on="1"/>
        <pt x="186" y="0" on="1"/>
        <pt x="65" y="0" on="1"/>
        <pt x="65" y="655" on="1"/>
        <pt x="186" y="655" on="1"/>
        <pt x="186" y="400" on="1"/>
        <pt x="411" y="400" on="1"/>
        <pt x="411" y="655" on="1"/>
        <pt x="531" y="655" on="1"/>
        <pt x="531" y="0" on="1"/>
        <pt x="411" y="0" on="1"/>
      </contour>
    </TTGlyph>
    <TTGlyph name="I" xMin="65" yMin="0" xMax="186" yMax="656">
      <contour>
        <pt x="65" y="656" on="1"/>
        <pt x="186" y="656" on="1"/>
        <pt x="186" y="0" on="1"/>
        <pt x="65" y="0" on="1"/>
      </contour>
    </TTGlyph>
    <TTGlyph name="Iacute" xMin="-22" yMin="0" xMax="262" yMax="855">
      <contour>
        <pt x="49" y="657" on="1"/>
        <pt x="181" y="657" on="1"/>
        <pt x="181" y="0" on="1"/>
        <pt x="49" y="0" on="1"/>
      </contour>
      <contour>
        <pt x="-22" y="764" on="1"/>
        <pt x="199" y="855" on="1"/>
        <pt x="262" y="775" on="1"/>
        <pt x="43" y="690" on="1"/>
      </contour>
    </TTGlyph>
    <TTGlyph name="Icircumflex" xMin="-32" yMin="0" xMax="255" yMax="896">
      <contour>
        <pt x="43" y="657" on="1"/>
        <pt x="175" y="657" on="1"/>
        <pt x="175" y="0" on="1"/>
        <pt x="43" y="0" on="1"/>
      </contour>
      <contour>
        <pt x="-32" y="697" on="1"/>
        <pt x="-32" y="787" on="1"/>
        <pt x="110" y="896" on="1"/>
        <pt x="255" y="787" on="1"/>
        <pt x="255" y="698" on="1"/>
        <pt x="110" y="777" on="1"/>
      </contour>
    </TTGlyph>
    <TTGlyph name="Idieresis" xMin="-62" yMin="0" xMax="295" yMax="840">
      <contour>
        <pt x="49" y="657" on="1"/>
        <pt x="181" y="657" on="1"/>
        <pt x="181" y="0" on="1"/>
        <pt x="49" y="0" on="1"/>
      </contour>
      <contour>
        <pt x="152" y="766" on="1"/>
        <pt x="152" y="793" on="0"/>
        <pt x="169" y="814" on="1"/>
        <pt x="188" y="840" on="0"/>
        <pt x="223" y="840" on="1"/>
        <pt x="257" y="840" on="0"/>
        <pt x="278" y="814" on="1"/>
        <pt x="295" y="792" on="0"/>
        <pt x="295" y="766" on="1"/>
        <pt x="295" y="738" on="0"/>
        <pt x="278" y="717" on="1"/>
        <pt x="258" y="692" on="0"/>
        <pt x="188" y="692" on="0"/>
        <pt x="169" y="717" on="1"/>
        <pt x="152" y="737" on="0"/>
      </contour>
      <contour>
        <pt x="-62" y="766" on="1"/>
        <pt x="-62" y="794" on="0"/>
        <pt x="-46" y="814" on="1"/>
        <pt x="-26" y="840" on="0"/>
        <pt x="9" y="840" on="1"/>
        <pt x="42" y="840" on="0"/>
        <pt x="62" y="814" on="1"/>
        <pt x="79" y="792" on="0"/>
        <pt x="80" y="766" on="1"/>
        <pt x="80" y="738" on="0"/>
        <pt x="62" y="717" on="1"/>
        <pt x="43" y="692" on="0"/>
        <pt x="9" y="692" on="1"/>
        <pt x="-26" y="692" on="0"/>
        <pt x="-46" y="717" on="1"/>
        <pt x="-62" y="737" on="0"/>
      </contour>
    </TTGlyph>
    <TTGlyph name="Igrave" xMin="-11" yMin="0" xMax="252" yMax="861">
      <contour>
        <pt x="49" y="657" on="1"/>
        <pt x="181" y="657" on="1"/>
        <pt x="181" y="0" on="1"/>
        <pt x="49" y="0" on="1"/>
      </contour>
      <contour>
        <pt x="203" y="702" on="1"/>
        <pt x="-11" y="795" on="1"/>
        <pt x="37" y="861" on="1"/>
        <pt x="252" y="763" on="1"/>
      </contour>
    </TTGlyph>
    <TTGlyph name="J" xMin="-154" yMin="-191" xMax="188" yMax="655">
      <contour>
        <pt x="13" y="-191" on="1"/>
        <pt x="-43" y="-191" on="0"/>
        <pt x="-81" y="-171" on="1"/>
        <pt x="-105" y="-158" on="0"/>
        <pt x="-154" y="-114" on="1"/>
        <pt x="-91" y="-37" on="1"/>
        <pt x="-66" y="-67" on="0"/>
        <pt x="-49" y="-78" on="1"/>
        <pt x="-26" y="-93" on="0"/>
        <pt x="5" y="-93" on="1"/>
        <pt x="65" y="-93" on="0"/>
        <pt x="66" y="61" on="1"/>
        <pt x="66" y="655" on="1"/>
        <pt x="188" y="655" on="1"/>
        <pt x="188" y="69" on="1"/>
        <pt x="188" y="-191" on="0"/>
      </contour>
    </TTGlyph>
    <TTGlyph name="K" xMin="65" yMin="-24" xMax="555" yMax="689">
      <contour>
        <pt x="221" y="261" on="1"/>
        <pt x="186" y="211" on="1"/>
        <pt x="186" y="0" on="1"/>
        <pt x="65" y="0" on="1"/>
        <pt x="65" y="656" on="1"/>
        <pt x="186" y="656" on="1"/>
        <pt x="186" y="359" on="1"/>
        <pt x="392" y="689" on="1"/>
        <pt x="500" y="635" on="1"/>
        <pt x="418" y="522" on="0"/>
        <pt x="287" y="338" on="1"/>
        <pt x="324" y="277" on="0"/>
        <pt x="412" y="173" on="1"/>
        <pt x="484" y="90" on="0"/>
        <pt x="555" y="8" on="1"/>
        <pt x="412" y="-24" on="1"/>
        <pt x="311" y="114" on="0"/>
      </contour>
    </TTGlyph>
    <TTGlyph name="L" xMin="65" yMin="0" xMax="449" yMax="656">
      <contour>
        <pt x="65" y="656" on="1"/>
        <pt x="184" y="656" on="1"/>
        <pt x="184" y="87" on="1"/>
        <pt x="449" y="87" on="1"/>
        <pt x="449" y="0" on="1"/>
        <pt x="65" y="0" on="1"/>
      </contour>
    </TTGlyph>
    <TTGlyph name="Lslash" xMin="6" yMin="0" xMax="449" yMax="656">
      <contour>
        <pt x="59" y="376" on="1"/>
        <pt x="59" y="656" on="1"/>
        <pt x="180" y="656" on="1"/>
        <pt x="180" y="423" on="1"/>
        <pt x="244" y="447" on="1"/>
        <pt x="244" y="331" on="1"/>
        <pt x="180" y="306" on="1"/>
        <pt x="180" y="108" on="1"/>
        <pt x="449" y="108" on="1"/>
        <pt x="449" y="0" on="1"/>
        <pt x="59" y="0" on="1"/>
        <pt x="59" y="260" on="1"/>
        <pt x="6" y="240" on="1"/>
        <pt x="6" y="355" on="1"/>
      </contour>
    </TTGlyph>
    <TTGlyph name="M" xMin="75" yMin="-1" xMax="736" yMax="657">
      <contour>
        <pt x="602" y="437" on="1"/>
        <pt x="446" y="-1" on="1"/>
        <pt x="340" y="-1" on="1"/>
        <pt x="183" y="441" on="1"/>
        <pt x="183" y="0" on="1"/>
        <pt x="75" y="0" on="1"/>
        <pt x="75" y="657" on="1"/>
        <pt x="230" y="657" on="1"/>
        <pt x="409" y="174" on="1"/>
        <pt x="591" y="657" on="1"/>
        <pt x="736" y="657" on="1"/>
        <pt x="736" y="0" on="1"/>
        <pt x="602" y="0" on="1"/>
      </contour>
    </TTGlyph>
    <TTGlyph name="N" xMin="65" yMin="-15" xMax="531" yMax="659">
      <contour>
        <pt x="171" y="411" on="1"/>
        <pt x="170" y="0" on="1"/>
        <pt x="65" y="0" on="1"/>
        <pt x="65" y="659" on="1"/>
        <pt x="163" y="659" on="1"/>
        <pt x="427" y="245" on="1"/>
        <pt x="427" y="655" on="1"/>
        <pt x="531" y="655" on="1"/>
        <pt x="531" y="15" on="1"/>
        <pt x="434" y="-15" on="1"/>
        <pt x="334" y="169" on="0"/>
      </contour>
    </TTGlyph>
    <TTGlyph name="Ntilde" xMin="70" yMin="-15" xMax="537" yMax="814">
      <contour>
        <pt x="185" y="404" on="1"/>
        <pt x="185" y="1" on="1"/>
        <pt x="70" y="-1" on="1"/>
        <pt x="70" y="659" on="1"/>
        <pt x="168" y="659" on="1"/>
        <pt x="422" y="265" on="1"/>
        <pt x="422" y="655" on="1"/>
        <pt x="537" y="655" on="1"/>
        <pt x="537" y="15" on="1"/>
        <pt x="450" y="-15" on="1"/>
        <pt x="370" y="130" on="0"/>
      </contour>
      <contour>
        <pt x="307" y="706" on="1"/>
        <pt x="270" y="730" on="0"/>
        <pt x="262" y="729" on="1"/>
        <pt x="235" y="729" on="0"/>
        <pt x="195" y="681" on="1"/>
        <pt x="155" y="761" on="1"/>
        <pt x="195" y="812" on="0"/>
        <pt x="262" y="814" on="1"/>
        <pt x="293" y="815" on="0"/>
        <pt x="373" y="760" on="0"/>
        <pt x="383" y="760" on="1"/>
        <pt x="396" y="760" on="0"/>
        <pt x="435" y="792" on="1"/>
        <pt x="473" y="714" on="1"/>
        <pt x="457" y="698" on="0"/>
        <pt x="400" y="675" on="0"/>
        <pt x="385" y="675" on="1"/>
        <pt x="355" y="675" on="0"/>
      </contour>
    </TTGlyph>
    <TTGlyph name="O" xMin="33" yMin="-16" xMax="628" yMax="662">
      <contour>
        <pt x="33" y="330" on="1"/>
        <pt x="33" y="473" on="0"/>
        <pt x="203" y="662" on="0"/>
        <pt x="334" y="662" on="1"/>
        <pt x="464" y="662" on="0"/>
        <pt x="628" y="473" on="0"/>
        <pt x="628" y="330" on="1"/>
        <pt x="628" y="167" on="0"/>
        <pt x="540" y="73" on="1"/>
        <pt x="457" y="-16" on="0"/>
        <pt x="327" y="-16" on="1"/>
        <pt x="198" y="-16" on="0"/>
        <pt x="118" y="73" on="1"/>
        <pt x="33" y="167" on="0"/>
      </contour>
      <contour>
        <pt x="161" y="321" on="1"/>
        <pt x="161" y="222" on="0"/>
        <pt x="255" y="76" on="0"/>
        <pt x="327" y="76" on="1"/>
        <pt x="400" y="76" on="0"/>
        <pt x="451" y="151" on="1"/>
        <pt x="500" y="223" on="0"/>
        <pt x="500" y="319" on="1"/>
        <pt x="500" y="421" on="0"/>
        <pt x="455" y="495" on="1"/>
        <pt x="408" y="572" on="0"/>
        <pt x="332" y="571" on="1"/>
        <pt x="256" y="571" on="0"/>
        <pt x="207" y="495" on="1"/>
        <pt x="161" y="422" on="0"/>
      </contour>
    </TTGlyph>
    <TTGlyph name="OE" xMin="43" yMin="-3" xMax="987" yMax="673">
      <contour>
        <pt x="599" y="161" on="1"/>
        <pt x="501" y="-3" on="0"/>
        <pt x="344" y="-3" on="1"/>
        <pt x="212" y="-3" on="0"/>
        <pt x="129" y="89" on="1"/>
        <pt x="43" y="185" on="0"/>
        <pt x="43" y="348" on="1"/>
        <pt x="43" y="491" on="0"/>
        <pt x="215" y="673" on="0"/>
        <pt x="350" y="673" on="1"/>
        <pt x="504" y="673" on="0"/>
        <pt x="599" y="522" on="1"/>
        <pt x="599" y="654" on="1"/>
        <pt x="987" y="654" on="1"/>
        <pt x="987" y="547" on="1"/>
        <pt x="693" y="547" on="1"/>
        <pt x="693" y="399" on="1"/>
        <pt x="978" y="399" on="1"/>
        <pt x="978" y="298" on="1"/>
        <pt x="693" y="298" on="1"/>
        <pt x="693" y="110" on="1"/>
        <pt x="987" y="110" on="1"/>
        <pt x="987" y="0" on="1"/>
        <pt x="599" y="0" on="1"/>
      </contour>
      <contour>
        <pt x="165" y="339" on="1"/>
        <pt x="165" y="242" on="0"/>
        <pt x="269" y="100" on="0"/>
        <pt x="344" y="100" on="1"/>
        <pt x="420" y="100" on="0"/>
        <pt x="530" y="242" on="0"/>
        <pt x="530" y="339" on="1"/>
        <pt x="530" y="437" on="0"/>
        <pt x="429" y="571" on="0"/>
        <pt x="349" y="571" on="1"/>
        <pt x="269" y="571" on="0"/>
        <pt x="165" y="436" on="0"/>
      </contour>
    </TTGlyph>
    <TTGlyph name="Oacute" xMin="38" yMin="-16" xMax="633" yMax="855">
      <contour>
        <pt x="38" y="330" on="1"/>
        <pt x="38" y="473" on="0"/>
        <pt x="208" y="662" on="0"/>
        <pt x="339" y="662" on="1"/>
        <pt x="470" y="662" on="0"/>
        <pt x="633" y="473" on="0"/>
        <pt x="633" y="330" on="1"/>
        <pt x="633" y="167" on="0"/>
        <pt x="545" y="73" on="1"/>
        <pt x="462" y="-16" on="0"/>
        <pt x="332" y="-16" on="1"/>
        <pt x="203" y="-16" on="0"/>
        <pt x="123" y="73" on="1"/>
        <pt x="38" y="167" on="0"/>
      </contour>
      <contour>
        <pt x="156" y="321" on="1"/>
        <pt x="156" y="225" on="0"/>
        <pt x="258" y="86" on="0"/>
        <pt x="332" y="86" on="1"/>
        <pt x="407" y="86" on="0"/>
        <pt x="516" y="224" on="0"/>
        <pt x="516" y="319" on="1"/>
        <pt x="516" y="418" on="0"/>
        <pt x="414" y="561" on="0"/>
        <pt x="337" y="561" on="1"/>
        <pt x="260" y="561" on="0"/>
        <pt x="156" y="419" on="0"/>
      </contour>
      <contour>
        <pt x="194" y="764" on="1"/>
        <pt x="414" y="855" on="1"/>
        <pt x="477" y="775" on="1"/>
        <pt x="258" y="690" on="1"/>
      </contour>
    </TTGlyph>
    <TTGlyph name="Ocircumflex" xMin="38" yMin="-16" xMax="633" yMax="886">
      <contour>
        <pt x="38" y="330" on="1"/>
        <pt x="38" y="473" on="0"/>
        <pt x="208" y="662" on="0"/>
        <pt x="339" y="662" on="1"/>
        <pt x="470" y="662" on="0"/>
        <pt x="633" y="473" on="0"/>
        <pt x="633" y="330" on="1"/>
        <pt x="633" y="167" on="0"/>
        <pt x="545" y="73" on="1"/>
        <pt x="462" y="-16" on="0"/>
        <pt x="332" y="-16" on="1"/>
        <pt x="203" y="-16" on="0"/>
        <pt x="123" y="73" on="1"/>
        <pt x="38" y="167" on="0"/>
      </contour>
      <contour>
        <pt x="156" y="321" on="1"/>
        <pt x="156" y="225" on="0"/>
        <pt x="258" y="86" on="0"/>
        <pt x="332" y="86" on="1"/>
        <pt x="407" y="86" on="0"/>
        <pt x="516" y="224" on="0"/>
        <pt x="516" y="319" on="1"/>
        <pt x="516" y="418" on="0"/>
        <pt x="414" y="561" on="0"/>
        <pt x="337" y="561" on="1"/>
        <pt x="260" y="561" on="0"/>
        <pt x="156" y="419" on="0"/>
      </contour>
      <contour>
        <pt x="200" y="677" on="1"/>
        <pt x="200" y="777" on="1"/>
        <pt x="341" y="886" on="1"/>
        <pt x="486" y="777" on="1"/>
        <pt x="486" y="678" on="1"/>
        <pt x="341" y="767" on="1"/>
      </contour>
    </TTGlyph>
    <TTGlyph name="Odieresis" xMin="38" yMin="-16" xMax="633" yMax="840">
      <contour>
        <pt x="38" y="330" on="1"/>
        <pt x="38" y="473" on="0"/>
        <pt x="208" y="662" on="0"/>
        <pt x="339" y="662" on="1"/>
        <pt x="470" y="662" on="0"/>
        <pt x="633" y="473" on="0"/>
        <pt x="633" y="330" on="1"/>
        <pt x="633" y="167" on="0"/>
        <pt x="545" y="73" on="1"/>
        <pt x="462" y="-16" on="0"/>
        <pt x="332" y="-16" on="1"/>
        <pt x="203" y="-16" on="0"/>
        <pt x="123" y="73" on="1"/>
        <pt x="38" y="167" on="0"/>
      </contour>
      <contour>
        <pt x="156" y="321" on="1"/>
        <pt x="156" y="225" on="0"/>
        <pt x="258" y="86" on="0"/>
        <pt x="332" y="86" on="1"/>
        <pt x="407" y="86" on="0"/>
        <pt x="516" y="224" on="0"/>
        <pt x="516" y="319" on="1"/>
        <pt x="516" y="418" on="0"/>
        <pt x="414" y="561" on="0"/>
        <pt x="337" y="561" on="1"/>
        <pt x="260" y="561" on="0"/>
        <pt x="156" y="419" on="0"/>
      </contour>
      <contour>
        <pt x="378" y="766" on="1"/>
        <pt x="378" y="794" on="0"/>
        <pt x="394" y="814" on="1"/>
        <pt x="414" y="840" on="0"/>
        <pt x="450" y="840" on="1"/>
        <pt x="483" y="840" on="0"/>
        <pt x="504" y="814" on="1"/>
        <pt x="521" y="792" on="0"/>
        <pt x="521" y="766" on="1"/>
        <pt x="521" y="738" on="0"/>
        <pt x="504" y="717" on="1"/>
        <pt x="484" y="692" on="0"/>
        <pt x="450" y="692" on="1"/>
        <pt x="415" y="692" on="0"/>
        <pt x="394" y="717" on="1"/>
        <pt x="378" y="737" on="0"/>
      </contour>
      <contour>
        <pt x="163" y="766" on="1"/>
        <pt x="163" y="794" on="0"/>
        <pt x="179" y="814" on="1"/>
        <pt x="199" y="840" on="0"/>
        <pt x="234" y="840" on="1"/>
        <pt x="268" y="840" on="0"/>
        <pt x="289" y="814" on="1"/>
        <pt x="306" y="792" on="0"/>
        <pt x="306" y="766" on="1"/>
        <pt x="306" y="738" on="0"/>
        <pt x="289" y="717" on="1"/>
        <pt x="269" y="692" on="0"/>
        <pt x="199" y="692" on="0"/>
        <pt x="180" y="717" on="1"/>
        <pt x="163" y="737" on="0"/>
      </contour>
    </TTGlyph>
    <TTGlyph name="Ograve" xMin="38" yMin="-16" xMax="633" yMax="861">
      <contour>
        <pt x="38" y="330" on="1"/>
        <pt x="38" y="473" on="0"/>
        <pt x="208" y="662" on="0"/>
        <pt x="339" y="662" on="1"/>
        <pt x="470" y="662" on="0"/>
        <pt x="633" y="473" on="0"/>
        <pt x="633" y="330" on="1"/>
        <pt x="633" y="167" on="0"/>
        <pt x="545" y="73" on="1"/>
        <pt x="462" y="-16" on="0"/>
        <pt x="332" y="-16" on="1"/>
        <pt x="203" y="-16" on="0"/>
        <pt x="123" y="73" on="1"/>
        <pt x="38" y="167" on="0"/>
      </contour>
      <contour>
        <pt x="156" y="321" on="1"/>
        <pt x="156" y="225" on="0"/>
        <pt x="258" y="86" on="0"/>
        <pt x="332" y="86" on="1"/>
        <pt x="407" y="86" on="0"/>
        <pt x="516" y="224" on="0"/>
        <pt x="516" y="319" on="1"/>
        <pt x="516" y="418" on="0"/>
        <pt x="414" y="561" on="0"/>
        <pt x="337" y="561" on="1"/>
        <pt x="260" y="561" on="0"/>
        <pt x="156" y="419" on="0"/>
      </contour>
      <contour>
        <pt x="418" y="702" on="1"/>
        <pt x="204" y="795" on="1"/>
        <pt x="252" y="861" on="1"/>
        <pt x="467" y="763" on="1"/>
      </contour>
    </TTGlyph>
    <TTGlyph name="Omega" xMin="41" yMin="0" xMax="600" yMax="652">
      <contour>
        <pt x="427" y="101" on="1"/>
        <pt x="579" y="101" on="1"/>
        <pt x="579" y="0" on="1"/>
        <pt x="343" y="0" on="1"/>
        <pt x="343" y="208" on="1"/>
        <pt x="403" y="208" on="0"/>
        <pt x="444" y="260" on="1"/>
        <pt x="481" y="306" on="0"/>
        <pt x="481" y="355" on="1"/>
        <pt x="481" y="559" on="0"/>
        <pt x="325" y="560" on="1"/>
        <pt x="247" y="560" on="0"/>
        <pt x="159" y="453" on="0"/>
        <pt x="159" y="355" on="1"/>
        <pt x="159" y="302" on="0"/>
        <pt x="189" y="260" on="1"/>
        <pt x="228" y="208" on="0"/>
        <pt x="297" y="208" on="1"/>
        <pt x="297" y="0" on="1"/>
        <pt x="62" y="0" on="1"/>
        <pt x="62" y="101" on="1"/>
        <pt x="210" y="101" on="1"/>
        <pt x="210" y="128" on="1"/>
        <pt x="140" y="146" on="0"/>
        <pt x="41" y="290" on="0"/>
        <pt x="41" y="366" on="1"/>
        <pt x="41" y="507" on="0"/>
        <pt x="119" y="582" on="1"/>
        <pt x="193" y="653" on="0"/>
        <pt x="326" y="652" on="1"/>
        <pt x="458" y="652" on="0"/>
        <pt x="600" y="507" on="0"/>
        <pt x="600" y="366" on="1"/>
        <pt x="600" y="290" on="0"/>
        <pt x="498" y="144" on="0"/>
        <pt x="427" y="128" on="1"/>
      </contour>
    </TTGlyph>
    <TTGlyph name="Oslash" xMin="33" yMin="-76" xMax="628" yMax="703">
      <contour>
        <pt x="33" y="330" on="1"/>
        <pt x="33" y="473" on="0"/>
        <pt x="203" y="662" on="0"/>
        <pt x="334" y="662" on="1"/>
        <pt x="357" y="662" on="0"/>
        <pt x="376" y="658" on="1"/>
        <pt x="389" y="703" on="1"/>
        <pt x="501" y="669" on="1"/>
        <pt x="485" y="618" on="1"/>
        <pt x="552" y="576" on="0"/>
        <pt x="628" y="425" on="0"/>
        <pt x="628" y="330" on="1"/>
        <pt x="628" y="167" on="0"/>
        <pt x="540" y="73" on="1"/>
        <pt x="457" y="-16" on="0"/>
        <pt x="327" y="-16" on="1"/>
        <pt x="316" y="-16" on="0"/>
        <pt x="295" y="-14" on="1"/>
        <pt x="276" y="-76" on="1"/>
        <pt x="165" y="-41" on="1"/>
        <pt x="183" y="19" on="1"/>
        <pt x="33" y="106" on="0"/>
      </contour>
      <contour>
        <pt x="326" y="86" on="1"/>
        <pt x="327" y="86" on="1"/>
        <pt x="402" y="86" on="0"/>
        <pt x="511" y="224" on="0"/>
        <pt x="511" y="319" on="1"/>
        <pt x="511" y="430" on="0"/>
        <pt x="451" y="502" on="1"/>
      </contour>
      <contour>
        <pt x="151" y="321" on="1"/>
        <pt x="151" y="208" on="0"/>
        <pt x="218" y="135" on="1"/>
        <pt x="346" y="560" on="1"/>
        <pt x="341" y="561" on="0"/>
        <pt x="332" y="561" on="1"/>
        <pt x="254" y="561" on="0"/>
        <pt x="151" y="419" on="0"/>
      </contour>
    </TTGlyph>
    <TTGlyph name="Otilde" xMin="38" yMin="-16" xMax="633" yMax="824">
      <contour>
        <pt x="38" y="330" on="1"/>
        <pt x="38" y="473" on="0"/>
        <pt x="208" y="662" on="0"/>
        <pt x="339" y="662" on="1"/>
        <pt x="470" y="662" on="0"/>
        <pt x="633" y="473" on="0"/>
        <pt x="633" y="330" on="1"/>
        <pt x="633" y="167" on="0"/>
        <pt x="545" y="73" on="1"/>
        <pt x="462" y="-16" on="0"/>
        <pt x="332" y="-16" on="1"/>
        <pt x="203" y="-16" on="0"/>
        <pt x="123" y="73" on="1"/>
        <pt x="38" y="167" on="0"/>
      </contour>
      <contour>
        <pt x="156" y="321" on="1"/>
        <pt x="156" y="225" on="0"/>
        <pt x="258" y="86" on="0"/>
        <pt x="332" y="86" on="1"/>
        <pt x="407" y="86" on="0"/>
        <pt x="516" y="224" on="0"/>
        <pt x="516" y="319" on="1"/>
        <pt x="516" y="418" on="0"/>
        <pt x="414" y="561" on="0"/>
        <pt x="337" y="561" on="1"/>
        <pt x="260" y="561" on="0"/>
        <pt x="156" y="419" on="0"/>
      </contour>
      <contour>
        <pt x="307" y="716" on="1"/>
        <pt x="270" y="740" on="0"/>
        <pt x="262" y="739" on="1"/>
        <pt x="235" y="739" on="0"/>
        <pt x="195" y="691" on="1"/>
        <pt x="155" y="771" on="1"/>
        <pt x="195" y="822" on="0"/>
        <pt x="262" y="824" on="1"/>
        <pt x="293" y="825" on="0"/>
        <pt x="373" y="770" on="0"/>
        <pt x="383" y="770" on="1"/>
        <pt x="396" y="770" on="0"/>
        <pt x="435" y="802" on="1"/>
        <pt x="473" y="724" on="1"/>
        <pt x="457" y="708" on="0"/>
        <pt x="400" y="685" on="0"/>
        <pt x="385" y="685" on="1"/>
        <pt x="355" y="685" on="0"/>
      </contour>
    </TTGlyph>
    <TTGlyph name="P" xMin="65" yMin="0" xMax="458" yMax="659">
      <contour>
        <pt x="183" y="265" on="1"/>
        <pt x="183" y="0" on="1"/>
        <pt x="65" y="0" on="1"/>
        <pt x="65" y="656" on="1"/>
        <pt x="257" y="659" on="1"/>
        <pt x="341" y="660" on="0"/>
        <pt x="458" y="547" on="0"/>
        <pt x="458" y="462" on="1"/>
        <pt x="458" y="383" on="0"/>
        <pt x="321" y="263" on="0"/>
        <pt x="236" y="263" on="1"/>
        <pt x="224" y="263" on="0"/>
      </contour>
      <contour>
        <pt x="183" y="583" on="1"/>
        <pt x="183" y="335" on="1"/>
        <pt x="216" y="335" on="1"/>
        <pt x="267" y="335" on="0"/>
        <pt x="340" y="410" on="0"/>
        <pt x="340" y="459" on="1"/>
        <pt x="340" y="576" on="0"/>
        <pt x="228" y="585" on="1"/>
        <pt x="221" y="586" on="0"/>
        <pt x="190" y="583" on="0"/>
      </contour>
    </TTGlyph>
    <TTGlyph name="Q" xMin="32" yMin="-80" xMax="684" yMax="662">
      <contour>
        <pt x="475" y="42" on="1"/>
        <pt x="394" y="-19" on="0"/>
        <pt x="328" y="-19" on="1"/>
        <pt x="199" y="-19" on="0"/>
        <pt x="117" y="71" on="1"/>
        <pt x="32" y="166" on="0"/>
        <pt x="32" y="329" on="1"/>
        <pt x="32" y="473" on="0"/>
        <pt x="203" y="662" on="0"/>
        <pt x="335" y="662" on="1"/>
        <pt x="466" y="662" on="0"/>
        <pt x="630" y="476" on="0"/>
        <pt x="630" y="332" on="1"/>
        <pt x="630" y="199" on="0"/>
        <pt x="553" y="125" on="1"/>
        <pt x="684" y="6" on="1"/>
        <pt x="607" y="-80" on="1"/>
      </contour>
      <contour>
        <pt x="161" y="322" on="1"/>
        <pt x="161" y="223" on="0"/>
        <pt x="206" y="150" on="1"/>
        <pt x="254" y="74" on="0"/>
        <pt x="325" y="74" on="1"/>
        <pt x="369" y="74" on="0"/>
        <pt x="404" y="103" on="1"/>
        <pt x="327" y="168" on="1"/>
        <pt x="407" y="253" on="1"/>
        <pt x="477" y="189" on="1"/>
        <pt x="501" y="226" on="0"/>
        <pt x="501" y="323" on="1"/>
        <pt x="501" y="424" on="0"/>
        <pt x="457" y="495" on="1"/>
        <pt x="409" y="571" on="0"/>
        <pt x="333" y="570" on="1"/>
        <pt x="256" y="570" on="0"/>
        <pt x="207" y="495" on="1"/>
        <pt x="161" y="423" on="0"/>
      </contour>
    </TTGlyph>
    <TTGlyph name="R" xMin="65" yMin="-11" xMax="555" yMax="659">
      <contour>
        <pt x="206" y="269" on="1"/>
        <pt x="183" y="269" on="1"/>
        <pt x="183" y="0" on="1"/>
        <pt x="65" y="0" on="1"/>
        <pt x="65" y="656" on="1"/>
        <pt x="93" y="656" on="0"/>
        <pt x="170" y="658" on="1"/>
        <pt x="226" y="659" on="0"/>
        <pt x="262" y="659" on="1"/>
        <pt x="355" y="659" on="0"/>
        <pt x="454" y="558" on="0"/>
        <pt x="453" y="469" on="1"/>
        <pt x="452" y="398" on="0"/>
        <pt x="412" y="346" on="1"/>
        <pt x="376" y="300" on="0"/>
        <pt x="321" y="283" on="1"/>
        <pt x="402" y="170" on="0"/>
        <pt x="555" y="16" on="1"/>
        <pt x="404" y="-11" on="1"/>
        <pt x="329" y="66" on="0"/>
      </contour>
      <contour>
        <pt x="183" y="583" on="1"/>
        <pt x="183" y="341" on="1"/>
        <pt x="225" y="341" on="1"/>
        <pt x="338" y="341" on="0"/>
        <pt x="338" y="470" on="1"/>
        <pt x="338" y="513" on="0"/>
        <pt x="321" y="543" on="1"/>
        <pt x="296" y="587" on="0"/>
        <pt x="239" y="585" on="1"/>
      </contour>
    </TTGlyph>
    <TTGlyph name="S" xMin="25" yMin="-10" xMax="444" yMax="680">
      <contour>
        <pt x="25" y="84" on="1"/>
        <pt x="80" y="163" on="1"/>
        <pt x="141" y="91" on="0"/>
        <pt x="220" y="91" on="1"/>
        <pt x="328" y="91" on="0"/>
        <pt x="327" y="196" on="1"/>
        <pt x="327" y="249" on="0"/>
        <pt x="252" y="280" on="1"/>
        <pt x="130" y="331" on="0"/>
        <pt x="116" y="341" on="1"/>
        <pt x="42" y="392" on="0"/>
        <pt x="43" y="498" on="1"/>
        <pt x="44" y="582" on="0"/>
        <pt x="110" y="635" on="1"/>
        <pt x="166" y="680" on="0"/>
        <pt x="232" y="680" on="1"/>
        <pt x="338" y="680" on="0"/>
        <pt x="425" y="607" on="1"/>
        <pt x="384" y="521" on="1"/>
        <pt x="314" y="587" on="0"/>
        <pt x="252" y="587" on="1"/>
        <pt x="210" y="587" on="0"/>
        <pt x="190" y="570" on="1"/>
        <pt x="165" y="550" on="0"/>
        <pt x="166" y="497" on="1"/>
        <pt x="166" y="450" on="0"/>
        <pt x="238" y="421" on="1"/>
        <pt x="350" y="376" on="0"/>
        <pt x="372" y="359" on="1"/>
        <pt x="445" y="305" on="0"/>
        <pt x="444" y="198" on="1"/>
        <pt x="444" y="93" on="0"/>
        <pt x="376" y="37" on="1"/>
        <pt x="317" y="-10" on="0"/>
        <pt x="228" y="-10" on="1"/>
        <pt x="92" y="-10" on="0"/>
      </contour>
    </TTGlyph>
    <TTGlyph name="Scaron" xMin="24" yMin="-10" xMax="450" yMax="879">
      <component glyphName="S" x="0" y="0" flags="0x1004"/>
      <component glyphName="caron" x="134" y="154" flags="0x1004"/>
    </TTGlyph>
    <TTGlyph name="T" xMin="32" yMin="0" xMax="516" yMax="654">
      <contour>
        <pt x="340" y="0" on="1"/>
        <pt x="218" y="0" on="1"/>
        <pt x="218" y="571" on="1"/>
        <pt x="32" y="571" on="1"/>
        <pt x="32" y="654" on="1"/>
        <pt x="516" y="654" on="1"/>
        <pt x="516" y="571" on="1"/>
        <pt x="340" y="571" on="1"/>
      </contour>
    </TTGlyph>
    <TTGlyph name="Thorn" xMin="61" yMin="-111" xMax="506" yMax="717">
      <contour>
        <pt x="178" y="184" on="1"/>
        <pt x="178" y="-111" on="1"/>
        <pt x="61" y="-111" on="1"/>
        <pt x="61" y="717" on="1"/>
        <pt x="178" y="717" on="1"/>
        <pt x="178" y="634" on="1"/>
        <pt x="245" y="693" on="0"/>
        <pt x="284" y="693" on="1"/>
        <pt x="388" y="693" on="0"/>
        <pt x="451" y="604" on="1"/>
        <pt x="505" y="526" on="0"/>
        <pt x="506" y="417" on="1"/>
        <pt x="507" y="273" on="0"/>
        <pt x="441" y="200" on="1"/>
        <pt x="384" y="137" on="0"/>
        <pt x="286" y="136" on="1"/>
        <pt x="259" y="136" on="0"/>
        <pt x="205" y="168" on="0"/>
      </contour>
      <contour>
        <pt x="178" y="522" on="1"/>
        <pt x="178" y="287" on="1"/>
        <pt x="193" y="264" on="0"/>
        <pt x="252" y="231" on="0"/>
        <pt x="281" y="231" on="1"/>
        <pt x="334" y="231" on="0"/>
        <pt x="362" y="285" on="1"/>
        <pt x="387" y="332" on="0"/>
        <pt x="387" y="404" on="1"/>
        <pt x="387" y="479" on="0"/>
        <pt x="359" y="530" on="1"/>
        <pt x="326" y="589" on="0"/>
        <pt x="266" y="590" on="1"/>
        <pt x="211" y="590" on="0"/>
      </contour>
    </TTGlyph>
    <TTGlyph name="U" xMin="65" yMin="-17" xMax="561" yMax="655">
      <contour>
        <pt x="305" y="-17" on="1"/>
        <pt x="209" y="-17" on="0"/>
        <pt x="142" y="43" on="1"/>
        <pt x="64" y="113" on="0"/>
        <pt x="65" y="241" on="1"/>
        <pt x="65" y="655" on="1"/>
        <pt x="186" y="655" on="1"/>
        <pt x="186" y="241" on="1"/>
        <pt x="186" y="159" on="0"/>
        <pt x="232" y="112" on="1"/>
        <pt x="270" y="73" on="0"/>
        <pt x="317" y="73" on="1"/>
        <pt x="362" y="73" on="0"/>
        <pt x="398" y="113" on="1"/>
        <pt x="439" y="160" on="0"/>
        <pt x="439" y="241" on="1"/>
        <pt x="439" y="655" on="1"/>
        <pt x="561" y="655" on="1"/>
        <pt x="561" y="241" on="1"/>
        <pt x="561" y="113" on="0"/>
        <pt x="475" y="42" on="1"/>
        <pt x="403" y="-17" on="0"/>
      </contour>
    </TTGlyph>
    <TTGlyph name="Uacute" xMin="70" yMin="-17" xMax="525" yMax="855">
      <contour>
        <pt x="290" y="-17" on="1"/>
        <pt x="196" y="-17" on="0"/>
        <pt x="137" y="43" on="1"/>
        <pt x="69" y="111" on="0"/>
        <pt x="70" y="241" on="1"/>
        <pt x="70" y="655" on="1"/>
        <pt x="191" y="655" on="1"/>
        <pt x="191" y="241" on="1"/>
        <pt x="191" y="83" on="0"/>
        <pt x="292" y="83" on="1"/>
        <pt x="337" y="83" on="0"/>
        <pt x="368" y="118" on="1"/>
        <pt x="404" y="160" on="0"/>
        <pt x="403" y="241" on="1"/>
        <pt x="403" y="655" on="1"/>
        <pt x="525" y="655" on="1"/>
        <pt x="525" y="241" on="1"/>
        <pt x="525" y="112" on="0"/>
        <pt x="450" y="42" on="1"/>
        <pt x="385" y="-17" on="0"/>
      </contour>
      <contour>
        <pt x="151" y="764" on="1"/>
        <pt x="371" y="855" on="1"/>
        <pt x="434" y="775" on="1"/>
        <pt x="215" y="690" on="1"/>
      </contour>
    </TTGlyph>
    <TTGlyph name="Ucircumflex" xMin="70" yMin="-17" xMax="525" yMax="886">
      <contour>
        <pt x="290" y="-17" on="1"/>
        <pt x="196" y="-17" on="0"/>
        <pt x="137" y="43" on="1"/>
        <pt x="69" y="111" on="0"/>
        <pt x="70" y="241" on="1"/>
        <pt x="70" y="655" on="1"/>
        <pt x="191" y="655" on="1"/>
        <pt x="191" y="241" on="1"/>
        <pt x="191" y="83" on="0"/>
        <pt x="292" y="83" on="1"/>
        <pt x="337" y="83" on="0"/>
        <pt x="368" y="118" on="1"/>
        <pt x="404" y="160" on="0"/>
        <pt x="403" y="241" on="1"/>
        <pt x="403" y="655" on="1"/>
        <pt x="525" y="655" on="1"/>
        <pt x="525" y="241" on="1"/>
        <pt x="525" y="112" on="0"/>
        <pt x="450" y="42" on="1"/>
        <pt x="385" y="-17" on="0"/>
      </contour>
      <contour>
        <pt x="148" y="687" on="1"/>
        <pt x="148" y="777" on="1"/>
        <pt x="290" y="886" on="1"/>
        <pt x="435" y="777" on="1"/>
        <pt x="435" y="688" on="1"/>
        <pt x="290" y="767" on="1"/>
      </contour>
    </TTGlyph>
    <TTGlyph name="Udieresis" xMin="70" yMin="-17" xMax="525" yMax="840">
      <contour>
        <pt x="290" y="-17" on="1"/>
        <pt x="196" y="-17" on="0"/>
        <pt x="137" y="43" on="1"/>
        <pt x="69" y="111" on="0"/>
        <pt x="70" y="241" on="1"/>
        <pt x="70" y="655" on="1"/>
        <pt x="191" y="655" on="1"/>
        <pt x="191" y="241" on="1"/>
        <pt x="191" y="83" on="0"/>
        <pt x="292" y="83" on="1"/>
        <pt x="337" y="83" on="0"/>
        <pt x="368" y="118" on="1"/>
        <pt x="404" y="160" on="0"/>
        <pt x="403" y="241" on="1"/>
        <pt x="403" y="655" on="1"/>
        <pt x="525" y="655" on="1"/>
        <pt x="525" y="241" on="1"/>
        <pt x="525" y="112" on="0"/>
        <pt x="450" y="42" on="1"/>
        <pt x="385" y="-17" on="0"/>
      </contour>
      <contour>
        <pt x="324" y="766" on="1"/>
        <pt x="324" y="793" on="0"/>
        <pt x="341" y="814" on="1"/>
        <pt x="360" y="840" on="0"/>
        <pt x="395" y="840" on="1"/>
        <pt x="429" y="840" on="0"/>
        <pt x="450" y="814" on="1"/>
        <pt x="467" y="792" on="0"/>
        <pt x="467" y="766" on="1"/>
        <pt x="467" y="738" on="0"/>
        <pt x="450" y="717" on="1"/>
        <pt x="430" y="692" on="0"/>
        <pt x="360" y="692" on="0"/>
        <pt x="341" y="717" on="1"/>
        <pt x="324" y="737" on="0"/>
      </contour>
      <contour>
        <pt x="110" y="766" on="1"/>
        <pt x="110" y="794" on="0"/>
        <pt x="126" y="814" on="1"/>
        <pt x="146" y="840" on="0"/>
        <pt x="181" y="840" on="1"/>
        <pt x="214" y="840" on="0"/>
        <pt x="234" y="814" on="1"/>
        <pt x="251" y="792" on="0"/>
        <pt x="252" y="766" on="1"/>
        <pt x="252" y="738" on="0"/>
        <pt x="234" y="717" on="1"/>
        <pt x="215" y="692" on="0"/>
        <pt x="181" y="692" on="1"/>
        <pt x="146" y="692" on="0"/>
        <pt x="126" y="717" on="1"/>
        <pt x="110" y="737" on="0"/>
      </contour>
    </TTGlyph>
    <TTGlyph name="Ugrave" xMin="70" yMin="-17" xMax="525" yMax="861">
      <contour>
        <pt x="290" y="-17" on="1"/>
        <pt x="196" y="-17" on="0"/>
        <pt x="137" y="43" on="1"/>
        <pt x="69" y="111" on="0"/>
        <pt x="70" y="241" on="1"/>
        <pt x="70" y="655" on="1"/>
        <pt x="191" y="655" on="1"/>
        <pt x="191" y="241" on="1"/>
        <pt x="191" y="83" on="0"/>
        <pt x="292" y="83" on="1"/>
        <pt x="337" y="83" on="0"/>
        <pt x="368" y="118" on="1"/>
        <pt x="404" y="160" on="0"/>
        <pt x="403" y="241" on="1"/>
        <pt x="403" y="655" on="1"/>
        <pt x="525" y="655" on="1"/>
        <pt x="525" y="241" on="1"/>
        <pt x="525" y="112" on="0"/>
        <pt x="450" y="42" on="1"/>
        <pt x="385" y="-17" on="0"/>
      </contour>
      <contour>
        <pt x="375" y="702" on="1"/>
        <pt x="161" y="795" on="1"/>
        <pt x="209" y="861" on="1"/>
        <pt x="424" y="763" on="1"/>
      </contour>
    </TTGlyph>
    <TTGlyph name="V" xMin="8" yMin="-10" xMax="547" yMax="674">
      <contour>
        <pt x="232" y="-10" on="1"/>
        <pt x="8" y="641" on="1"/>
        <pt x="135" y="673" on="1"/>
        <pt x="293" y="191" on="1"/>
        <pt x="441" y="674" on="1"/>
        <pt x="547" y="640" on="1"/>
        <pt x="322" y="-10" on="1"/>
      </contour>
    </TTGlyph>
    <TTGlyph name="W" xMin="11" yMin="-6" xMax="802" yMax="665">
      <contour>
        <pt x="542" y="-6" on="1"/>
        <pt x="417" y="406" on="1"/>
        <pt x="285" y="-6" on="1"/>
        <pt x="195" y="-6" on="1"/>
        <pt x="11" y="637" on="1"/>
        <pt x="147" y="664" on="1"/>
        <pt x="262" y="213" on="1"/>
        <pt x="375" y="651" on="1"/>
        <pt x="480" y="651" on="1"/>
        <pt x="593" y="214" on="1"/>
        <pt x="699" y="665" on="1"/>
        <pt x="802" y="636" on="1"/>
        <pt x="622" y="-6" on="1"/>
      </contour>
    </TTGlyph>
    <TTGlyph name="X" xMin="27" yMin="-31" xMax="560" yMax="680">
      <contour>
        <pt x="282" y="250" on="1"/>
        <pt x="140" y="-31" on="1"/>
        <pt x="27" y="10" on="1"/>
        <pt x="220" y="325" on="1"/>
        <pt x="38" y="636" on="1"/>
        <pt x="157" y="678" on="1"/>
        <pt x="291" y="417" on="1"/>
        <pt x="427" y="680" on="1"/>
        <pt x="522" y="635" on="1"/>
        <pt x="342" y="337" on="1"/>
        <pt x="560" y="10" on="1"/>
        <pt x="432" y="-26" on="1"/>
      </contour>
    </TTGlyph>
    <TTGlyph name="Y" xMin="11" yMin="0" xMax="503" yMax="670">
      <contour>
        <pt x="317" y="0" on="1"/>
        <pt x="197" y="0" on="1"/>
        <pt x="197" y="278" on="1"/>
        <pt x="11" y="636" on="1"/>
        <pt x="137" y="670" on="1"/>
        <pt x="269" y="380" on="1"/>
        <pt x="409" y="670" on="1"/>
        <pt x="503" y="636" on="1"/>
        <pt x="317" y="278" on="1"/>
      </contour>
    </TTGlyph>
    <TTGlyph name="Yacute" xMin="27" yMin="0" xMax="498" yMax="804">
      <contour>
        <pt x="324" y="0" on="1"/>
        <pt x="202" y="0" on="1"/>
        <pt x="202" y="278" on="1"/>
        <pt x="27" y="636" on="1"/>
        <pt x="139" y="670" on="1"/>
        <pt x="265" y="384" on="1"/>
        <pt x="389" y="670" on="1"/>
        <pt x="498" y="636" on="1"/>
        <pt x="324" y="278" on="1"/>
      </contour>
      <contour>
        <pt x="140" y="713" on="1"/>
        <pt x="359" y="804" on="1"/>
        <pt x="423" y="724" on="1"/>
        <pt x="204" y="639" on="1"/>
      </contour>
    </TTGlyph>
    <TTGlyph name="Ydieresis" xMin="27" yMin="0" xMax="498" yMax="850">
      <contour>
        <pt x="324" y="0" on="1"/>
        <pt x="202" y="0" on="1"/>
        <pt x="202" y="278" on="1"/>
        <pt x="27" y="636" on="1"/>
        <pt x="139" y="670" on="1"/>
        <pt x="265" y="384" on="1"/>
        <pt x="389" y="670" on="1"/>
        <pt x="498" y="636" on="1"/>
        <pt x="324" y="278" on="1"/>
      </contour>
      <contour>
        <pt x="313" y="776" on="1"/>
        <pt x="313" y="804" on="0"/>
        <pt x="330" y="824" on="1"/>
        <pt x="350" y="850" on="0"/>
        <pt x="385" y="850" on="1"/>
        <pt x="418" y="850" on="0"/>
        <pt x="439" y="824" on="1"/>
        <pt x="456" y="802" on="0"/>
        <pt x="457" y="776" on="1"/>
        <pt x="457" y="748" on="0"/>
        <pt x="439" y="727" on="1"/>
        <pt x="419" y="702" on="0"/>
        <pt x="385" y="702" on="1"/>
        <pt x="350" y="702" on="0"/>
        <pt x="330" y="727" on="1"/>
        <pt x="313" y="747" on="0"/>
      </contour>
      <contour>
        <pt x="98" y="776" on="1"/>
        <pt x="98" y="804" on="0"/>
        <pt x="115" y="824" on="1"/>
        <pt x="135" y="850" on="0"/>
        <pt x="170" y="850" on="1"/>
        <pt x="204" y="850" on="0"/>
        <pt x="224" y="824" on="1"/>
        <pt x="241" y="802" on="0"/>
        <pt x="242" y="776" on="1"/>
        <pt x="242" y="748" on="0"/>
        <pt x="224" y="727" on="1"/>
        <pt x="204" y="702" on="0"/>
        <pt x="170" y="702" on="1"/>
        <pt x="135" y="702" on="0"/>
        <pt x="116" y="727" on="1"/>
        <pt x="98" y="747" on="0"/>
      </contour>
    </TTGlyph>
    <TTGlyph name="Z" xMin="36" yMin="0" xMax="506" yMax="654">
      <contour>
        <pt x="489" y="101" on="1"/>
        <pt x="489" y="0" on="1"/>
        <pt x="62" y="0" on="1"/>
        <pt x="36" y="76" on="1"/>
        <pt x="350" y="563" on="1"/>
        <pt x="70" y="561" on="1"/>
        <pt x="70" y="654" on="1"/>
        <pt x="482" y="654" on="1"/>
        <pt x="506" y="568" on="1"/>
        <pt x="199" y="101" on="1"/>
      </contour>
    </TTGlyph>
    <TTGlyph name="Zcaron" xMin="70" yMin="0" xMax="499" yMax="886">
      <contour>
        <pt x="495" y="101" on="1"/>
        <pt x="495" y="0" on="1"/>
        <pt x="79" y="0" on="1"/>
        <pt x="70" y="88" on="1"/>
        <pt x="355" y="563" on="1"/>
        <pt x="86" y="561" on="1"/>
        <pt x="86" y="654" on="1"/>
        <pt x="487" y="654" on="1"/>
        <pt x="499" y="571" on="1"/>
        <pt x="214" y="101" on="1"/>
      </contour>
      <contour>
        <pt x="477" y="886" on="1"/>
        <pt x="477" y="785" on="1"/>
        <pt x="337" y="677" on="1"/>
        <pt x="190" y="785" on="1"/>
        <pt x="190" y="885" on="1"/>
        <pt x="336" y="796" on="1"/>
      </contour>
    </TTGlyph>
    <TTGlyph name="a" xMin="42" yMin="-16" xMax="492" yMax="524">
      <contour>
        <pt x="306" y="228" on="1"/>
        <pt x="275" y="228" on="0"/>
        <pt x="231" y="220" on="1"/>
        <pt x="182" y="212" on="0"/>
        <pt x="166" y="201" on="1"/>
        <pt x="141" y="186" on="0"/>
        <pt x="141" y="140" on="1"/>
        <pt x="141" y="111" on="0"/>
        <pt x="178" y="68" on="0"/>
        <pt x="203" y="68" on="1"/>
        <pt x="265" y="68" on="0"/>
        <pt x="305" y="117" on="1"/>
      </contour>
      <contour>
        <pt x="316" y="55" on="1"/>
        <pt x="273" y="17" on="0"/>
        <pt x="257" y="6" on="1"/>
        <pt x="223" y="-17" on="0"/>
        <pt x="189" y="-16" on="1"/>
        <pt x="128" y="-16" on="0"/>
        <pt x="87" y="24" on="1"/>
        <pt x="42" y="68" on="0"/>
        <pt x="42" y="139" on="1"/>
        <pt x="42" y="224" on="0"/>
        <pt x="91" y="260" on="1"/>
        <pt x="123" y="282" on="0"/>
        <pt x="216" y="300" on="1"/>
        <pt x="264" y="309" on="0"/>
        <pt x="303" y="313" on="1"/>
        <pt x="303" y="367" on="1"/>
        <pt x="303" y="390" on="0"/>
        <pt x="266" y="429" on="0"/>
        <pt x="242" y="429" on="1"/>
        <pt x="149" y="429" on="0"/>
        <pt x="90" y="359" on="1"/>
        <pt x="46" y="422" on="1"/>
        <pt x="74" y="468" on="0"/>
        <pt x="137" y="498" on="1"/>
        <pt x="192" y="525" on="0"/>
        <pt x="242" y="524" on="1"/>
        <pt x="315" y="524" on="0"/>
        <pt x="414" y="430" on="0"/>
        <pt x="414" y="357" on="1"/>
        <pt x="414" y="100" on="1"/>
        <pt x="414" y="94" on="0"/>
        <pt x="429" y="78" on="0"/>
        <pt x="437" y="78" on="1"/>
        <pt x="470" y="78" on="0"/>
        <pt x="480" y="88" on="1"/>
        <pt x="492" y="23" on="1"/>
        <pt x="430" y="-11" on="0"/>
        <pt x="391" y="-11" on="1"/>
        <pt x="376" y="-11" on="0"/>
        <pt x="351" y="7" on="1"/>
        <pt x="323" y="28" on="0"/>
      </contour>
    </TTGlyph>
    <TTGlyph name="aacute" xMin="42" yMin="-16" xMax="492" yMax="732">
      <contour>
        <pt x="129" y="641" on="1"/>
        <pt x="349" y="732" on="1"/>
        <pt x="413" y="652" on="1"/>
        <pt x="194" y="567" on="1"/>
      </contour>
      <contour>
        <pt x="306" y="228" on="1"/>
        <pt x="275" y="228" on="0"/>
        <pt x="231" y="220" on="1"/>
        <pt x="182" y="212" on="0"/>
        <pt x="166" y="201" on="1"/>
        <pt x="141" y="186" on="0"/>
        <pt x="141" y="140" on="1"/>
        <pt x="141" y="111" on="0"/>
        <pt x="178" y="68" on="0"/>
        <pt x="203" y="68" on="1"/>
        <pt x="265" y="68" on="0"/>
        <pt x="305" y="117" on="1"/>
      </contour>
      <contour>
        <pt x="316" y="55" on="1"/>
        <pt x="273" y="17" on="0"/>
        <pt x="257" y="6" on="1"/>
        <pt x="223" y="-17" on="0"/>
        <pt x="189" y="-16" on="1"/>
        <pt x="128" y="-16" on="0"/>
        <pt x="87" y="24" on="1"/>
        <pt x="42" y="68" on="0"/>
        <pt x="42" y="139" on="1"/>
        <pt x="42" y="224" on="0"/>
        <pt x="91" y="260" on="1"/>
        <pt x="123" y="282" on="0"/>
        <pt x="216" y="300" on="1"/>
        <pt x="264" y="309" on="0"/>
        <pt x="303" y="313" on="1"/>
        <pt x="303" y="367" on="1"/>
        <pt x="303" y="390" on="0"/>
        <pt x="266" y="429" on="0"/>
        <pt x="242" y="429" on="1"/>
        <pt x="149" y="429" on="0"/>
        <pt x="90" y="359" on="1"/>
        <pt x="46" y="422" on="1"/>
        <pt x="74" y="468" on="0"/>
        <pt x="137" y="498" on="1"/>
        <pt x="192" y="525" on="0"/>
        <pt x="242" y="524" on="1"/>
        <pt x="315" y="524" on="0"/>
        <pt x="414" y="430" on="0"/>
        <pt x="414" y="357" on="1"/>
        <pt x="414" y="100" on="1"/>
        <pt x="414" y="94" on="0"/>
        <pt x="429" y="78" on="0"/>
        <pt x="437" y="78" on="1"/>
        <pt x="470" y="78" on="0"/>
        <pt x="480" y="88" on="1"/>
        <pt x="492" y="23" on="1"/>
        <pt x="430" y="-11" on="0"/>
        <pt x="391" y="-11" on="1"/>
        <pt x="376" y="-11" on="0"/>
        <pt x="351" y="7" on="1"/>
        <pt x="323" y="28" on="0"/>
      </contour>
    </TTGlyph>
    <TTGlyph name="acircumflex" xMin="42" yMin="-16" xMax="492" yMax="732">
      <contour>
        <pt x="118" y="534" on="1"/>
        <pt x="118" y="624" on="1"/>
        <pt x="259" y="732" on="1"/>
        <pt x="404" y="624" on="1"/>
        <pt x="404" y="535" on="1"/>
        <pt x="259" y="613" on="1"/>
      </contour>
      <contour>
        <pt x="306" y="228" on="1"/>
        <pt x="275" y="228" on="0"/>
        <pt x="231" y="220" on="1"/>
        <pt x="182" y="212" on="0"/>
        <pt x="166" y="201" on="1"/>
        <pt x="141" y="186" on="0"/>
        <pt x="141" y="140" on="1"/>
        <pt x="141" y="111" on="0"/>
        <pt x="178" y="68" on="0"/>
        <pt x="203" y="68" on="1"/>
        <pt x="265" y="68" on="0"/>
        <pt x="305" y="117" on="1"/>
      </contour>
      <contour>
        <pt x="316" y="55" on="1"/>
        <pt x="273" y="17" on="0"/>
        <pt x="257" y="6" on="1"/>
        <pt x="223" y="-17" on="0"/>
        <pt x="189" y="-16" on="1"/>
        <pt x="128" y="-16" on="0"/>
        <pt x="87" y="24" on="1"/>
        <pt x="42" y="68" on="0"/>
        <pt x="42" y="139" on="1"/>
        <pt x="42" y="224" on="0"/>
        <pt x="91" y="260" on="1"/>
        <pt x="123" y="282" on="0"/>
        <pt x="216" y="300" on="1"/>
        <pt x="264" y="309" on="0"/>
        <pt x="303" y="313" on="1"/>
        <pt x="303" y="367" on="1"/>
        <pt x="303" y="390" on="0"/>
        <pt x="266" y="429" on="0"/>
        <pt x="242" y="429" on="1"/>
        <pt x="149" y="429" on="0"/>
        <pt x="90" y="359" on="1"/>
        <pt x="46" y="422" on="1"/>
        <pt x="74" y="468" on="0"/>
        <pt x="137" y="498" on="1"/>
        <pt x="192" y="525" on="0"/>
        <pt x="242" y="524" on="1"/>
        <pt x="315" y="524" on="0"/>
        <pt x="414" y="430" on="0"/>
        <pt x="414" y="357" on="1"/>
        <pt x="414" y="100" on="1"/>
        <pt x="414" y="94" on="0"/>
        <pt x="429" y="78" on="0"/>
        <pt x="437" y="78" on="1"/>
        <pt x="470" y="78" on="0"/>
        <pt x="480" y="88" on="1"/>
        <pt x="492" y="23" on="1"/>
        <pt x="430" y="-11" on="0"/>
        <pt x="391" y="-11" on="1"/>
        <pt x="376" y="-11" on="0"/>
        <pt x="351" y="7" on="1"/>
        <pt x="323" y="28" on="0"/>
      </contour>
    </TTGlyph>
    <TTGlyph name="acute" xMin="48" yMin="567" xMax="301" yMax="732">
      <contour>
        <pt x="48" y="641" on="1"/>
        <pt x="268" y="732" on="1"/>
        <pt x="301" y="652" on="1"/>
        <pt x="82" y="567" on="1"/>
      </contour>
    </TTGlyph>
    <TTGlyph name="adieresis" xMin="42" yMin="-16" xMax="492" yMax="686">
      <contour>
        <pt x="292" y="612" on="1"/>
        <pt x="292" y="640" on="0"/>
        <pt x="308" y="660" on="1"/>
        <pt x="328" y="686" on="0"/>
        <pt x="364" y="686" on="1"/>
        <pt x="397" y="686" on="0"/>
        <pt x="418" y="660" on="1"/>
        <pt x="435" y="638" on="0"/>
        <pt x="435" y="612" on="1"/>
        <pt x="435" y="584" on="0"/>
        <pt x="418" y="563" on="1"/>
        <pt x="398" y="538" on="0"/>
        <pt x="364" y="539" on="1"/>
        <pt x="329" y="539" on="0"/>
        <pt x="308" y="563" on="1"/>
        <pt x="292" y="583" on="0"/>
      </contour>
      <contour>
        <pt x="77" y="612" on="1"/>
        <pt x="77" y="640" on="0"/>
        <pt x="93" y="660" on="1"/>
        <pt x="113" y="686" on="0"/>
        <pt x="148" y="686" on="1"/>
        <pt x="182" y="686" on="0"/>
        <pt x="203" y="660" on="1"/>
        <pt x="220" y="638" on="0"/>
        <pt x="220" y="612" on="1"/>
        <pt x="220" y="584" on="0"/>
        <pt x="203" y="563" on="1"/>
        <pt x="183" y="538" on="0"/>
        <pt x="148" y="539" on="1"/>
        <pt x="113" y="539" on="0"/>
        <pt x="94" y="563" on="1"/>
        <pt x="77" y="583" on="0"/>
      </contour>
      <contour>
        <pt x="306" y="228" on="1"/>
        <pt x="275" y="228" on="0"/>
        <pt x="231" y="220" on="1"/>
        <pt x="182" y="212" on="0"/>
        <pt x="166" y="201" on="1"/>
        <pt x="141" y="186" on="0"/>
        <pt x="141" y="140" on="1"/>
        <pt x="141" y="111" on="0"/>
        <pt x="178" y="68" on="0"/>
        <pt x="203" y="68" on="1"/>
        <pt x="265" y="68" on="0"/>
        <pt x="305" y="117" on="1"/>
      </contour>
      <contour>
        <pt x="316" y="55" on="1"/>
        <pt x="273" y="17" on="0"/>
        <pt x="257" y="6" on="1"/>
        <pt x="223" y="-17" on="0"/>
        <pt x="189" y="-16" on="1"/>
        <pt x="128" y="-16" on="0"/>
        <pt x="87" y="24" on="1"/>
        <pt x="42" y="68" on="0"/>
        <pt x="42" y="139" on="1"/>
        <pt x="42" y="224" on="0"/>
        <pt x="91" y="260" on="1"/>
        <pt x="123" y="282" on="0"/>
        <pt x="216" y="300" on="1"/>
        <pt x="264" y="309" on="0"/>
        <pt x="303" y="313" on="1"/>
        <pt x="303" y="367" on="1"/>
        <pt x="303" y="390" on="0"/>
        <pt x="266" y="429" on="0"/>
        <pt x="242" y="429" on="1"/>
        <pt x="149" y="429" on="0"/>
        <pt x="90" y="359" on="1"/>
        <pt x="46" y="422" on="1"/>
        <pt x="74" y="468" on="0"/>
        <pt x="137" y="498" on="1"/>
        <pt x="192" y="525" on="0"/>
        <pt x="242" y="524" on="1"/>
        <pt x="315" y="524" on="0"/>
        <pt x="414" y="430" on="0"/>
        <pt x="414" y="357" on="1"/>
        <pt x="414" y="100" on="1"/>
        <pt x="414" y="94" on="0"/>
        <pt x="429" y="78" on="0"/>
        <pt x="437" y="78" on="1"/>
        <pt x="470" y="78" on="0"/>
        <pt x="480" y="88" on="1"/>
        <pt x="492" y="23" on="1"/>
        <pt x="430" y="-11" on="0"/>
        <pt x="391" y="-11" on="1"/>
        <pt x="376" y="-11" on="0"/>
        <pt x="351" y="7" on="1"/>
        <pt x="323" y="28" on="0"/>
      </contour>
    </TTGlyph>
    <TTGlyph name="ae" xMin="42" yMin="-16" xMax="743" yMax="524">
      <contour>
        <pt x="554" y="439" on="1"/>
        <pt x="499" y="439" on="0"/>
        <pt x="473" y="412" on="1"/>
        <pt x="454" y="392" on="0"/>
        <pt x="437" y="333" on="1"/>
        <pt x="630" y="333" on="1"/>
        <pt x="630" y="334" on="1"/>
        <pt x="630" y="439" on="0"/>
      </contour>
      <contour>
        <pt x="288" y="-1" on="1"/>
        <pt x="247" y="-16" on="0"/>
        <pt x="195" y="-16" on="1"/>
        <pt x="132" y="-16" on="0"/>
        <pt x="88" y="24" on="1"/>
        <pt x="42" y="67" on="0"/>
        <pt x="42" y="139" on="1"/>
        <pt x="42" y="224" on="0"/>
        <pt x="94" y="263" on="1"/>
        <pt x="128" y="288" on="0"/>
        <pt x="221" y="310" on="1"/>
        <pt x="261" y="319" on="0"/>
        <pt x="311" y="327" on="1"/>
        <pt x="311" y="367" on="1"/>
        <pt x="311" y="389" on="0"/>
        <pt x="274" y="419" on="0"/>
        <pt x="249" y="419" on="1"/>
        <pt x="202" y="419" on="0"/>
        <pt x="116" y="349" on="1"/>
        <pt x="53" y="432" on="1"/>
        <pt x="95" y="470" on="0"/>
        <pt x="158" y="499" on="1"/>
        <pt x="216" y="525" on="0"/>
        <pt x="249" y="524" on="1"/>
        <pt x="341" y="524" on="0"/>
        <pt x="392" y="457" on="1"/>
        <pt x="458" y="519" on="0"/>
        <pt x="560" y="519" on="1"/>
        <pt x="639" y="519" on="0"/>
        <pt x="743" y="407" on="0"/>
        <pt x="743" y="311" on="1"/>
        <pt x="743" y="245" on="1"/>
        <pt x="436" y="245" on="1"/>
        <pt x="438" y="70" on="0"/>
        <pt x="564" y="70" on="1"/>
        <pt x="619" y="70" on="0"/>
        <pt x="680" y="150" on="1"/>
        <pt x="735" y="77" on="1"/>
        <pt x="663" y="-12" on="0"/>
        <pt x="557" y="-12" on="1"/>
        <pt x="440" y="-12" on="0"/>
        <pt x="378" y="59" on="1"/>
        <pt x="324" y="12" on="0"/>
      </contour>
      <contour>
        <pt x="257" y="210" on="1"/>
        <pt x="201" y="200" on="0"/>
        <pt x="186" y="194" on="1"/>
        <pt x="150" y="178" on="0"/>
        <pt x="151" y="137" on="1"/>
        <pt x="150" y="82" on="0"/>
        <pt x="206" y="82" on="1"/>
        <pt x="240" y="82" on="0"/>
        <pt x="271" y="96" on="1"/>
        <pt x="311" y="113" on="0"/>
        <pt x="311" y="143" on="1"/>
        <pt x="311" y="219" on="1"/>
        <pt x="305" y="218" on="0"/>
      </contour>
    </TTGlyph>
    <TTGlyph name="agrave" xMin="42" yMin="-16" xMax="492" yMax="732">
      <contour>
        <pt x="383" y="641" on="1"/>
        <pt x="163" y="732" on="1"/>
        <pt x="99" y="652" on="1"/>
        <pt x="318" y="567" on="1"/>
      </contour>
      <contour>
        <pt x="306" y="228" on="1"/>
        <pt x="275" y="228" on="0"/>
        <pt x="231" y="220" on="1"/>
        <pt x="182" y="212" on="0"/>
        <pt x="166" y="201" on="1"/>
        <pt x="141" y="186" on="0"/>
        <pt x="141" y="140" on="1"/>
        <pt x="141" y="111" on="0"/>
        <pt x="178" y="68" on="0"/>
        <pt x="203" y="68" on="1"/>
        <pt x="265" y="68" on="0"/>
        <pt x="305" y="117" on="1"/>
      </contour>
      <contour>
        <pt x="316" y="55" on="1"/>
        <pt x="273" y="17" on="0"/>
        <pt x="257" y="6" on="1"/>
        <pt x="223" y="-17" on="0"/>
        <pt x="189" y="-16" on="1"/>
        <pt x="128" y="-16" on="0"/>
        <pt x="87" y="24" on="1"/>
        <pt x="42" y="68" on="0"/>
        <pt x="42" y="139" on="1"/>
        <pt x="42" y="224" on="0"/>
        <pt x="91" y="260" on="1"/>
        <pt x="123" y="282" on="0"/>
        <pt x="216" y="300" on="1"/>
        <pt x="264" y="309" on="0"/>
        <pt x="303" y="313" on="1"/>
        <pt x="303" y="367" on="1"/>
        <pt x="303" y="390" on="0"/>
        <pt x="266" y="429" on="0"/>
        <pt x="242" y="429" on="1"/>
        <pt x="149" y="429" on="0"/>
        <pt x="90" y="359" on="1"/>
        <pt x="46" y="422" on="1"/>
        <pt x="74" y="468" on="0"/>
        <pt x="137" y="498" on="1"/>
        <pt x="192" y="525" on="0"/>
        <pt x="242" y="524" on="1"/>
        <pt x="315" y="524" on="0"/>
        <pt x="414" y="430" on="0"/>
        <pt x="414" y="357" on="1"/>
        <pt x="414" y="100" on="1"/>
        <pt x="414" y="94" on="0"/>
        <pt x="429" y="78" on="0"/>
        <pt x="437" y="78" on="1"/>
        <pt x="470" y="78" on="0"/>
        <pt x="480" y="88" on="1"/>
        <pt x="492" y="23" on="1"/>
        <pt x="430" y="-11" on="0"/>
        <pt x="391" y="-11" on="1"/>
        <pt x="376" y="-11" on="0"/>
        <pt x="351" y="7" on="1"/>
        <pt x="323" y="28" on="0"/>
      </contour>
    </TTGlyph>
    <TTGlyph name="ampersand" xMin="26" yMin="-9" xMax="547" yMax="655">
      <contour>
        <pt x="133" y="190" on="1"/>
        <pt x="133" y="148" on="0"/>
        <pt x="157" y="116" on="1"/>
        <pt x="185" y="77" on="0"/>
        <pt x="231" y="77" on="1"/>
        <pt x="273" y="77" on="0"/>
        <pt x="317" y="123" on="1"/>
        <pt x="207" y="227" on="0"/>
        <pt x="172" y="299" on="1"/>
        <pt x="133" y="269" on="0"/>
      </contour>
      <contour>
        <pt x="387" y="61" on="1"/>
        <pt x="368" y="32" on="0"/>
        <pt x="326" y="12" on="1"/>
        <pt x="281" y="-10" on="0"/>
        <pt x="236" y="-9" on="1"/>
        <pt x="136" y="-9" on="0"/>
        <pt x="78" y="49" on="1"/>
        <pt x="26" y="101" on="0"/>
        <pt x="26" y="181" on="1"/>
        <pt x="26" y="302" on="0"/>
        <pt x="128" y="372" on="1"/>
        <pt x="94" y="428" on="0"/>
        <pt x="94" y="486" on="1"/>
        <pt x="94" y="559" on="0"/>
        <pt x="195" y="655" on="0"/>
        <pt x="265" y="655" on="1"/>
        <pt x="308" y="655" on="0"/>
        <pt x="337" y="642" on="1"/>
        <pt x="372" y="626" on="0"/>
        <pt x="409" y="582" on="1"/>
        <pt x="351" y="518" on="1"/>
        <pt x="312" y="565" on="0"/>
        <pt x="248" y="565" on="1"/>
        <pt x="206" y="565" on="0"/>
        <pt x="206" y="501" on="1"/>
        <pt x="206" y="472" on="0"/>
        <pt x="225" y="424" on="1"/>
        <pt x="267" y="440" on="0"/>
        <pt x="337" y="442" on="1"/>
        <pt x="353" y="360" on="1"/>
        <pt x="301" y="360" on="0"/>
        <pt x="272" y="352" on="1"/>
        <pt x="329" y="270" on="0"/>
        <pt x="376" y="218" on="1"/>
        <pt x="380" y="233" on="0"/>
        <pt x="380" y="248" on="1"/>
        <pt x="380" y="282" on="0"/>
        <pt x="371" y="322" on="1"/>
        <pt x="461" y="338" on="1"/>
        <pt x="465" y="310" on="1"/>
        <pt x="470" y="279" on="0"/>
        <pt x="470" y="259" on="1"/>
        <pt x="470" y="207" on="0"/>
        <pt x="452" y="148" on="1"/>
        <pt x="474" y="129" on="0"/>
        <pt x="547" y="89" on="1"/>
        <pt x="481" y="0" on="1"/>
        <pt x="447" y="12" on="0"/>
      </contour>
    </TTGlyph>
    <TTGlyph name="apple" xMin="161" yMin="157" xMax="413" yMax="527">
      <contour>
        <pt x="309" y="464" on="1"/>
        <pt x="309" y="493" on="1"/>
        <pt x="346" y="493" on="1"/>
        <pt x="346" y="527" on="1"/>
        <pt x="376" y="527" on="1"/>
        <pt x="376" y="493" on="1"/>
        <pt x="413" y="493" on="1"/>
        <pt x="413" y="464" on="1"/>
        <pt x="376" y="464" on="1"/>
        <pt x="376" y="430" on="1"/>
        <pt x="346" y="430" on="1"/>
        <pt x="346" y="464" on="1"/>
      </contour>
      <contour>
        <pt x="161" y="191" on="1"/>
        <pt x="161" y="220" on="1"/>
        <pt x="197" y="220" on="1"/>
        <pt x="197" y="254" on="1"/>
        <pt x="227" y="254" on="1"/>
        <pt x="227" y="220" on="1"/>
        <pt x="263" y="220" on="1"/>
        <pt x="263" y="191" on="1"/>
        <pt x="227" y="191" on="1"/>
        <pt x="227" y="157" on="1"/>
        <pt x="197" y="157" on="1"/>
        <pt x="197" y="191" on="1"/>
      </contour>
      <contour>
        <pt x="227" y="283" on="1"/>
        <pt x="246" y="283" on="1"/>
        <pt x="246" y="259" on="1"/>
        <pt x="227" y="259" on="1"/>
      </contour>
      <contour>
        <pt x="247" y="298" on="1"/>
        <pt x="261" y="298" on="1"/>
        <pt x="261" y="288" on="1"/>
        <pt x="247" y="288" on="1"/>
      </contour>
      <contour>
        <pt x="262" y="316" on="1"/>
        <pt x="308" y="316" on="1"/>
        <pt x="308" y="303" on="1"/>
        <pt x="262" y="303" on="1"/>
      </contour>
      <contour>
        <pt x="243" y="366" on="1"/>
        <pt x="258" y="366" on="1"/>
        <pt x="258" y="324" on="1"/>
        <pt x="243" y="324" on="1"/>
      </contour>
      <contour>
        <pt x="343" y="401" on="1"/>
        <pt x="326" y="401" on="1"/>
        <pt x="326" y="425" on="1"/>
        <pt x="343" y="425" on="1"/>
      </contour>
      <contour>
        <pt x="325" y="386" on="1"/>
        <pt x="310" y="386" on="1"/>
        <pt x="310" y="396" on="1"/>
        <pt x="325" y="396" on="1"/>
      </contour>
      <contour>
        <pt x="308" y="368" on="1"/>
        <pt x="262" y="368" on="1"/>
        <pt x="262" y="381" on="1"/>
        <pt x="308" y="381" on="1"/>
      </contour>
      <contour>
        <pt x="328" y="318" on="1"/>
        <pt x="313" y="318" on="1"/>
        <pt x="313" y="361" on="1"/>
        <pt x="328" y="361" on="1"/>
      </contour>
    </TTGlyph>
    <TTGlyph name="approxequal" xMin="129" yMin="62" xMax="426" yMax="412">
      <contour>
        <pt x="267" y="292" on="1"/>
        <pt x="240" y="314" on="0"/>
        <pt x="230" y="313" on="1"/>
        <pt x="218" y="313" on="0"/>
        <pt x="205" y="298" on="1"/>
        <pt x="199" y="291" on="0"/>
        <pt x="167" y="244" on="1"/>
        <pt x="129" y="344" on="1"/>
        <pt x="181" y="406" on="0"/>
        <pt x="233" y="407" on="1"/>
        <pt x="266" y="407" on="0"/>
        <pt x="332" y="362" on="0"/>
        <pt x="338" y="362" on="1"/>
        <pt x="343" y="362" on="0"/>
        <pt x="366" y="387" on="1"/>
        <pt x="376" y="399" on="0"/>
        <pt x="387" y="412" on="1"/>
        <pt x="426" y="314" on="1"/>
        <pt x="377" y="263" on="0"/>
        <pt x="331" y="263" on="1"/>
        <pt x="302" y="263" on="0"/>
      </contour>
      <contour>
        <pt x="267" y="110" on="1"/>
        <pt x="239" y="132" on="0"/>
        <pt x="230" y="131" on="1"/>
        <pt x="218" y="131" on="0"/>
        <pt x="205" y="116" on="1"/>
        <pt x="198" y="108" on="0"/>
        <pt x="167" y="62" on="1"/>
        <pt x="129" y="162" on="1"/>
        <pt x="181" y="224" on="0"/>
        <pt x="233" y="224" on="1"/>
        <pt x="266" y="224" on="0"/>
        <pt x="332" y="181" on="0"/>
        <pt x="338" y="181" on="1"/>
        <pt x="343" y="181" on="0"/>
        <pt x="366" y="205" on="1"/>
        <pt x="376" y="217" on="0"/>
        <pt x="387" y="229" on="1"/>
        <pt x="426" y="132" on="1"/>
        <pt x="377" y="81" on="0"/>
        <pt x="331" y="81" on="1"/>
        <pt x="304" y="81" on="0"/>
      </contour>
    </TTGlyph>
    <TTGlyph name="aring" xMin="42" yMin="-16" xMax="492" yMax="757">
      <contour>
        <pt x="246" y="580" on="1"/>
        <pt x="205" y="580" on="0"/>
        <pt x="154" y="630" on="0"/>
        <pt x="154" y="669" on="1"/>
        <pt x="154" y="707" on="0"/>
        <pt x="205" y="757" on="0"/>
        <pt x="246" y="757" on="1"/>
        <pt x="288" y="757" on="0"/>
        <pt x="339" y="707" on="0"/>
        <pt x="339" y="669" on="1"/>
        <pt x="339" y="630" on="0"/>
        <pt x="288" y="580" on="0"/>
      </contour>
      <contour>
        <pt x="246" y="713" on="1"/>
        <pt x="213" y="713" on="0"/>
        <pt x="213" y="669" on="1"/>
        <pt x="213" y="624" on="0"/>
        <pt x="246" y="624" on="1"/>
        <pt x="280" y="624" on="0"/>
        <pt x="280" y="669" on="1"/>
        <pt x="280" y="713" on="0"/>
      </contour>
      <contour>
        <pt x="306" y="228" on="1"/>
        <pt x="275" y="228" on="0"/>
        <pt x="231" y="220" on="1"/>
        <pt x="182" y="212" on="0"/>
        <pt x="166" y="201" on="1"/>
        <pt x="141" y="186" on="0"/>
        <pt x="141" y="140" on="1"/>
        <pt x="141" y="111" on="0"/>
        <pt x="178" y="68" on="0"/>
        <pt x="203" y="68" on="1"/>
        <pt x="265" y="68" on="0"/>
        <pt x="305" y="117" on="1"/>
      </contour>
      <contour>
        <pt x="316" y="55" on="1"/>
        <pt x="273" y="17" on="0"/>
        <pt x="257" y="6" on="1"/>
        <pt x="223" y="-17" on="0"/>
        <pt x="189" y="-16" on="1"/>
        <pt x="128" y="-16" on="0"/>
        <pt x="87" y="24" on="1"/>
        <pt x="42" y="68" on="0"/>
        <pt x="42" y="139" on="1"/>
        <pt x="42" y="224" on="0"/>
        <pt x="91" y="260" on="1"/>
        <pt x="123" y="282" on="0"/>
        <pt x="216" y="300" on="1"/>
        <pt x="264" y="309" on="0"/>
        <pt x="303" y="313" on="1"/>
        <pt x="303" y="367" on="1"/>
        <pt x="303" y="390" on="0"/>
        <pt x="266" y="429" on="0"/>
        <pt x="242" y="429" on="1"/>
        <pt x="149" y="429" on="0"/>
        <pt x="90" y="359" on="1"/>
        <pt x="46" y="422" on="1"/>
        <pt x="74" y="468" on="0"/>
        <pt x="137" y="498" on="1"/>
        <pt x="192" y="525" on="0"/>
        <pt x="242" y="524" on="1"/>
        <pt x="315" y="524" on="0"/>
        <pt x="414" y="430" on="0"/>
        <pt x="414" y="357" on="1"/>
        <pt x="414" y="100" on="1"/>
        <pt x="414" y="94" on="0"/>
        <pt x="429" y="78" on="0"/>
        <pt x="437" y="78" on="1"/>
        <pt x="470" y="78" on="0"/>
        <pt x="480" y="88" on="1"/>
        <pt x="492" y="23" on="1"/>
        <pt x="430" y="-11" on="0"/>
        <pt x="391" y="-11" on="1"/>
        <pt x="376" y="-11" on="0"/>
        <pt x="351" y="7" on="1"/>
        <pt x="323" y="28" on="0"/>
      </contour>
    </TTGlyph>
    <TTGlyph name="asciicircum" xMin="108" yMin="454" xMax="442" yMax="702">
      <contour>
        <pt x="169" y="454" on="1"/>
        <pt x="108" y="527" on="1"/>
        <pt x="273" y="702" on="1"/>
        <pt x="442" y="527" on="1"/>
        <pt x="381" y="454" on="1"/>
        <pt x="273" y="575" on="1"/>
      </contour>
    </TTGlyph>
    <TTGlyph name="asciitilde" xMin="83" yMin="369" xMax="364" yMax="516">
      <contour>
        <pt x="214" y="413" on="1"/>
        <pt x="188" y="430" on="0"/>
        <pt x="178" y="430" on="1"/>
        <pt x="166" y="430" on="0"/>
        <pt x="153" y="417" on="1"/>
        <pt x="145" y="409" on="0"/>
        <pt x="113" y="369" on="1"/>
        <pt x="83" y="464" on="1"/>
        <pt x="128" y="509" on="0"/>
        <pt x="180" y="509" on="1"/>
        <pt x="214" y="509" on="0"/>
        <pt x="280" y="472" on="0"/>
        <pt x="285" y="472" on="1"/>
        <pt x="296" y="471" on="0"/>
        <pt x="316" y="493" on="1"/>
        <pt x="326" y="505" on="0"/>
        <pt x="337" y="516" on="1"/>
        <pt x="364" y="427" on="1"/>
        <pt x="318" y="388" on="0"/>
        <pt x="278" y="388" on="1"/>
        <pt x="250" y="388" on="0"/>
      </contour>
    </TTGlyph>
    <TTGlyph name="asterisk" xMin="14" yMin="457" xMax="258" yMax="711">
      <contour>
        <pt x="173" y="512" on="1"/>
        <pt x="175" y="457" on="1"/>
        <pt x="98" y="457" on="1"/>
        <pt x="100" y="512" on="1"/>
        <pt x="57" y="473" on="1"/>
        <pt x="14" y="545" on="1"/>
        <pt x="76" y="583" on="1"/>
        <pt x="15" y="622" on="1"/>
        <pt x="56" y="693" on="1"/>
        <pt x="101" y="653" on="1"/>
        <pt x="99" y="711" on="1"/>
        <pt x="176" y="709" on="1"/>
        <pt x="173" y="655" on="1"/>
        <pt x="215" y="694" on="1"/>
        <pt x="256" y="622" on="1"/>
        <pt x="198" y="584" on="1"/>
        <pt x="258" y="545" on="1"/>
        <pt x="215" y="473" on="1"/>
      </contour>
    </TTGlyph>
    <TTGlyph name="at" xMin="34" yMin="-248" xMax="973" yMax="715">
      <contour>
        <pt x="641" y="481" on="1"/>
        <pt x="649" y="522" on="1"/>
        <pt x="741" y="522" on="1"/>
        <pt x="734" y="438" on="0"/>
        <pt x="716" y="328" on="1"/>
        <pt x="699" y="231" on="0"/>
        <pt x="682" y="132" on="1"/>
        <pt x="682" y="132" on="0"/>
        <pt x="690" y="83" on="1"/>
        <pt x="696" y="66" on="0"/>
        <pt x="736" y="66" on="1"/>
        <pt x="779" y="66" on="0"/>
        <pt x="871" y="201" on="0"/>
        <pt x="871" y="275" on="1"/>
        <pt x="871" y="432" on="0"/>
        <pt x="679" y="638" on="0"/>
        <pt x="525" y="638" on="1"/>
        <pt x="371" y="638" on="0"/>
        <pt x="262" y="516" on="1"/>
        <pt x="156" y="398" on="0"/>
        <pt x="156" y="244" on="1"/>
        <pt x="156" y="80" on="0"/>
        <pt x="244" y="-36" on="1"/>
        <pt x="337" y="-161" on="0"/>
        <pt x="484" y="-161" on="1"/>
        <pt x="590" y="-161" on="0"/>
        <pt x="658" y="-131" on="1"/>
        <pt x="721" y="-102" on="0"/>
        <pt x="806" y="-22" on="1"/>
        <pt x="867" y="-92" on="1"/>
        <pt x="765" y="-185" on="0"/>
        <pt x="712" y="-210" on="1"/>
        <pt x="632" y="-248" on="0"/>
        <pt x="484" y="-248" on="1"/>
        <pt x="275" y="-248" on="0"/>
        <pt x="151" y="-102" on="1"/>
        <pt x="34" y="35" on="0"/>
        <pt x="34" y="244" on="1"/>
        <pt x="34" y="439" on="0"/>
        <pt x="322" y="715" on="0"/>
        <pt x="728" y="715" on="0"/>
        <pt x="973" y="472" on="0"/>
        <pt x="973" y="275" on="1"/>
        <pt x="973" y="163" on="0"/>
        <pt x="796" y="-22" on="0"/>
        <pt x="685" y="-22" on="1"/>
        <pt x="624" y="-22" on="0"/>
        <pt x="591" y="78" on="1"/>
        <pt x="521" y="-20" on="0"/>
        <pt x="434" y="-20" on="1"/>
        <pt x="255" y="-20" on="0"/>
        <pt x="255" y="204" on="1"/>
        <pt x="255" y="322" on="0"/>
        <pt x="331" y="421" on="1"/>
        <pt x="415" y="533" on="0"/>
        <pt x="542" y="532" on="1"/>
        <pt x="573" y="532" on="0"/>
        <pt x="598" y="516" on="1"/>
      </contour>
      <contour>
        <pt x="539" y="446" on="1"/>
        <pt x="488" y="446" on="0"/>
        <pt x="442" y="399" on="1"/>
        <pt x="381" y="337" on="0"/>
        <pt x="381" y="217" on="1"/>
        <pt x="381" y="151" on="0"/>
        <pt x="393" y="122" on="1"/>
        <pt x="412" y="72" on="0"/>
        <pt x="470" y="72" on="1"/>
        <pt x="501" y="72" on="0"/>
        <pt x="590" y="162" on="0"/>
        <pt x="597" y="204" on="1"/>
        <pt x="632" y="396" on="1"/>
        <pt x="619" y="413" on="0"/>
        <pt x="559" y="446" on="0"/>
      </contour>
    </TTGlyph>
    <TTGlyph name="atilde" xMin="42" yMin="-16" xMax="492" yMax="701">
      <contour>
        <pt x="232" y="593" on="1"/>
        <pt x="196" y="617" on="0"/>
        <pt x="187" y="616" on="1"/>
        <pt x="160" y="616" on="0"/>
        <pt x="120" y="568" on="1"/>
        <pt x="79" y="648" on="1"/>
        <pt x="119" y="699" on="0"/>
        <pt x="186" y="701" on="1"/>
        <pt x="217" y="702" on="0"/>
        <pt x="298" y="647" on="0"/>
        <pt x="308" y="647" on="1"/>
        <pt x="320" y="647" on="0"/>
        <pt x="359" y="679" on="1"/>
        <pt x="398" y="601" on="1"/>
        <pt x="382" y="585" on="0"/>
        <pt x="326" y="562" on="0"/>
        <pt x="310" y="562" on="1"/>
        <pt x="278" y="562" on="0"/>
      </contour>
      <contour>
        <pt x="306" y="228" on="1"/>
        <pt x="275" y="228" on="0"/>
        <pt x="231" y="220" on="1"/>
        <pt x="182" y="212" on="0"/>
        <pt x="166" y="201" on="1"/>
        <pt x="141" y="186" on="0"/>
        <pt x="141" y="140" on="1"/>
        <pt x="141" y="111" on="0"/>
        <pt x="178" y="68" on="0"/>
        <pt x="203" y="68" on="1"/>
        <pt x="265" y="68" on="0"/>
        <pt x="305" y="117" on="1"/>
      </contour>
      <contour>
        <pt x="316" y="55" on="1"/>
        <pt x="273" y="17" on="0"/>
        <pt x="257" y="6" on="1"/>
        <pt x="223" y="-17" on="0"/>
        <pt x="189" y="-16" on="1"/>
        <pt x="128" y="-16" on="0"/>
        <pt x="87" y="24" on="1"/>
        <pt x="42" y="68" on="0"/>
        <pt x="42" y="139" on="1"/>
        <pt x="42" y="224" on="0"/>
        <pt x="91" y="260" on="1"/>
        <pt x="123" y="282" on="0"/>
        <pt x="216" y="300" on="1"/>
        <pt x="264" y="309" on="0"/>
        <pt x="303" y="313" on="1"/>
        <pt x="303" y="367" on="1"/>
        <pt x="303" y="390" on="0"/>
        <pt x="266" y="429" on="0"/>
        <pt x="242" y="429" on="1"/>
        <pt x="149" y="429" on="0"/>
        <pt x="90" y="359" on="1"/>
        <pt x="46" y="422" on="1"/>
        <pt x="74" y="468" on="0"/>
        <pt x="137" y="498" on="1"/>
        <pt x="192" y="525" on="0"/>
        <pt x="242" y="524" on="1"/>
        <pt x="315" y="524" on="0"/>
        <pt x="414" y="430" on="0"/>
        <pt x="414" y="357" on="1"/>
        <pt x="414" y="100" on="1"/>
        <pt x="414" y="94" on="0"/>
        <pt x="429" y="78" on="0"/>
        <pt x="437" y="78" on="1"/>
        <pt x="470" y="78" on="0"/>
        <pt x="480" y="88" on="1"/>
        <pt x="492" y="23" on="1"/>
        <pt x="430" y="-11" on="0"/>
        <pt x="391" y="-11" on="1"/>
        <pt x="376" y="-11" on="0"/>
        <pt x="351" y="7" on="1"/>
        <pt x="323" y="28" on="0"/>
      </contour>
    </TTGlyph>
    <TTGlyph name="b" xMin="66" yMin="-10" xMax="489" yMax="717">
      <contour>
        <pt x="167" y="47" on="1"/>
        <pt x="159" y="-1" on="1"/>
        <pt x="66" y="-1" on="1"/>
        <pt x="66" y="717" on="1"/>
        <pt x="176" y="717" on="1"/>
        <pt x="176" y="444" on="1"/>
        <pt x="195" y="479" on="0"/>
        <pt x="243" y="506" on="1"/>
        <pt x="286" y="531" on="0"/>
        <pt x="317" y="530" on="1"/>
        <pt x="398" y="530" on="0"/>
        <pt x="447" y="453" on="1"/>
        <pt x="489" y="384" on="0"/>
        <pt x="489" y="292" on="1"/>
        <pt x="489" y="-10" on="0"/>
        <pt x="289" y="-10" on="1"/>
        <pt x="253" y="-10" on="0"/>
      </contour>
      <contour>
        <pt x="176" y="343" on="1"/>
        <pt x="176" y="131" on="1"/>
        <pt x="191" y="113" on="0"/>
        <pt x="256" y="82" on="0"/>
        <pt x="281" y="82" on="1"/>
        <pt x="339" y="82" on="0"/>
        <pt x="359" y="151" on="1"/>
        <pt x="371" y="192" on="0"/>
        <pt x="372" y="278" on="1"/>
        <pt x="372" y="440" on="0"/>
        <pt x="281" y="439" on="1"/>
        <pt x="223" y="439" on="0"/>
      </contour>
    </TTGlyph>
    <TTGlyph name="backslash" xMin="6" yMin="-177" xMax="403" yMax="724">
      <contour>
        <pt x="6" y="699" on="1"/>
        <pt x="118" y="724" on="1"/>
        <pt x="403" y="-153" on="1"/>
        <pt x="292" y="-177" on="1"/>
      </contour>
    </TTGlyph>
    <TTGlyph name="bar" xMin="67" yMin="-225" xMax="198" yMax="702">
      <contour>
        <pt x="67" y="702" on="1"/>
        <pt x="198" y="702" on="1"/>
        <pt x="198" y="-225" on="1"/>
        <pt x="67" y="-225" on="1"/>
      </contour>
    </TTGlyph>
    <TTGlyph name="braceleft" xMin="115" yMin="-202" xMax="426" yMax="854">
      <contour>
        <pt x="340" y="742" on="1"/>
        <pt x="300" y="742" on="0"/>
        <pt x="291" y="702" on="1"/>
        <pt x="288" y="691" on="0"/>
        <pt x="288" y="629" on="1"/>
        <pt x="288" y="603" on="0"/>
        <pt x="293" y="513" on="0"/>
        <pt x="293" y="499" on="1"/>
        <pt x="293" y="422" on="0"/>
        <pt x="218" y="347" on="1"/>
        <pt x="218" y="340" on="1"/>
        <pt x="251" y="310" on="0"/>
        <pt x="274" y="264" on="1"/>
        <pt x="302" y="208" on="0"/>
        <pt x="302" y="150" on="1"/>
        <pt x="302" y="127" on="0"/>
        <pt x="295" y="11" on="0"/>
        <pt x="295" y="-10" on="1"/>
        <pt x="295" y="-66" on="0"/>
        <pt x="298" y="-77" on="1"/>
        <pt x="303" y="-92" on="0"/>
        <pt x="323" y="-92" on="1"/>
        <pt x="367" y="-92" on="0"/>
        <pt x="394" y="-67" on="1"/>
        <pt x="425" y="-188" on="1"/>
        <pt x="377" y="-204" on="0"/>
        <pt x="319" y="-202" on="1"/>
        <pt x="225" y="-197" on="0"/>
        <pt x="195" y="-109" on="1"/>
        <pt x="178" y="-58" on="0"/>
        <pt x="177" y="62" on="1"/>
        <pt x="177" y="76" on="0"/>
        <pt x="181" y="158" on="0"/>
        <pt x="181" y="181" on="1"/>
        <pt x="181" y="258" on="0"/>
        <pt x="115" y="317" on="1"/>
        <pt x="116" y="374" on="1"/>
        <pt x="153" y="417" on="0"/>
        <pt x="161" y="430" on="1"/>
        <pt x="181" y="463" on="0"/>
        <pt x="181" y="502" on="1"/>
        <pt x="181" y="527" on="0"/>
        <pt x="176" y="616" on="0"/>
        <pt x="176" y="636" on="1"/>
        <pt x="176" y="854" on="0"/>
        <pt x="338" y="854" on="1"/>
        <pt x="365" y="854" on="0"/>
        <pt x="426" y="839" on="1"/>
        <pt x="406" y="724" on="1"/>
        <pt x="353" y="742" on="0"/>
      </contour>
    </TTGlyph>
    <TTGlyph name="braceright" xMin="130" yMin="-202" xMax="441" yMax="854">
      <contour>
        <pt x="378" y="62" on="1"/>
        <pt x="378" y="-59" on="0"/>
        <pt x="360" y="-110" on="1"/>
        <pt x="330" y="-197" on="0"/>
        <pt x="237" y="-202" on="1"/>
        <pt x="179" y="-205" on="0"/>
        <pt x="131" y="-188" on="1"/>
        <pt x="161" y="-67" on="1"/>
        <pt x="190" y="-93" on="0"/>
        <pt x="233" y="-92" on="1"/>
        <pt x="250" y="-92" on="0"/>
        <pt x="260" y="-75" on="0"/>
        <pt x="261" y="-50" on="1"/>
        <pt x="261" y="-50" on="0"/>
        <pt x="261" y="-10" on="1"/>
        <pt x="261" y="12" on="0"/>
        <pt x="254" y="127" on="0"/>
        <pt x="254" y="150" on="1"/>
        <pt x="254" y="208" on="0"/>
        <pt x="283" y="264" on="1"/>
        <pt x="306" y="310" on="0"/>
        <pt x="338" y="340" on="1"/>
        <pt x="338" y="347" on="1"/>
        <pt x="263" y="422" on="0"/>
        <pt x="263" y="499" on="1"/>
        <pt x="263" y="513" on="0"/>
        <pt x="268" y="603" on="0"/>
        <pt x="268" y="629" on="1"/>
        <pt x="268" y="691" on="0"/>
        <pt x="265" y="702" on="1"/>
        <pt x="256" y="742" on="0"/>
        <pt x="216" y="742" on="1"/>
        <pt x="203" y="742" on="0"/>
        <pt x="151" y="724" on="1"/>
        <pt x="130" y="839" on="1"/>
        <pt x="191" y="854" on="0"/>
        <pt x="218" y="854" on="1"/>
        <pt x="380" y="854" on="0"/>
        <pt x="380" y="636" on="1"/>
        <pt x="380" y="617" on="0"/>
        <pt x="375" y="526" on="0"/>
        <pt x="375" y="502" on="1"/>
        <pt x="375" y="463" on="0"/>
        <pt x="395" y="430" on="1"/>
        <pt x="403" y="417" on="0"/>
        <pt x="440" y="374" on="1"/>
        <pt x="441" y="317" on="1"/>
        <pt x="374" y="258" on="0"/>
        <pt x="375" y="181" on="1"/>
        <pt x="375" y="157" on="0"/>
        <pt x="378" y="76" on="0"/>
      </contour>
    </TTGlyph>
    <TTGlyph name="bracketleft" xMin="74" yMin="-117" xMax="241" yMax="758">
      <contour>
        <pt x="74" y="758" on="1"/>
        <pt x="233" y="758" on="1"/>
        <pt x="233" y="669" on="1"/>
        <pt x="174" y="669" on="1"/>
        <pt x="174" y="-9" on="1"/>
        <pt x="241" y="-9" on="1"/>
        <pt x="241" y="-117" on="1"/>
        <pt x="74" y="-117" on="1"/>
      </contour>
    </TTGlyph>
    <TTGlyph name="bracketright" xMin="51" yMin="-117" xMax="215" yMax="758">
      <contour>
        <pt x="51" y="-9" on="1"/>
        <pt x="118" y="-9" on="1"/>
        <pt x="118" y="669" on="1"/>
        <pt x="59" y="669" on="1"/>
        <pt x="59" y="758" on="1"/>
        <pt x="215" y="758" on="1"/>
        <pt x="215" y="-117" on="1"/>
        <pt x="51" y="-117" on="1"/>
      </contour>
    </TTGlyph>
    <TTGlyph name="breve" xMin="27" yMin="551" xMax="315" yMax="668">
      <contour>
        <pt x="27" y="657" on="1"/>
        <pt x="104" y="667" on="1"/>
        <pt x="129" y="619" on="0"/>
        <pt x="174" y="618" on="1"/>
        <pt x="216" y="618" on="0"/>
        <pt x="239" y="668" on="1"/>
        <pt x="315" y="657" on="1"/>
        <pt x="278" y="551" on="0"/>
        <pt x="175" y="551" on="1"/>
        <pt x="66" y="551" on="0"/>
      </contour>
    </TTGlyph>
    <TTGlyph name="brokenbar" xMin="55" yMin="-18" xMax="134" yMax="672">
      <contour>
        <pt x="55" y="285" on="1"/>
        <pt x="134" y="285" on="1"/>
        <pt x="134" y="-18" on="1"/>
        <pt x="55" y="-18" on="1"/>
      </contour>
      <contour>
        <pt x="55" y="672" on="1"/>
        <pt x="134" y="672" on="1"/>
        <pt x="134" y="369" on="1"/>
        <pt x="55" y="369" on="1"/>
      </contour>
    </TTGlyph>
    <TTGlyph name="bullet" xMin="49" yMin="195" xMax="237" yMax="400">
      <contour>
        <pt x="143" y="195" on="1"/>
        <pt x="104" y="195" on="0"/>
        <pt x="49" y="253" on="0"/>
        <pt x="49" y="298" on="1"/>
        <pt x="49" y="342" on="0"/>
        <pt x="104" y="400" on="0"/>
        <pt x="143" y="400" on="1"/>
        <pt x="181" y="400" on="0"/>
        <pt x="237" y="342" on="0"/>
        <pt x="237" y="298" on="1"/>
        <pt x="237" y="254" on="0"/>
        <pt x="181" y="195" on="0"/>
      </contour>
    </TTGlyph>
    <TTGlyph name="c" xMin="40" yMin="-12" xMax="459" yMax="523">
      <contour>
        <pt x="40" y="248" on="1"/>
        <pt x="40" y="385" on="0"/>
        <pt x="120" y="460" on="1"/>
        <pt x="187" y="525" on="0"/>
        <pt x="282" y="523" on="1"/>
        <pt x="340" y="523" on="0"/>
        <pt x="437" y="458" on="1"/>
        <pt x="403" y="387" on="1"/>
        <pt x="336" y="441" on="0"/>
        <pt x="272" y="441" on="1"/>
        <pt x="217" y="441" on="0"/>
        <pt x="186" y="376" on="1"/>
        <pt x="159" y="321" on="0"/>
        <pt x="160" y="245" on="1"/>
        <pt x="160" y="166" on="0"/>
        <pt x="226" y="69" on="0"/>
        <pt x="280" y="69" on="1"/>
        <pt x="340" y="69" on="0"/>
        <pt x="413" y="134" on="1"/>
        <pt x="459" y="74" on="1"/>
        <pt x="419" y="28" on="0"/>
        <pt x="337" y="-12" on="0"/>
        <pt x="280" y="-12" on="1"/>
        <pt x="146" y="-12" on="0"/>
        <pt x="83" y="93" on="1"/>
        <pt x="40" y="164" on="0"/>
      </contour>
    </TTGlyph>
    <TTGlyph name="caron" xMin="36" yMin="534" xMax="323" yMax="742">
      <contour>
        <pt x="323" y="742" on="1"/>
        <pt x="323" y="642" on="1"/>
        <pt x="182" y="534" on="1"/>
        <pt x="36" y="642" on="1"/>
        <pt x="36" y="741" on="1"/>
        <pt x="181" y="652" on="1"/>
      </contour>
    </TTGlyph>
    <TTGlyph name="ccedilla" xMin="40" yMin="-224" xMax="459" yMax="523">
      <contour>
        <pt x="401" y="-135" on="1"/>
        <pt x="401" y="-171" on="0"/>
        <pt x="377" y="-197" on="1"/>
        <pt x="349" y="-225" on="0"/>
        <pt x="302" y="-224" on="1"/>
        <pt x="237" y="-224" on="0"/>
        <pt x="214" y="-175" on="1"/>
        <pt x="252" y="-140" on="1"/>
        <pt x="281" y="-173" on="0"/>
        <pt x="303" y="-173" on="1"/>
        <pt x="340" y="-173" on="0"/>
        <pt x="340" y="-138" on="1"/>
        <pt x="340" y="-98" on="0"/>
        <pt x="305" y="-98" on="1"/>
        <pt x="291" y="-98" on="0"/>
        <pt x="270" y="-114" on="1"/>
        <pt x="222" y="-92" on="1"/>
        <pt x="226" y="-8" on="1"/>
        <pt x="230" y="-8" on="1"/>
        <pt x="125" y="10" on="0"/>
        <pt x="75" y="108" on="1"/>
        <pt x="40" y="175" on="0"/>
        <pt x="40" y="248" on="1"/>
        <pt x="40" y="385" on="0"/>
        <pt x="120" y="460" on="1"/>
        <pt x="187" y="525" on="0"/>
        <pt x="282" y="523" on="1"/>
        <pt x="340" y="523" on="0"/>
        <pt x="437" y="458" on="1"/>
        <pt x="403" y="387" on="1"/>
        <pt x="336" y="441" on="0"/>
        <pt x="272" y="441" on="1"/>
        <pt x="217" y="441" on="0"/>
        <pt x="186" y="376" on="1"/>
        <pt x="159" y="321" on="0"/>
        <pt x="160" y="245" on="1"/>
        <pt x="160" y="166" on="0"/>
        <pt x="226" y="69" on="0"/>
        <pt x="280" y="69" on="1"/>
        <pt x="340" y="69" on="0"/>
        <pt x="413" y="134" on="1"/>
        <pt x="459" y="74" on="1"/>
        <pt x="387" y="-8" on="0"/>
        <pt x="290" y="-12" on="1"/>
        <pt x="286" y="-12" on="1"/>
        <pt x="283" y="-48" on="1"/>
        <pt x="292" y="-44" on="0"/>
        <pt x="308" y="-44" on="1"/>
        <pt x="351" y="-44" on="0"/>
        <pt x="378" y="-74" on="1"/>
        <pt x="401" y="-99" on="0"/>
      </contour>
      <contour>
        <pt x="286" y="-12" on="1"/>
        <pt x="283" y="-48" on="1"/>
        <pt x="292" y="-44" on="0"/>
        <pt x="308" y="-44" on="1"/>
        <pt x="351" y="-44" on="0"/>
        <pt x="378" y="-74" on="1"/>
        <pt x="402" y="-100" on="0"/>
        <pt x="401" y="-135" on="1"/>
        <pt x="401" y="-171" on="0"/>
        <pt x="377" y="-197" on="1"/>
        <pt x="349" y="-225" on="0"/>
        <pt x="302" y="-224" on="1"/>
        <pt x="237" y="-224" on="0"/>
        <pt x="214" y="-175" on="1"/>
        <pt x="252" y="-140" on="1"/>
        <pt x="281" y="-173" on="0"/>
        <pt x="303" y="-173" on="1"/>
        <pt x="340" y="-173" on="0"/>
        <pt x="340" y="-138" on="1"/>
        <pt x="340" y="-98" on="0"/>
        <pt x="305" y="-98" on="1"/>
        <pt x="291" y="-98" on="0"/>
        <pt x="270" y="-114" on="1"/>
        <pt x="222" y="-92" on="1"/>
        <pt x="227" y="-8" on="1"/>
      </contour>
    </TTGlyph>
    <TTGlyph name="cedilla" xMin="11" yMin="-245" xMax="202" yMax="5">
      <contour>
        <pt x="11" y="-180" on="1"/>
        <pt x="53" y="-151" on="1"/>
        <pt x="84" y="-187" on="0"/>
        <pt x="114" y="-186" on="1"/>
        <pt x="122" y="-186" on="0"/>
        <pt x="138" y="-155" on="0"/>
        <pt x="138" y="-145" on="1"/>
        <pt x="138" y="-132" on="0"/>
        <pt x="123" y="-109" on="0"/>
        <pt x="117" y="-109" on="1"/>
        <pt x="87" y="-109" on="0"/>
        <pt x="80" y="-125" on="1"/>
        <pt x="22" y="-108" on="1"/>
        <pt x="28" y="4" on="1"/>
        <pt x="110" y="5" on="1"/>
        <pt x="106" y="-37" on="1"/>
        <pt x="110" y="-37" on="1"/>
        <pt x="153" y="-37" on="0"/>
        <pt x="179" y="-69" on="1"/>
        <pt x="202" y="-97" on="0"/>
        <pt x="202" y="-133" on="1"/>
        <pt x="202" y="-173" on="0"/>
        <pt x="182" y="-205" on="1"/>
        <pt x="157" y="-245" on="0"/>
        <pt x="113" y="-245" on="1"/>
        <pt x="40" y="-245" on="0"/>
      </contour>
    </TTGlyph>
    <TTGlyph name="cent" xMin="39" yMin="-91" xMax="460" yMax="604">
      <contour>
        <pt x="39" y="248" on="1"/>
        <pt x="39" y="364" on="0"/>
        <pt x="91" y="435" on="1"/>
        <pt x="137" y="497" on="0"/>
        <pt x="213" y="517" on="1"/>
        <pt x="213" y="604" on="1"/>
        <pt x="334" y="604" on="1"/>
        <pt x="334" y="518" on="1"/>
        <pt x="388" y="506" on="0"/>
        <pt x="447" y="458" on="1"/>
        <pt x="397" y="380" on="1"/>
        <pt x="345" y="422" on="0"/>
        <pt x="332" y="430" on="1"/>
        <pt x="304" y="446" on="0"/>
        <pt x="275" y="446" on="1"/>
        <pt x="224" y="446" on="0"/>
        <pt x="190" y="383" on="1"/>
        <pt x="158" y="324" on="0"/>
        <pt x="159" y="245" on="1"/>
        <pt x="159" y="168" on="0"/>
        <pt x="228" y="69" on="0"/>
        <pt x="272" y="69" on="1"/>
        <pt x="304" y="69" on="0"/>
        <pt x="334" y="88" on="1"/>
        <pt x="357" y="101" on="0"/>
        <pt x="400" y="143" on="1"/>
        <pt x="460" y="71" on="1"/>
        <pt x="400" y="9" on="0"/>
        <pt x="334" y="-10" on="1"/>
        <pt x="334" y="-91" on="1"/>
        <pt x="213" y="-91" on="1"/>
        <pt x="213" y="-11" on="1"/>
        <pt x="113" y="12" on="0"/>
        <pt x="69" y="109" on="1"/>
        <pt x="39" y="173" on="0"/>
      </contour>
    </TTGlyph>
    <TTGlyph name="circumflex" xMin="36" yMin="534" xMax="323" yMax="732">
      <contour>
        <pt x="36" y="534" on="1"/>
        <pt x="36" y="624" on="1"/>
        <pt x="177" y="732" on="1"/>
        <pt x="323" y="624" on="1"/>
        <pt x="323" y="535" on="1"/>
        <pt x="177" y="613" on="1"/>
      </contour>
    </TTGlyph>
    <TTGlyph name="colon" xMin="37" yMin="-9" xMax="215" yMax="518">
      <contour>
        <pt x="37" y="430" on="1"/>
        <pt x="37" y="467" on="0"/>
        <pt x="90" y="518" on="0"/>
        <pt x="126" y="518" on="1"/>
        <pt x="163" y="518" on="0"/>
        <pt x="215" y="467" on="0"/>
        <pt x="215" y="430" on="1"/>
        <pt x="215" y="393" on="0"/>
        <pt x="162" y="341" on="0"/>
        <pt x="126" y="341" on="1"/>
        <pt x="90" y="341" on="0"/>
        <pt x="37" y="393" on="0"/>
      </contour>
      <contour>
        <pt x="37" y="79" on="1"/>
        <pt x="37" y="116" on="0"/>
        <pt x="90" y="168" on="0"/>
        <pt x="126" y="168" on="1"/>
        <pt x="162" y="168" on="0"/>
        <pt x="215" y="116" on="0"/>
        <pt x="215" y="79" on="1"/>
        <pt x="215" y="42" on="0"/>
        <pt x="163" y="-9" on="0"/>
        <pt x="126" y="-9" on="1"/>
        <pt x="90" y="-9" on="0"/>
        <pt x="37" y="42" on="0"/>
      </contour>
    </TTGlyph>
    <TTGlyph name="comma" xMin="42" yMin="-110" xMax="181" yMax="87">
      <contour>
        <pt x="110" y="-110" on="1"/>
        <pt x="42" y="-96" on="1"/>
        <pt x="61" y="-54" on="0"/>
        <pt x="69" y="-1" on="1"/>
        <pt x="70" y="9" on="0"/>
        <pt x="74" y="87" on="1"/>
        <pt x="181" y="87" on="1"/>
        <pt x="181" y="50" on="0"/>
        <pt x="157" y="-14" on="1"/>
        <pt x="135" y="-75" on="0"/>
      </contour>
    </TTGlyph>
    <TTGlyph name="copyright" xMin="69" yMin="-15" xMax="746" yMax="663">
      <contour>
        <pt x="406" y="104" on="1"/>
        <pt x="317" y="104" on="0"/>
        <pt x="266" y="173" on="1"/>
        <pt x="222" y="233" on="0"/>
        <pt x="222" y="326" on="1"/>
        <pt x="222" y="413" on="0"/>
        <pt x="267" y="473" on="1"/>
        <pt x="318" y="542" on="0"/>
        <pt x="408" y="543" on="1"/>
        <pt x="469" y="543" on="0"/>
        <pt x="531" y="507" on="1"/>
        <pt x="507" y="455" on="1"/>
        <pt x="447" y="492" on="0"/>
        <pt x="411" y="492" on="1"/>
        <pt x="345" y="492" on="0"/>
        <pt x="309" y="429" on="1"/>
        <pt x="281" y="380" on="0"/>
        <pt x="282" y="317" on="1"/>
        <pt x="282" y="247" on="0"/>
        <pt x="353" y="157" on="0"/>
        <pt x="406" y="157" on="1"/>
        <pt x="460" y="157" on="0"/>
        <pt x="510" y="185" on="1"/>
        <pt x="536" y="142" on="1"/>
        <pt x="464" y="104" on="0"/>
      </contour>
      <contour>
        <pt x="135" y="324" on="1"/>
        <pt x="135" y="211" on="0"/>
        <pt x="295" y="51" on="0"/>
        <pt x="408" y="51" on="1"/>
        <pt x="521" y="51" on="0"/>
        <pt x="680" y="211" on="0"/>
        <pt x="680" y="324" on="1"/>
        <pt x="680" y="437" on="0"/>
        <pt x="520" y="596" on="0"/>
        <pt x="408" y="596" on="1"/>
        <pt x="295" y="596" on="0"/>
        <pt x="135" y="437" on="0"/>
      </contour>
      <contour>
        <pt x="69" y="324" on="1"/>
        <pt x="69" y="464" on="0"/>
        <pt x="267" y="663" on="0"/>
        <pt x="408" y="663" on="1"/>
        <pt x="548" y="663" on="0"/>
        <pt x="746" y="464" on="0"/>
        <pt x="746" y="324" on="1"/>
        <pt x="746" y="184" on="0"/>
        <pt x="548" y="-15" on="0"/>
        <pt x="408" y="-15" on="1"/>
        <pt x="268" y="-15" on="0"/>
        <pt x="69" y="184" on="0"/>
      </contour>
    </TTGlyph>
    <TTGlyph name="currency" xMin="37" yMin="0" xMax="432" yMax="655">
      <contour>
        <pt x="250" y="357" on="1"/>
        <pt x="250" y="311" on="1"/>
        <pt x="416" y="311" on="1"/>
        <pt x="416" y="231" on="1"/>
        <pt x="250" y="231" on="1"/>
        <pt x="250" y="112" on="1"/>
        <pt x="429" y="113" on="1"/>
        <pt x="429" y="0" on="1"/>
        <pt x="130" y="0" on="1"/>
        <pt x="130" y="231" on="1"/>
        <pt x="37" y="231" on="1"/>
        <pt x="37" y="311" on="1"/>
        <pt x="130" y="311" on="1"/>
        <pt x="130" y="358" on="1"/>
        <pt x="37" y="358" on="1"/>
        <pt x="37" y="447" on="1"/>
        <pt x="130" y="447" on="1"/>
        <pt x="130" y="655" on="1"/>
        <pt x="432" y="655" on="1"/>
        <pt x="432" y="548" on="1"/>
        <pt x="250" y="548" on="1"/>
        <pt x="250" y="447" on="1"/>
        <pt x="416" y="447" on="1"/>
        <pt x="416" y="357" on="1"/>
      </contour>
    </TTGlyph>
    <TTGlyph name="d" xMin="38" yMin="-13" xMax="459" yMax="714">
      <contour>
        <pt x="365" y="-1" on="1"/>
        <pt x="356" y="50" on="1"/>
        <pt x="325" y="31" on="0"/>
        <pt x="294" y="11" on="1"/>
        <pt x="251" y="-14" on="0"/>
        <pt x="227" y="-13" on="1"/>
        <pt x="134" y="-13" on="0"/>
        <pt x="82" y="75" on="1"/>
        <pt x="38" y="149" on="0"/>
        <pt x="38" y="254" on="1"/>
        <pt x="38" y="359" on="0"/>
        <pt x="83" y="441" on="1"/>
        <pt x="132" y="530" on="0"/>
        <pt x="205" y="530" on="1"/>
        <pt x="257" y="530" on="0"/>
        <pt x="285" y="518" on="1"/>
        <pt x="300" y="511" on="0"/>
        <pt x="348" y="473" on="1"/>
        <pt x="348" y="714" on="1"/>
        <pt x="459" y="714" on="1"/>
        <pt x="459" y="-1" on="1"/>
      </contour>
      <contour>
        <pt x="243" y="439" on="1"/>
        <pt x="159" y="439" on="0"/>
        <pt x="159" y="265" on="1"/>
        <pt x="159" y="184" on="0"/>
        <pt x="181" y="134" on="1"/>
        <pt x="206" y="77" on="0"/>
        <pt x="252" y="77" on="1"/>
        <pt x="283" y="77" on="0"/>
        <pt x="348" y="130" on="1"/>
        <pt x="348" y="350" on="1"/>
        <pt x="314" y="398" on="0"/>
        <pt x="304" y="409" on="1"/>
        <pt x="276" y="439" on="0"/>
      </contour>
    </TTGlyph>
    <TTGlyph name="dagger" xMin="24" yMin="341" xMax="197" yMax="671">
      <contour>
        <pt x="138" y="547" on="1"/>
        <pt x="138" y="341" on="1"/>
        <pt x="73" y="341" on="1"/>
        <pt x="73" y="547" on="1"/>
        <pt x="24" y="547" on="1"/>
        <pt x="24" y="614" on="1"/>
        <pt x="73" y="614" on="1"/>
        <pt x="73" y="671" on="1"/>
        <pt x="138" y="671" on="1"/>
        <pt x="138" y="614" on="1"/>
        <pt x="197" y="614" on="1"/>
        <pt x="197" y="547" on="1"/>
      </contour>
    </TTGlyph>
    <TTGlyph name="daggerdbl" xMin="4" yMin="251" xMax="208" yMax="671">
      <contour>
        <pt x="144" y="392" on="1"/>
        <pt x="144" y="251" on="1"/>
        <pt x="66" y="251" on="1"/>
        <pt x="66" y="392" on="1"/>
        <pt x="4" y="392" on="1"/>
        <pt x="4" y="453" on="1"/>
        <pt x="66" y="453" on="1"/>
        <pt x="66" y="535" on="1"/>
        <pt x="4" y="535" on="1"/>
        <pt x="4" y="594" on="1"/>
        <pt x="66" y="594" on="1"/>
        <pt x="66" y="671" on="1"/>
        <pt x="144" y="671" on="1"/>
        <pt x="144" y="594" on="1"/>
        <pt x="208" y="594" on="1"/>
        <pt x="208" y="535" on="1"/>
        <pt x="144" y="535" on="1"/>
        <pt x="144" y="453" on="1"/>
        <pt x="208" y="453" on="1"/>
        <pt x="208" y="392" on="1"/>
      </contour>
    </TTGlyph>
    <TTGlyph name="degree" xMin="-5" yMin="453" xMax="285" yMax="739">
      <contour>
        <pt x="285" y="596" on="1"/>
        <pt x="285" y="537" on="0"/>
        <pt x="203" y="453" on="0"/>
        <pt x="141" y="453" on="1"/>
        <pt x="80" y="453" on="0"/>
        <pt x="-5" y="537" on="0"/>
        <pt x="-5" y="596" on="1"/>
        <pt x="-5" y="655" on="0"/>
        <pt x="80" y="739" on="0"/>
        <pt x="141" y="739" on="1"/>
        <pt x="202" y="739" on="0"/>
        <pt x="285" y="655" on="0"/>
      </contour>
      <contour>
        <pt x="70" y="596" on="1"/>
        <pt x="70" y="565" on="0"/>
        <pt x="111" y="524" on="0"/>
        <pt x="141" y="524" on="1"/>
        <pt x="172" y="524" on="0"/>
        <pt x="210" y="565" on="0"/>
        <pt x="210" y="596" on="1"/>
        <pt x="210" y="627" on="0"/>
        <pt x="172" y="668" on="0"/>
        <pt x="141" y="668" on="1"/>
        <pt x="110" y="668" on="0"/>
        <pt x="70" y="627" on="0"/>
      </contour>
    </TTGlyph>
    <TTGlyph name="dieresis" xMin="-26" yMin="569" xMax="333" yMax="717">
      <contour>
        <pt x="189" y="643" on="1"/>
        <pt x="189" y="671" on="0"/>
        <pt x="206" y="691" on="1"/>
        <pt x="226" y="717" on="0"/>
        <pt x="261" y="717" on="1"/>
        <pt x="295" y="717" on="0"/>
        <pt x="315" y="691" on="1"/>
        <pt x="332" y="669" on="0"/>
        <pt x="333" y="643" on="1"/>
        <pt x="333" y="615" on="0"/>
        <pt x="315" y="594" on="1"/>
        <pt x="295" y="569" on="0"/>
        <pt x="261" y="569" on="1"/>
        <pt x="226" y="569" on="0"/>
        <pt x="207" y="594" on="1"/>
        <pt x="189" y="614" on="0"/>
      </contour>
      <contour>
        <pt x="-26" y="643" on="1"/>
        <pt x="-26" y="670" on="0"/>
        <pt x="-8" y="691" on="1"/>
        <pt x="11" y="717" on="0"/>
        <pt x="46" y="717" on="1"/>
        <pt x="80" y="717" on="0"/>
        <pt x="100" y="691" on="1"/>
        <pt x="117" y="669" on="0"/>
        <pt x="118" y="643" on="1"/>
        <pt x="118" y="615" on="0"/>
        <pt x="100" y="594" on="1"/>
        <pt x="80" y="569" on="0"/>
        <pt x="46" y="569" on="1"/>
        <pt x="11" y="569" on="0"/>
        <pt x="-8" y="594" on="1"/>
        <pt x="-26" y="614" on="0"/>
      </contour>
    </TTGlyph>
    <TTGlyph name="divide" xMin="53" yMin="65" xMax="467" yMax="572">
      <contour>
        <pt x="195" y="492" on="1"/>
        <pt x="195" y="526" on="0"/>
        <pt x="238" y="572" on="0"/>
        <pt x="268" y="572" on="1"/>
        <pt x="300" y="572" on="0"/>
        <pt x="343" y="525" on="0"/>
        <pt x="343" y="459" on="0"/>
        <pt x="300" y="412" on="0"/>
        <pt x="268" y="412" on="1"/>
        <pt x="237" y="412" on="0"/>
        <pt x="195" y="459" on="0"/>
      </contour>
      <contour>
        <pt x="53" y="369" on="1"/>
        <pt x="467" y="369" on="1"/>
        <pt x="467" y="266" on="1"/>
        <pt x="53" y="266" on="1"/>
      </contour>
      <contour>
        <pt x="195" y="145" on="1"/>
        <pt x="195" y="178" on="0"/>
        <pt x="238" y="225" on="0"/>
        <pt x="268" y="225" on="1"/>
        <pt x="300" y="225" on="0"/>
        <pt x="343" y="178" on="0"/>
        <pt x="343" y="145" on="1"/>
        <pt x="343" y="111" on="0"/>
        <pt x="300" y="65" on="0"/>
        <pt x="268" y="65" on="1"/>
        <pt x="237" y="65" on="0"/>
        <pt x="195" y="111" on="0"/>
      </contour>
    </TTGlyph>
    <TTGlyph name="dollar" xMin="74" yMin="-102" xMax="468" yMax="707">
      <contour>
        <pt x="336" y="-102" on="1"/>
        <pt x="216" y="-102" on="1"/>
        <pt x="216" y="-10" on="1"/>
        <pt x="125" y="7" on="0"/>
        <pt x="74" y="82" on="1"/>
        <pt x="140" y="163" on="1"/>
        <pt x="202" y="86" on="0"/>
        <pt x="270" y="86" on="1"/>
        <pt x="305" y="86" on="0"/>
        <pt x="352" y="138" on="0"/>
        <pt x="352" y="178" on="1"/>
        <pt x="352" y="222" on="0"/>
        <pt x="285" y="249" on="1"/>
        <pt x="182" y="292" on="0"/>
        <pt x="162" y="305" on="1"/>
        <pt x="95" y="354" on="0"/>
        <pt x="96" y="452" on="1"/>
        <pt x="97" y="510" on="0"/>
        <pt x="131" y="555" on="1"/>
        <pt x="164" y="597" on="0"/>
        <pt x="216" y="615" on="1"/>
        <pt x="216" y="707" on="1"/>
        <pt x="336" y="707" on="1"/>
        <pt x="336" y="618" on="1"/>
        <pt x="388" y="604" on="0"/>
        <pt x="454" y="550" on="1"/>
        <pt x="390" y="471" on="1"/>
        <pt x="328" y="526" on="0"/>
        <pt x="281" y="526" on="1"/>
        <pt x="252" y="526" on="0"/>
        <pt x="216" y="484" on="0"/>
        <pt x="216" y="446" on="1"/>
        <pt x="216" y="408" on="0"/>
        <pt x="282" y="386" on="1"/>
        <pt x="376" y="354" on="0"/>
        <pt x="402" y="334" on="1"/>
        <pt x="468" y="284" on="0"/>
        <pt x="468" y="179" on="1"/>
        <pt x="468" y="33" on="0"/>
        <pt x="336" y="-7" on="1"/>
      </contour>
    </TTGlyph>
    <TTGlyph name="dotaccent" xMin="56" yMin="520" xMax="206" yMax="659">
      <contour>
        <pt x="56" y="590" on="1"/>
        <pt x="56" y="620" on="0"/>
        <pt x="99" y="659" on="0"/>
        <pt x="131" y="659" on="1"/>
        <pt x="162" y="659" on="0"/>
        <pt x="206" y="618" on="0"/>
        <pt x="206" y="590" on="1"/>
        <pt x="206" y="561" on="0"/>
        <pt x="163" y="520" on="0"/>
        <pt x="131" y="520" on="1"/>
        <pt x="99" y="520" on="0"/>
        <pt x="56" y="561" on="0"/>
      </contour>
    </TTGlyph>
    <TTGlyph name="dotlessi" xMin="65" yMin="0" xMax="174" yMax="507">
      <contour>
        <pt x="65" y="507" on="1"/>
        <pt x="174" y="507" on="1"/>
        <pt x="174" y="0" on="1"/>
        <pt x="65" y="0" on="1"/>
      </contour>
    </TTGlyph>
    <TTGlyph name="e" xMin="40" yMin="-12" xMax="465" yMax="522">
      <contour>
        <pt x="282" y="70" on="1"/>
        <pt x="349" y="69" on="0"/>
        <pt x="415" y="134" on="1"/>
        <pt x="461" y="72" on="1"/>
        <pt x="408" y="21" on="0"/>
        <pt x="368" y="3" on="1"/>
        <pt x="332" y="-12" on="0"/>
        <pt x="274" y="-12" on="1"/>
        <pt x="140" y="-12" on="0"/>
        <pt x="79" y="98" on="1"/>
        <pt x="40" y="170" on="0"/>
        <pt x="40" y="253" on="1"/>
        <pt x="40" y="369" on="0"/>
        <pt x="101" y="443" on="1"/>
        <pt x="167" y="522" on="0"/>
        <pt x="279" y="522" on="1"/>
        <pt x="356" y="522" on="0"/>
        <pt x="408" y="471" on="1"/>
        <pt x="465" y="415" on="0"/>
        <pt x="465" y="321" on="1"/>
        <pt x="465" y="244" on="1"/>
        <pt x="162" y="244" on="1"/>
        <pt x="164" y="71" on="0"/>
      </contour>
      <contour>
        <pt x="353" y="331" on="1"/>
        <pt x="358" y="443" on="0"/>
        <pt x="271" y="442" on="1"/>
        <pt x="236" y="442" on="0"/>
        <pt x="210" y="416" on="1"/>
        <pt x="178" y="385" on="0"/>
        <pt x="169" y="331" on="1"/>
      </contour>
    </TTGlyph>
    <TTGlyph name="eacute" xMin="40" yMin="-12" xMax="465" yMax="732">
      <contour>
        <pt x="129" y="641" on="1"/>
        <pt x="349" y="732" on="1"/>
        <pt x="382" y="652" on="1"/>
        <pt x="163" y="567" on="1"/>
      </contour>
      <contour>
        <pt x="282" y="70" on="1"/>
        <pt x="349" y="69" on="0"/>
        <pt x="415" y="134" on="1"/>
        <pt x="461" y="72" on="1"/>
        <pt x="408" y="21" on="0"/>
        <pt x="368" y="3" on="1"/>
        <pt x="332" y="-12" on="0"/>
        <pt x="274" y="-12" on="1"/>
        <pt x="140" y="-12" on="0"/>
        <pt x="79" y="98" on="1"/>
        <pt x="40" y="170" on="0"/>
        <pt x="40" y="253" on="1"/>
        <pt x="40" y="369" on="0"/>
        <pt x="101" y="443" on="1"/>
        <pt x="167" y="522" on="0"/>
        <pt x="279" y="522" on="1"/>
        <pt x="356" y="522" on="0"/>
        <pt x="408" y="471" on="1"/>
        <pt x="465" y="415" on="0"/>
        <pt x="465" y="321" on="1"/>
        <pt x="465" y="244" on="1"/>
        <pt x="162" y="244" on="1"/>
        <pt x="164" y="71" on="0"/>
      </contour>
      <contour>
        <pt x="353" y="331" on="1"/>
        <pt x="358" y="443" on="0"/>
        <pt x="271" y="442" on="1"/>
        <pt x="236" y="442" on="0"/>
        <pt x="210" y="416" on="1"/>
        <pt x="178" y="385" on="0"/>
        <pt x="169" y="331" on="1"/>
      </contour>
    </TTGlyph>
    <TTGlyph name="ecircumflex" xMin="40" yMin="-12" xMax="465" yMax="773">
      <contour>
        <pt x="138" y="574" on="1"/>
        <pt x="138" y="665" on="1"/>
        <pt x="280" y="773" on="1"/>
        <pt x="425" y="665" on="1"/>
        <pt x="425" y="575" on="1"/>
        <pt x="280" y="654" on="1"/>
      </contour>
      <contour>
        <pt x="282" y="70" on="1"/>
        <pt x="349" y="69" on="0"/>
        <pt x="415" y="134" on="1"/>
        <pt x="461" y="72" on="1"/>
        <pt x="408" y="21" on="0"/>
        <pt x="368" y="3" on="1"/>
        <pt x="332" y="-12" on="0"/>
        <pt x="274" y="-12" on="1"/>
        <pt x="140" y="-12" on="0"/>
        <pt x="79" y="98" on="1"/>
        <pt x="40" y="170" on="0"/>
        <pt x="40" y="253" on="1"/>
        <pt x="40" y="369" on="0"/>
        <pt x="101" y="443" on="1"/>
        <pt x="167" y="522" on="0"/>
        <pt x="279" y="522" on="1"/>
        <pt x="356" y="522" on="0"/>
        <pt x="408" y="471" on="1"/>
        <pt x="465" y="415" on="0"/>
        <pt x="465" y="321" on="1"/>
        <pt x="465" y="244" on="1"/>
        <pt x="162" y="244" on="1"/>
        <pt x="164" y="71" on="0"/>
      </contour>
      <contour>
        <pt x="353" y="331" on="1"/>
        <pt x="358" y="443" on="0"/>
        <pt x="271" y="442" on="1"/>
        <pt x="236" y="442" on="0"/>
        <pt x="210" y="416" on="1"/>
        <pt x="178" y="385" on="0"/>
        <pt x="169" y="331" on="1"/>
      </contour>
    </TTGlyph>
    <TTGlyph name="edieresis" xMin="39" yMin="-12" xMax="454" yMax="700">
      <component glyphName="dieresis" x="102" y="0" flags="0x1004"/>
      <component glyphName="e" x="0" y="0" flags="0x1004"/>
    </TTGlyph>
    <TTGlyph name="egrave" xMin="40" yMin="-12" xMax="465" yMax="732">
      <contour>
        <pt x="414" y="641" on="1"/>
        <pt x="194" y="732" on="1"/>
        <pt x="151" y="652" on="1"/>
        <pt x="370" y="567" on="1"/>
      </contour>
      <contour>
        <pt x="282" y="70" on="1"/>
        <pt x="349" y="69" on="0"/>
        <pt x="415" y="134" on="1"/>
        <pt x="461" y="72" on="1"/>
        <pt x="408" y="21" on="0"/>
        <pt x="368" y="3" on="1"/>
        <pt x="332" y="-12" on="0"/>
        <pt x="274" y="-12" on="1"/>
        <pt x="140" y="-12" on="0"/>
        <pt x="79" y="98" on="1"/>
        <pt x="40" y="170" on="0"/>
        <pt x="40" y="253" on="1"/>
        <pt x="40" y="369" on="0"/>
        <pt x="101" y="443" on="1"/>
        <pt x="167" y="522" on="0"/>
        <pt x="279" y="522" on="1"/>
        <pt x="356" y="522" on="0"/>
        <pt x="408" y="471" on="1"/>
        <pt x="465" y="415" on="0"/>
        <pt x="465" y="321" on="1"/>
        <pt x="465" y="244" on="1"/>
        <pt x="162" y="244" on="1"/>
        <pt x="164" y="71" on="0"/>
      </contour>
      <contour>
        <pt x="353" y="331" on="1"/>
        <pt x="358" y="443" on="0"/>
        <pt x="271" y="442" on="1"/>
        <pt x="236" y="442" on="0"/>
        <pt x="210" y="416" on="1"/>
        <pt x="178" y="385" on="0"/>
        <pt x="169" y="331" on="1"/>
      </contour>
    </TTGlyph>
    <TTGlyph name="eight" xMin="37" yMin="-29" xMax="483" yMax="674">
      <contour>
        <pt x="142" y="183" on="1"/>
        <pt x="142" y="121" on="0"/>
        <pt x="181" y="87" on="1"/>
        <pt x="213" y="59" on="0"/>
        <pt x="254" y="59" on="1"/>
        <pt x="302" y="59" on="0"/>
        <pt x="368" y="130" on="0"/>
        <pt x="368" y="183" on="1"/>
        <pt x="368" y="274" on="0"/>
        <pt x="257" y="318" on="1"/>
        <pt x="142" y="260" on="0"/>
      </contour>
      <contour>
        <pt x="177" y="509" on="1"/>
        <pt x="189" y="439" on="0"/>
        <pt x="257" y="411" on="1"/>
        <pt x="349" y="447" on="0"/>
        <pt x="349" y="507" on="1"/>
        <pt x="349" y="544" on="0"/>
        <pt x="299" y="597" on="0"/>
        <pt x="264" y="597" on="1"/>
        <pt x="232" y="597" on="0"/>
        <pt x="208" y="575" on="1"/>
        <pt x="181" y="551" on="0"/>
      </contour>
      <contour>
        <pt x="37" y="181" on="1"/>
        <pt x="37" y="290" on="0"/>
        <pt x="176" y="360" on="1"/>
        <pt x="68" y="431" on="0"/>
        <pt x="69" y="506" on="1"/>
        <pt x="69" y="591" on="0"/>
        <pt x="132" y="636" on="1"/>
        <pt x="185" y="674" on="0"/>
        <pt x="264" y="674" on="1"/>
        <pt x="337" y="674" on="0"/>
        <pt x="387" y="636" on="1"/>
        <pt x="443" y="593" on="0"/>
        <pt x="443" y="515" on="1"/>
        <pt x="443" y="434" on="0"/>
        <pt x="344" y="367" on="1"/>
        <pt x="483" y="292" on="0"/>
        <pt x="483" y="183" on="1"/>
        <pt x="483" y="90" on="0"/>
        <pt x="429" y="34" on="1"/>
        <pt x="370" y="-28" on="0"/>
        <pt x="258" y="-29" on="1"/>
        <pt x="163" y="-29" on="0"/>
        <pt x="103" y="23" on="1"/>
        <pt x="37" y="79" on="0"/>
      </contour>
    </TTGlyph>
    <TTGlyph name="ellipsis" xMin="128" yMin="-37" xMax="795" yMax="145">
      <contour>
        <pt x="617" y="54" on="1"/>
        <pt x="617" y="97" on="0"/>
        <pt x="645" y="123" on="1"/>
        <pt x="670" y="146" on="0"/>
        <pt x="707" y="145" on="1"/>
        <pt x="744" y="145" on="0"/>
        <pt x="795" y="97" on="0"/>
        <pt x="795" y="54" on="1"/>
        <pt x="795" y="12" on="0"/>
        <pt x="743" y="-37" on="0"/>
        <pt x="671" y="-37" on="0"/>
        <pt x="617" y="12" on="0"/>
      </contour>
      <contour>
        <pt x="373" y="54" on="1"/>
        <pt x="373" y="97" on="0"/>
        <pt x="400" y="123" on="1"/>
        <pt x="425" y="146" on="0"/>
        <pt x="462" y="145" on="1"/>
        <pt x="499" y="145" on="0"/>
        <pt x="550" y="97" on="0"/>
        <pt x="550" y="54" on="1"/>
        <pt x="550" y="12" on="0"/>
        <pt x="499" y="-37" on="0"/>
        <pt x="462" y="-37" on="1"/>
        <pt x="426" y="-37" on="0"/>
        <pt x="373" y="12" on="0"/>
      </contour>
      <contour>
        <pt x="128" y="54" on="1"/>
        <pt x="128" y="97" on="0"/>
        <pt x="156" y="123" on="1"/>
        <pt x="181" y="146" on="0"/>
        <pt x="217" y="145" on="1"/>
        <pt x="254" y="145" on="0"/>
        <pt x="305" y="97" on="0"/>
        <pt x="305" y="54" on="1"/>
        <pt x="305" y="12" on="0"/>
        <pt x="254" y="-37" on="0"/>
        <pt x="217" y="-37" on="1"/>
        <pt x="181" y="-37" on="0"/>
        <pt x="128" y="12" on="0"/>
      </contour>
    </TTGlyph>
    <TTGlyph name="emdash" xMin="28" yMin="299" xMax="996" yMax="372">
      <contour>
        <pt x="28" y="372" on="1"/>
        <pt x="996" y="372" on="1"/>
        <pt x="996" y="299" on="1"/>
        <pt x="28" y="299" on="1"/>
      </contour>
    </TTGlyph>
    <TTGlyph name="endash" xMin="35" yMin="299" xMax="477" yMax="372">
      <contour>
        <pt x="35" y="372" on="1"/>
        <pt x="477" y="372" on="1"/>
        <pt x="477" y="299" on="1"/>
        <pt x="35" y="299" on="1"/>
      </contour>
    </TTGlyph>
    <TTGlyph name="equal" xMin="91" yMin="128" xMax="420" yMax="360">
      <contour>
        <pt x="91" y="360" on="1"/>
        <pt x="420" y="360" on="1"/>
        <pt x="420" y="260" on="1"/>
        <pt x="91" y="260" on="1"/>
      </contour>
      <contour>
        <pt x="91" y="228" on="1"/>
        <pt x="420" y="228" on="1"/>
        <pt x="420" y="128" on="1"/>
        <pt x="91" y="128" on="1"/>
      </contour>
    </TTGlyph>
    <TTGlyph name="eth" xMin="37" yMin="-17" xMax="556" yMax="754">
      <contour>
        <pt x="288" y="459" on="1"/>
        <pt x="228" y="459" on="0"/>
        <pt x="191" y="399" on="1"/>
        <pt x="158" y="344" on="0"/>
        <pt x="159" y="257" on="1"/>
        <pt x="159" y="184" on="0"/>
        <pt x="196" y="123" on="1"/>
        <pt x="236" y="57" on="0"/>
        <pt x="290" y="57" on="1"/>
        <pt x="356" y="57" on="0"/>
        <pt x="390" y="119" on="1"/>
        <pt x="420" y="172" on="0"/>
        <pt x="421" y="254" on="1"/>
        <pt x="422" y="354" on="0"/>
        <pt x="422" y="353" on="1"/>
        <pt x="345" y="459" on="0"/>
      </contour>
      <contour>
        <pt x="298" y="634" on="1"/>
        <pt x="285" y="654" on="0"/>
        <pt x="241" y="699" on="1"/>
        <pt x="317" y="754" on="1"/>
        <pt x="377" y="695" on="0"/>
        <pt x="419" y="634" on="1"/>
        <pt x="556" y="634" on="1"/>
        <pt x="556" y="559" on="1"/>
        <pt x="479" y="559" on="1"/>
        <pt x="505" y="503" on="0"/>
        <pt x="522" y="417" on="1"/>
        <pt x="538" y="337" on="0"/>
        <pt x="538" y="286" on="1"/>
        <pt x="534" y="-17" on="0"/>
        <pt x="269" y="-17" on="1"/>
        <pt x="161" y="-17" on="0"/>
        <pt x="95" y="72" on="1"/>
        <pt x="37" y="150" on="0"/>
        <pt x="37" y="255" on="1"/>
        <pt x="37" y="397" on="0"/>
        <pt x="115" y="470" on="1"/>
        <pt x="183" y="533" on="0"/>
        <pt x="290" y="534" on="1"/>
        <pt x="317" y="534" on="0"/>
        <pt x="402" y="475" on="1"/>
        <pt x="402" y="498" on="0"/>
        <pt x="379" y="527" on="1"/>
        <pt x="366" y="542" on="0"/>
        <pt x="351" y="559" on="1"/>
        <pt x="208" y="559" on="1"/>
        <pt x="208" y="634" on="1"/>
      </contour>
    </TTGlyph>
    <TTGlyph name="exclam" xMin="38" yMin="-34" xMax="197" yMax="702">
      <contour>
        <pt x="57" y="176" on="1"/>
        <pt x="57" y="702" on="1"/>
        <pt x="185" y="702" on="1"/>
        <pt x="185" y="176" on="1"/>
      </contour>
      <contour>
        <pt x="38" y="45" on="1"/>
        <pt x="38" y="78" on="0"/>
        <pt x="83" y="125" on="0"/>
        <pt x="116" y="125" on="1"/>
        <pt x="150" y="125" on="0"/>
        <pt x="197" y="78" on="0"/>
        <pt x="197" y="45" on="1"/>
        <pt x="197" y="11" on="0"/>
        <pt x="150" y="-34" on="0"/>
        <pt x="116" y="-34" on="1"/>
        <pt x="83" y="-34" on="0"/>
        <pt x="38" y="12" on="0"/>
      </contour>
    </TTGlyph>
    <TTGlyph name="exclamdown" xMin="38" yMin="-105" xMax="197" yMax="743">
      <contour>
        <pt x="176" y="513" on="1"/>
        <pt x="176" y="-105" on="1"/>
        <pt x="49" y="-105" on="1"/>
        <pt x="49" y="513" on="1"/>
      </contour>
      <contour>
        <pt x="197" y="665" on="1"/>
        <pt x="197" y="632" on="0"/>
        <pt x="151" y="585" on="0"/>
        <pt x="117" y="585" on="1"/>
        <pt x="84" y="585" on="0"/>
        <pt x="38" y="632" on="0"/>
        <pt x="38" y="665" on="1"/>
        <pt x="38" y="698" on="0"/>
        <pt x="84" y="743" on="0"/>
        <pt x="117" y="743" on="1"/>
        <pt x="151" y="743" on="0"/>
        <pt x="197" y="698" on="0"/>
      </contour>
    </TTGlyph>
    <TTGlyph name="f" xMin="18" yMin="0" xMax="360" yMax="764">
      <contour>
        <pt x="240" y="673" on="1"/>
        <pt x="196" y="674" on="0"/>
        <pt x="196" y="572" on="1"/>
        <pt x="196" y="559" on="0"/>
        <pt x="198" y="516" on="0"/>
        <pt x="198" y="510" on="1"/>
        <pt x="325" y="510" on="1"/>
        <pt x="325" y="418" on="1"/>
        <pt x="198" y="418" on="1"/>
        <pt x="198" y="0" on="1"/>
        <pt x="90" y="0" on="1"/>
        <pt x="90" y="418" on="1"/>
        <pt x="18" y="418" on="1"/>
        <pt x="18" y="510" on="1"/>
        <pt x="90" y="510" on="1"/>
        <pt x="90" y="564" on="1"/>
        <pt x="90" y="764" on="0"/>
        <pt x="239" y="764" on="1"/>
        <pt x="286" y="764" on="0"/>
        <pt x="310" y="750" on="1"/>
        <pt x="315" y="747" on="0"/>
        <pt x="360" y="707" on="1"/>
        <pt x="311" y="638" on="1"/>
        <pt x="272" y="672" on="0"/>
      </contour>
    </TTGlyph>
    <TTGlyph name="fi" xMin="18" yMin="0" xMax="442" yMax="766">
      <contour>
        <pt x="253" y="673" on="1"/>
        <pt x="213" y="674" on="0"/>
        <pt x="202" y="607" on="1"/>
        <pt x="197" y="575" on="0"/>
        <pt x="199" y="510" on="1"/>
        <pt x="442" y="510" on="1"/>
        <pt x="442" y="0" on="1"/>
        <pt x="329" y="0" on="1"/>
        <pt x="329" y="418" on="1"/>
        <pt x="198" y="418" on="1"/>
        <pt x="198" y="0" on="1"/>
        <pt x="90" y="0" on="1"/>
        <pt x="90" y="418" on="1"/>
        <pt x="18" y="418" on="1"/>
        <pt x="18" y="510" on="1"/>
        <pt x="90" y="510" on="1"/>
        <pt x="90" y="565" on="1"/>
        <pt x="90" y="636" on="0"/>
        <pt x="120" y="690" on="1"/>
        <pt x="163" y="766" on="0"/>
        <pt x="253" y="766" on="1"/>
        <pt x="301" y="766" on="0"/>
        <pt x="331" y="753" on="1"/>
        <pt x="336" y="750" on="0"/>
        <pt x="396" y="711" on="1"/>
        <pt x="339" y="636" on="1"/>
        <pt x="285" y="672" on="0"/>
      </contour>
    </TTGlyph>
    <TTGlyph name="five" xMin="26" yMin="-25" xMax="479" yMax="659">
      <contour>
        <pt x="26" y="66" on="1"/>
        <pt x="75" y="141" on="1"/>
        <pt x="138" y="62" on="0"/>
        <pt x="229" y="62" on="1"/>
        <pt x="287" y="62" on="0"/>
        <pt x="329" y="116" on="1"/>
        <pt x="365" y="163" on="0"/>
        <pt x="365" y="212" on="1"/>
        <pt x="365" y="331" on="0"/>
        <pt x="248" y="331" on="1"/>
        <pt x="228" y="331" on="0"/>
        <pt x="158" y="289" on="0"/>
        <pt x="138" y="260" on="1"/>
        <pt x="54" y="281" on="1"/>
        <pt x="54" y="659" on="1"/>
        <pt x="433" y="659" on="1"/>
        <pt x="433" y="546" on="1"/>
        <pt x="136" y="546" on="1"/>
        <pt x="136" y="355" on="1"/>
        <pt x="155" y="384" on="0"/>
        <pt x="189" y="406" on="1"/>
        <pt x="231" y="433" on="0"/>
        <pt x="273" y="432" on="1"/>
        <pt x="359" y="432" on="0"/>
        <pt x="418" y="373" on="1"/>
        <pt x="479" y="310" on="0"/>
        <pt x="479" y="208" on="1"/>
        <pt x="479" y="118" on="0"/>
        <pt x="416" y="51" on="1"/>
        <pt x="343" y="-25" on="0"/>
        <pt x="222" y="-25" on="1"/>
        <pt x="81" y="-24" on="0"/>
      </contour>
    </TTGlyph>
    <TTGlyph name="fl" xMin="18" yMin="0" xMax="476" yMax="735">
      <contour>
        <pt x="364" y="655" on="1"/>
        <pt x="364" y="716" on="1"/>
        <pt x="476" y="716" on="1"/>
        <pt x="476" y="1" on="1"/>
        <pt x="364" y="1" on="1"/>
        <pt x="364" y="596" on="1"/>
        <pt x="320" y="643" on="0"/>
        <pt x="254" y="643" on="1"/>
        <pt x="198" y="643" on="0"/>
        <pt x="198" y="572" on="1"/>
        <pt x="198" y="510" on="1"/>
        <pt x="289" y="510" on="1"/>
        <pt x="289" y="418" on="1"/>
        <pt x="198" y="418" on="1"/>
        <pt x="198" y="0" on="1"/>
        <pt x="90" y="0" on="1"/>
        <pt x="90" y="418" on="1"/>
        <pt x="18" y="418" on="1"/>
        <pt x="18" y="510" on="1"/>
        <pt x="90" y="510" on="1"/>
        <pt x="90" y="535" on="1"/>
        <pt x="90" y="736" on="0"/>
        <pt x="232" y="735" on="1"/>
        <pt x="294" y="735" on="0"/>
      </contour>
    </TTGlyph>
    <TTGlyph name="florin" xMin="24" yMin="-126" xMax="420" yMax="728">
      <contour>
        <pt x="273" y="621" on="1"/>
        <pt x="222" y="621" on="0"/>
        <pt x="213" y="511" on="1"/>
        <pt x="342" y="511" on="1"/>
        <pt x="333" y="409" on="1"/>
        <pt x="207" y="409" on="1"/>
        <pt x="160" y="-125" on="1"/>
        <pt x="49" y="-126" on="1"/>
        <pt x="97" y="407" on="1"/>
        <pt x="24" y="406" on="1"/>
        <pt x="34" y="509" on="1"/>
        <pt x="105" y="510" on="1"/>
        <pt x="127" y="726" on="0"/>
        <pt x="280" y="728" on="1"/>
        <pt x="327" y="728" on="0"/>
        <pt x="356" y="714" on="1"/>
        <pt x="361" y="711" on="0"/>
        <pt x="420" y="670" on="1"/>
        <pt x="359" y="584" on="1"/>
        <pt x="303" y="621" on="0"/>
      </contour>
    </TTGlyph>
    <TTGlyph name="four" xMin="16" yMin="0" xMax="493" yMax="667">
      <contour>
        <pt x="140" y="236" on="1"/>
        <pt x="292" y="236" on="1"/>
        <pt x="292" y="475" on="1"/>
      </contour>
      <contour>
        <pt x="403" y="0" on="1"/>
        <pt x="292" y="0" on="1"/>
        <pt x="292" y="144" on="1"/>
        <pt x="16" y="144" on="1"/>
        <pt x="16" y="222" on="1"/>
        <pt x="307" y="667" on="1"/>
        <pt x="403" y="667" on="1"/>
        <pt x="403" y="236" on="1"/>
        <pt x="493" y="236" on="1"/>
        <pt x="493" y="144" on="1"/>
        <pt x="403" y="144" on="1"/>
      </contour>
    </TTGlyph>
    <TTGlyph name="fraction" xMin="54" yMin="61" xMax="532" yMax="608">
      <contour>
        <pt x="54" y="129" on="1"/>
        <pt x="426" y="608" on="1"/>
        <pt x="532" y="541" on="1"/>
        <pt x="161" y="61" on="1"/>
      </contour>
    </TTGlyph>
    <TTGlyph name="g" xMin="42" yMin="-245" xMax="523" yMax="517">
      <contour>
        <pt x="437" y="331" on="1"/>
        <pt x="437" y="249" on="0"/>
        <pt x="329" y="140" on="0"/>
        <pt x="248" y="140" on="1"/>
        <pt x="221" y="140" on="0"/>
        <pt x="190" y="150" on="1"/>
        <pt x="186" y="144" on="0"/>
        <pt x="169" y="125" on="1"/>
        <pt x="157" y="112" on="0"/>
        <pt x="157" y="106" on="1"/>
        <pt x="157" y="74" on="0"/>
        <pt x="204" y="69" on="1"/>
        <pt x="211" y="68" on="0"/>
        <pt x="278" y="68" on="1"/>
        <pt x="387" y="68" on="0"/>
        <pt x="417" y="55" on="1"/>
        <pt x="480" y="30" on="0"/>
        <pt x="480" y="-152" on="0"/>
        <pt x="376" y="-205" on="1"/>
        <pt x="296" y="-245" on="0"/>
        <pt x="213" y="-245" on="1"/>
        <pt x="136" y="-245" on="0"/>
        <pt x="42" y="-179" on="0"/>
        <pt x="42" y="-120" on="1"/>
        <pt x="42" y="-65" on="0"/>
        <pt x="133" y="-6" on="1"/>
        <pt x="93" y="-6" on="0"/>
        <pt x="68" y="18" on="1"/>
        <pt x="45" y="40" on="0"/>
        <pt x="45" y="70" on="1"/>
        <pt x="45" y="90" on="0"/>
        <pt x="81" y="124" on="1"/>
        <pt x="127" y="169" on="0"/>
        <pt x="131" y="174" on="1"/>
        <pt x="50" y="237" on="0"/>
        <pt x="50" y="328" on="1"/>
        <pt x="50" y="404" on="0"/>
        <pt x="163" y="516" on="0"/>
        <pt x="246" y="516" on="1"/>
        <pt x="342" y="516" on="0"/>
        <pt x="389" y="457" on="1"/>
        <pt x="523" y="517" on="1"/>
        <pt x="523" y="401" on="1"/>
        <pt x="422" y="401" on="1"/>
        <pt x="437" y="351" on="0"/>
      </contour>
      <contour>
        <pt x="162" y="328" on="1"/>
        <pt x="162" y="289" on="0"/>
        <pt x="183" y="256" on="1"/>
        <pt x="208" y="218" on="0"/>
        <pt x="248" y="218" on="1"/>
        <pt x="284" y="218" on="0"/>
        <pt x="333" y="287" on="0"/>
        <pt x="333" y="333" on="1"/>
        <pt x="333" y="368" on="0"/>
        <pt x="308" y="401" on="1"/>
        <pt x="280" y="438" on="0"/>
        <pt x="244" y="438" on="1"/>
        <pt x="206" y="438" on="0"/>
        <pt x="182" y="400" on="1"/>
        <pt x="162" y="368" on="0"/>
      </contour>
      <contour>
        <pt x="195" y="-16" on="1"/>
        <pt x="185" y="-19" on="0"/>
        <pt x="152" y="-71" on="0"/>
        <pt x="152" y="-95" on="1"/>
        <pt x="152" y="-134" on="0"/>
        <pt x="167" y="-151" on="1"/>
        <pt x="186" y="-171" on="0"/>
        <pt x="239" y="-171" on="1"/>
        <pt x="289" y="-171" on="0"/>
        <pt x="375" y="-101" on="0"/>
        <pt x="375" y="-65" on="1"/>
        <pt x="375" y="-34" on="0"/>
        <pt x="352" y="-24" on="1"/>
        <pt x="336" y="-17" on="0"/>
        <pt x="291" y="-16" on="1"/>
      </contour>
    </TTGlyph>
    <TTGlyph name="germandbls" xMin="53" yMin="-15" xMax="515" yMax="732">
      <contour>
        <pt x="182" y="62" on="1"/>
        <pt x="233" y="143" on="1"/>
        <pt x="263" y="101" on="0"/>
        <pt x="294" y="90" on="1"/>
        <pt x="307" y="85" on="0"/>
        <pt x="342" y="85" on="1"/>
        <pt x="370" y="85" on="0"/>
        <pt x="387" y="109" on="1"/>
        <pt x="400" y="127" on="0"/>
        <pt x="400" y="153" on="1"/>
        <pt x="400" y="186" on="0"/>
        <pt x="366" y="205" on="1"/>
        <pt x="354" y="211" on="0"/>
        <pt x="304" y="227" on="1"/>
        <pt x="189" y="265" on="0"/>
        <pt x="189" y="388" on="1"/>
        <pt x="189" y="429" on="0"/>
        <pt x="225" y="475" on="1"/>
        <pt x="267" y="529" on="0"/>
        <pt x="325" y="529" on="1"/>
        <pt x="348" y="529" on="0"/>
        <pt x="371" y="520" on="1"/>
        <pt x="374" y="525" on="0"/>
        <pt x="374" y="537" on="1"/>
        <pt x="374" y="545" on="0"/>
        <pt x="372" y="573" on="0"/>
        <pt x="372" y="577" on="1"/>
        <pt x="372" y="601" on="0"/>
        <pt x="338" y="615" on="1"/>
        <pt x="308" y="629" on="0"/>
        <pt x="267" y="630" on="1"/>
        <pt x="226" y="630" on="0"/>
        <pt x="166" y="562" on="0"/>
        <pt x="166" y="512" on="1"/>
        <pt x="166" y="-1" on="1"/>
        <pt x="53" y="-1" on="1"/>
        <pt x="53" y="512" on="1"/>
        <pt x="53" y="607" on="0"/>
        <pt x="106" y="667" on="1"/>
        <pt x="164" y="733" on="0"/>
        <pt x="272" y="732" on="1"/>
        <pt x="363" y="732" on="0"/>
        <pt x="466" y="629" on="0"/>
        <pt x="466" y="540" on="1"/>
        <pt x="466" y="471" on="0"/>
        <pt x="431" y="411" on="1"/>
        <pt x="371" y="434" on="0"/>
        <pt x="346" y="433" on="1"/>
        <pt x="299" y="433" on="0"/>
        <pt x="299" y="383" on="1"/>
        <pt x="299" y="365" on="0"/>
        <pt x="323" y="353" on="1"/>
        <pt x="329" y="350" on="0"/>
        <pt x="377" y="335" on="1"/>
        <pt x="458" y="309" on="0"/>
        <pt x="492" y="255" on="1"/>
        <pt x="516" y="217" on="0"/>
        <pt x="515" y="159" on="1"/>
        <pt x="515" y="86" on="0"/>
        <pt x="408" y="-15" on="0"/>
        <pt x="337" y="-15" on="1"/>
        <pt x="279" y="-15" on="0"/>
        <pt x="255" y="-4" on="1"/>
        <pt x="227" y="9" on="0"/>
      </contour>
    </TTGlyph>
    <TTGlyph name="grave" xMin="48" yMin="567" xMax="332" yMax="732">
      <contour>
        <pt x="332" y="641" on="1"/>
        <pt x="112" y="732" on="1"/>
        <pt x="48" y="652" on="1"/>
        <pt x="267" y="567" on="1"/>
      </contour>
    </TTGlyph>
    <TTGlyph name="greater" xMin="-16" yMin="43" xMax="351" yMax="542">
      <contour>
        <pt x="-14" y="47" on="1"/>
        <pt x="191" y="292" on="1"/>
        <pt x="-16" y="538" on="1"/>
        <pt x="110" y="542" on="1"/>
        <pt x="351" y="296" on="1"/>
        <pt x="110" y="43" on="1"/>
      </contour>
    </TTGlyph>
    <TTGlyph name="greaterequal" xMin="3" yMin="4" xMax="256" yMax="459">
      <contour>
        <pt x="3" y="119" on="1"/>
        <pt x="129" y="286" on="1"/>
        <pt x="3" y="455" on="1"/>
        <pt x="106" y="459" on="1"/>
        <pt x="256" y="289" on="1"/>
        <pt x="106" y="114" on="1"/>
      </contour>
      <contour>
        <pt x="22" y="79" on="1"/>
        <pt x="248" y="79" on="1"/>
        <pt x="248" y="4" on="1"/>
        <pt x="22" y="4" on="1"/>
      </contour>
    </TTGlyph>
    <TTGlyph name="guillemotleft" xMin="-1" yMin="125" xMax="429" yMax="462">
      <contour>
        <pt x="429" y="129" on="1"/>
        <pt x="319" y="125" on="1"/>
        <pt x="160" y="296" on="1"/>
        <pt x="319" y="462" on="1"/>
        <pt x="429" y="458" on="1"/>
        <pt x="295" y="293" on="1"/>
      </contour>
      <contour>
        <pt x="267" y="129" on="1"/>
        <pt x="158" y="125" on="1"/>
        <pt x="-1" y="296" on="1"/>
        <pt x="158" y="462" on="1"/>
        <pt x="267" y="458" on="1"/>
        <pt x="134" y="293" on="1"/>
      </contour>
    </TTGlyph>
    <TTGlyph name="guillemotright" xMin="-17" yMin="125" xMax="414" yMax="462">
      <contour>
        <pt x="144" y="129" on="1"/>
        <pt x="280" y="293" on="1"/>
        <pt x="144" y="458" on="1"/>
        <pt x="256" y="462" on="1"/>
        <pt x="414" y="296" on="1"/>
        <pt x="256" y="125" on="1"/>
      </contour>
      <contour>
        <pt x="-17" y="129" on="1"/>
        <pt x="118" y="293" on="1"/>
        <pt x="-16" y="458" on="1"/>
        <pt x="94" y="462" on="1"/>
        <pt x="252" y="296" on="1"/>
        <pt x="94" y="125" on="1"/>
      </contour>
    </TTGlyph>
    <TTGlyph name="guilsinglleft" xMin="50" yMin="125" xMax="304" yMax="462">
      <contour>
        <pt x="304" y="129" on="1"/>
        <pt x="200" y="125" on="1"/>
        <pt x="50" y="296" on="1"/>
        <pt x="200" y="462" on="1"/>
        <pt x="304" y="458" on="1"/>
        <pt x="177" y="293" on="1"/>
      </contour>
    </TTGlyph>
    <TTGlyph name="guilsinglright" xMin="31" yMin="125" xMax="284" yMax="462">
      <contour>
        <pt x="31" y="129" on="1"/>
        <pt x="157" y="293" on="1"/>
        <pt x="31" y="458" on="1"/>
        <pt x="134" y="462" on="1"/>
        <pt x="284" y="296" on="1"/>
        <pt x="134" y="125" on="1"/>
      </contour>
    </TTGlyph>
    <TTGlyph name="h" xMin="65" yMin="0" xMax="460" yMax="713">
      <contour>
        <pt x="350" y="334" on="1"/>
        <pt x="350" y="430" on="0"/>
        <pt x="293" y="430" on="1"/>
        <pt x="248" y="430" on="0"/>
        <pt x="207" y="382" on="1"/>
        <pt x="174" y="343" on="0"/>
        <pt x="174" y="327" on="1"/>
        <pt x="174" y="0" on="1"/>
        <pt x="65" y="0" on="1"/>
        <pt x="65" y="713" on="1"/>
        <pt x="174" y="713" on="1"/>
        <pt x="174" y="416" on="1"/>
        <pt x="231" y="524" on="0"/>
        <pt x="299" y="523" on="1"/>
        <pt x="358" y="523" on="0"/>
        <pt x="408" y="476" on="1"/>
        <pt x="460" y="424" on="0"/>
        <pt x="460" y="347" on="1"/>
        <pt x="460" y="0" on="1"/>
        <pt x="350" y="0" on="1"/>
      </contour>
    </TTGlyph>
    <TTGlyph name="hungarumlaut" xMin="18" yMin="574" xMax="396" yMax="691">
      <contour>
        <pt x="180" y="574" on="1"/>
        <pt x="293" y="691" on="1"/>
        <pt x="396" y="691" on="1"/>
        <pt x="283" y="574" on="1"/>
      </contour>
      <contour>
        <pt x="18" y="574" on="1"/>
        <pt x="132" y="691" on="1"/>
        <pt x="234" y="691" on="1"/>
        <pt x="122" y="574" on="1"/>
      </contour>
    </TTGlyph>
    <TTGlyph name="hyphen" xMin="51" yMin="273" xMax="338" yMax="369">
      <contour>
        <pt x="51" y="369" on="1"/>
        <pt x="338" y="369" on="1"/>
        <pt x="338" y="273" on="1"/>
        <pt x="51" y="273" on="1"/>
      </contour>
    </TTGlyph>
    <TTGlyph name="i" xMin="44" yMin="0" xMax="195" yMax="749">
      <contour>
        <pt x="44" y="673" on="1"/>
        <pt x="44" y="706" on="0"/>
        <pt x="89" y="749" on="0"/>
        <pt x="120" y="749" on="1"/>
        <pt x="150" y="749" on="0"/>
        <pt x="195" y="706" on="0"/>
        <pt x="195" y="673" on="1"/>
        <pt x="195" y="640" on="0"/>
        <pt x="151" y="596" on="0"/>
        <pt x="120" y="596" on="1"/>
        <pt x="89" y="596" on="0"/>
        <pt x="44" y="640" on="0"/>
      </contour>
      <contour>
        <pt x="65" y="507" on="1"/>
        <pt x="174" y="507" on="1"/>
        <pt x="174" y="0" on="1"/>
        <pt x="65" y="0" on="1"/>
      </contour>
    </TTGlyph>
    <TTGlyph name="iacute" xMin="-10" yMin="0" xMax="252" yMax="732">
      <contour>
        <pt x="-10" y="641" on="1"/>
        <pt x="209" y="732" on="1"/>
        <pt x="252" y="652" on="1"/>
        <pt x="33" y="567" on="1"/>
      </contour>
      <contour>
        <pt x="65" y="507" on="1"/>
        <pt x="174" y="507" on="1"/>
        <pt x="174" y="0" on="1"/>
        <pt x="65" y="0" on="1"/>
      </contour>
    </TTGlyph>
    <TTGlyph name="icircumflex" xMin="-27" yMin="0" xMax="254" yMax="715">
      <component glyphName="dotlessi" x="0" y="0" flags="0x1004"/>
      <component glyphName="circumflex" x="-61" y="0" flags="0x1004"/>
    </TTGlyph>
    <TTGlyph name="idieresis" xMin="-56" yMin="0" xMax="302" yMax="717">
      <contour>
        <pt x="65" y="507" on="1"/>
        <pt x="174" y="507" on="1"/>
        <pt x="174" y="0" on="1"/>
        <pt x="65" y="0" on="1"/>
      </contour>
      <contour>
        <pt x="159" y="643" on="1"/>
        <pt x="159" y="671" on="0"/>
        <pt x="175" y="691" on="1"/>
        <pt x="195" y="717" on="0"/>
        <pt x="230" y="717" on="1"/>
        <pt x="264" y="717" on="0"/>
        <pt x="285" y="691" on="1"/>
        <pt x="302" y="669" on="0"/>
        <pt x="302" y="643" on="1"/>
        <pt x="302" y="615" on="0"/>
        <pt x="285" y="594" on="1"/>
        <pt x="265" y="569" on="0"/>
        <pt x="195" y="569" on="0"/>
        <pt x="176" y="594" on="1"/>
        <pt x="159" y="614" on="0"/>
      </contour>
      <contour>
        <pt x="-56" y="643" on="1"/>
        <pt x="-56" y="670" on="0"/>
        <pt x="-39" y="691" on="1"/>
        <pt x="-20" y="717" on="0"/>
        <pt x="15" y="717" on="1"/>
        <pt x="49" y="717" on="0"/>
        <pt x="70" y="691" on="1"/>
        <pt x="87" y="669" on="0"/>
        <pt x="87" y="643" on="1"/>
        <pt x="87" y="615" on="0"/>
        <pt x="70" y="594" on="1"/>
        <pt x="50" y="569" on="0"/>
        <pt x="-20" y="569" on="0"/>
        <pt x="-39" y="594" on="1"/>
        <pt x="-56" y="614" on="0"/>
      </contour>
    </TTGlyph>
    <TTGlyph name="igrave" xMin="-15" yMin="0" xMax="263" yMax="715">
      <component glyphName="dotlessi" x="0" y="0" flags="0x1004"/>
      <component glyphName="grave" x="-61" y="0" flags="0x1004"/>
    </TTGlyph>
    <TTGlyph name="infinity" xMin="9" yMin="270" xMax="539" yMax="544">
      <contour>
        <pt x="274" y="311" on="1"/>
        <pt x="228" y="270" on="0"/>
        <pt x="165" y="270" on="1"/>
        <pt x="100" y="270" on="0"/>
        <pt x="9" y="350" on="0"/>
        <pt x="9" y="408" on="1"/>
        <pt x="9" y="464" on="0"/>
        <pt x="100" y="544" on="0"/>
        <pt x="165" y="544" on="1"/>
        <pt x="228" y="544" on="0"/>
        <pt x="274" y="504" on="1"/>
        <pt x="319" y="544" on="0"/>
        <pt x="384" y="544" on="1"/>
        <pt x="447" y="544" on="0"/>
        <pt x="539" y="464" on="0"/>
        <pt x="539" y="408" on="1"/>
        <pt x="539" y="352" on="0"/>
        <pt x="447" y="270" on="0"/>
        <pt x="384" y="270" on="1"/>
        <pt x="318" y="270" on="0"/>
      </contour>
      <contour>
        <pt x="319" y="409" on="1"/>
        <pt x="319" y="385" on="0"/>
        <pt x="356" y="351" on="0"/>
        <pt x="384" y="351" on="1"/>
        <pt x="412" y="351" on="0"/>
        <pt x="449" y="385" on="0"/>
        <pt x="449" y="409" on="1"/>
        <pt x="449" y="432" on="0"/>
        <pt x="412" y="465" on="0"/>
        <pt x="384" y="465" on="1"/>
        <pt x="356" y="465" on="0"/>
        <pt x="319" y="432" on="0"/>
      </contour>
      <contour>
        <pt x="99" y="409" on="1"/>
        <pt x="99" y="382" on="0"/>
        <pt x="138" y="352" on="0"/>
        <pt x="165" y="352" on="1"/>
        <pt x="191" y="352" on="0"/>
        <pt x="229" y="382" on="0"/>
        <pt x="229" y="409" on="1"/>
        <pt x="229" y="432" on="0"/>
        <pt x="191" y="465" on="0"/>
        <pt x="165" y="465" on="1"/>
        <pt x="137" y="465" on="0"/>
        <pt x="99" y="432" on="0"/>
      </contour>
    </TTGlyph>
    <TTGlyph name="integral" xMin="18" yMin="-143" xMax="333" yMax="730">
      <contour>
        <pt x="230" y="609" on="1"/>
        <pt x="184" y="609" on="0"/>
        <pt x="184" y="536" on="1"/>
        <pt x="184" y="491" on="0"/>
        <pt x="230" y="326" on="1"/>
        <pt x="278" y="154" on="0"/>
        <pt x="279" y="65" on="1"/>
        <pt x="279" y="-21" on="0"/>
        <pt x="246" y="-75" on="1"/>
        <pt x="204" y="-144" on="0"/>
        <pt x="114" y="-143" on="1"/>
        <pt x="92" y="-143" on="0"/>
        <pt x="18" y="-119" on="1"/>
        <pt x="44" y="4" on="1"/>
        <pt x="93" y="-25" on="0"/>
        <pt x="117" y="-25" on="1"/>
        <pt x="159" y="-25" on="0"/>
        <pt x="159" y="81" on="1"/>
        <pt x="159" y="119" on="0"/>
        <pt x="112" y="280" on="1"/>
        <pt x="63" y="448" on="0"/>
        <pt x="62" y="537" on="1"/>
        <pt x="62" y="619" on="0"/>
        <pt x="99" y="670" on="1"/>
        <pt x="143" y="730" on="0"/>
        <pt x="232" y="730" on="1"/>
        <pt x="271" y="730" on="0"/>
        <pt x="333" y="693" on="1"/>
        <pt x="281" y="581" on="1"/>
        <pt x="245" y="609" on="0"/>
      </contour>
    </TTGlyph>
    <TTGlyph name="j" xMin="-31" yMin="-228" xMax="199" yMax="750">
      <contour>
        <pt x="199" y="674" on="1"/>
        <pt x="199" y="641" on="0"/>
        <pt x="154" y="598" on="0"/>
        <pt x="123" y="598" on="1"/>
        <pt x="92" y="598" on="0"/>
        <pt x="47" y="641" on="0"/>
        <pt x="47" y="674" on="1"/>
        <pt x="47" y="707" on="0"/>
        <pt x="92" y="750" on="0"/>
        <pt x="123" y="750" on="1"/>
        <pt x="154" y="750" on="0"/>
        <pt x="199" y="707" on="0"/>
      </contour>
      <contour>
        <pt x="122" y="-175" on="1"/>
        <pt x="85" y="-201" on="0"/>
        <pt x="8" y="-228" on="1"/>
        <pt x="-31" y="-135" on="1"/>
        <pt x="55" y="-109" on="0"/>
        <pt x="63" y="-66" on="1"/>
        <pt x="64" y="-61" on="0"/>
        <pt x="65" y="-13" on="1"/>
        <pt x="65" y="507" on="1"/>
        <pt x="175" y="507" on="1"/>
        <pt x="175" y="-56" on="1"/>
        <pt x="175" y="-137" on="0"/>
      </contour>
    </TTGlyph>
    <TTGlyph name="k" xMin="65" yMin="-32" xMax="486" yMax="714">
      <contour>
        <pt x="205" y="227" on="1"/>
        <pt x="174" y="182" on="1"/>
        <pt x="174" y="-1" on="1"/>
        <pt x="65" y="-1" on="1"/>
        <pt x="65" y="714" on="1"/>
        <pt x="174" y="714" on="1"/>
        <pt x="174" y="296" on="1"/>
        <pt x="356" y="549" on="1"/>
        <pt x="453" y="482" on="1"/>
        <pt x="264" y="282" on="1"/>
        <pt x="486" y="32" on="1"/>
        <pt x="388" y="-32" on="1"/>
      </contour>
    </TTGlyph>
    <TTGlyph name="l" xMin="66" yMin="0" xMax="174" yMax="715">
      <contour>
        <pt x="66" y="715" on="1"/>
        <pt x="174" y="715" on="1"/>
        <pt x="174" y="0" on="1"/>
        <pt x="66" y="0" on="1"/>
      </contour>
    </TTGlyph>
    <TTGlyph name="less" xMin="0" yMin="43" xMax="368" yMax="542">
      <contour>
        <pt x="368" y="47" on="1"/>
        <pt x="243" y="43" on="1"/>
        <pt x="0" y="296" on="1"/>
        <pt x="242" y="542" on="1"/>
        <pt x="368" y="538" on="1"/>
        <pt x="162" y="292" on="1"/>
      </contour>
    </TTGlyph>
    <TTGlyph name="lessequal" xMin="13" yMin="4" xMax="267" yMax="459">
      <contour>
        <pt x="267" y="119" on="1"/>
        <pt x="163" y="114" on="1"/>
        <pt x="13" y="289" on="1"/>
        <pt x="163" y="459" on="1"/>
        <pt x="267" y="455" on="1"/>
        <pt x="140" y="286" on="1"/>
      </contour>
      <contour>
        <pt x="22" y="79" on="1"/>
        <pt x="248" y="79" on="1"/>
        <pt x="248" y="4" on="1"/>
        <pt x="22" y="4" on="1"/>
      </contour>
    </TTGlyph>
    <TTGlyph name="logicalnot" xMin="90" yMin="29" xMax="571" yMax="351">
      <contour>
        <pt x="454" y="230" on="1"/>
        <pt x="90" y="230" on="1"/>
        <pt x="90" y="351" on="1"/>
        <pt x="571" y="351" on="1"/>
        <pt x="571" y="29" on="1"/>
        <pt x="454" y="29" on="1"/>
      </contour>
    </TTGlyph>
    <TTGlyph name="lozenge" xMin="12" yMin="80" xMax="550" yMax="603">
      <contour>
        <pt x="12" y="341" on="1"/>
        <pt x="282" y="603" on="1"/>
        <pt x="550" y="341" on="1"/>
        <pt x="282" y="80" on="1"/>
      </contour>
      <contour>
        <pt x="163" y="340" on="1"/>
        <pt x="285" y="222" on="1"/>
        <pt x="406" y="340" on="1"/>
        <pt x="285" y="459" on="1"/>
      </contour>
    </TTGlyph>
    <TTGlyph name="lslash" xMin="15" yMin="0" xMax="250" yMax="657">
      <contour>
        <pt x="183" y="0" on="1"/>
        <pt x="71" y="0" on="1"/>
        <pt x="71" y="294" on="1"/>
        <pt x="15" y="262" on="1"/>
        <pt x="16" y="381" on="1"/>
        <pt x="71" y="412" on="1"/>
        <pt x="71" y="657" on="1"/>
        <pt x="182" y="657" on="1"/>
        <pt x="182" y="475" on="1"/>
        <pt x="249" y="512" on="1"/>
        <pt x="250" y="394" on="1"/>
        <pt x="182" y="356" on="1"/>
      </contour>
    </TTGlyph>
    <TTGlyph name="m" xMin="65" yMin="0" xMax="730" yMax="524">
      <contour>
        <pt x="615" y="347" on="1"/>
        <pt x="615" y="430" on="0"/>
        <pt x="560" y="430" on="1"/>
        <pt x="534" y="430" on="0"/>
        <pt x="498" y="395" on="1"/>
        <pt x="454" y="353" on="0"/>
        <pt x="454" y="304" on="1"/>
        <pt x="454" y="0" on="1"/>
        <pt x="339" y="0" on="1"/>
        <pt x="339" y="332" on="1"/>
        <pt x="339" y="370" on="0"/>
        <pt x="301" y="426" on="0"/>
        <pt x="279" y="426" on="1"/>
        <pt x="248" y="426" on="0"/>
        <pt x="174" y="340" on="0"/>
        <pt x="174" y="313" on="1"/>
        <pt x="174" y="0" on="1"/>
        <pt x="65" y="0" on="1"/>
        <pt x="65" y="508" on="1"/>
        <pt x="174" y="508" on="1"/>
        <pt x="174" y="417" on="1"/>
        <pt x="239" y="519" on="0"/>
        <pt x="306" y="519" on="1"/>
        <pt x="343" y="519" on="0"/>
        <pt x="416" y="460" on="0"/>
        <pt x="432" y="422" on="1"/>
        <pt x="509" y="524" on="0"/>
        <pt x="577" y="524" on="1"/>
        <pt x="647" y="524" on="0"/>
        <pt x="690" y="468" on="1"/>
        <pt x="730" y="418" on="0"/>
        <pt x="730" y="352" on="1"/>
        <pt x="730" y="0" on="1"/>
        <pt x="615" y="0" on="1"/>
      </contour>
    </TTGlyph>
    <TTGlyph name="macron" xMin="108" yMin="608" xMax="347" yMax="675">
      <contour>
        <pt x="108" y="675" on="1"/>
        <pt x="347" y="675" on="1"/>
        <pt x="347" y="608" on="1"/>
        <pt x="108" y="608" on="1"/>
      </contour>
    </TTGlyph>
    <TTGlyph name="minus" xMin="53" yMin="292" xMax="457" yMax="356">
      <contour>
        <pt x="53" y="356" on="1"/>
        <pt x="457" y="356" on="1"/>
        <pt x="457" y="292" on="1"/>
        <pt x="53" y="292" on="1"/>
      </contour>
    </TTGlyph>
    <TTGlyph name="mu" xMin="70" yMin="-201" xMax="529" yMax="499">
      <contour>
        <pt x="355" y="30" on="1"/>
        <pt x="346" y="19" on="1"/>
        <pt x="299" y="-33" on="0"/>
        <pt x="251" y="-33" on="1"/>
        <pt x="210" y="-33" on="0"/>
        <pt x="175" y="-10" on="1"/>
        <pt x="175" y="-201" on="1"/>
        <pt x="70" y="-201" on="1"/>
        <pt x="70" y="498" on="1"/>
        <pt x="175" y="498" on="1"/>
        <pt x="175" y="147" on="1"/>
        <pt x="175" y="72" on="0"/>
        <pt x="266" y="73" on="1"/>
        <pt x="295" y="73" on="0"/>
        <pt x="346" y="129" on="0"/>
        <pt x="346" y="153" on="1"/>
        <pt x="346" y="499" on="1"/>
        <pt x="459" y="499" on="1"/>
        <pt x="459" y="120" on="1"/>
        <pt x="458" y="50" on="0"/>
        <pt x="486" y="32" on="1"/>
        <pt x="505" y="19" on="0"/>
        <pt x="529" y="-7" on="1"/>
        <pt x="443" y="-74" on="1"/>
        <pt x="377" y="-35" on="0"/>
      </contour>
    </TTGlyph>
    <TTGlyph name="n" xMin="65" yMin="0" xMax="460" yMax="523">
      <contour>
        <pt x="350" y="328" on="1"/>
        <pt x="350" y="379" on="0"/>
        <pt x="332" y="407" on="1"/>
        <pt x="317" y="432" on="0"/>
        <pt x="292" y="431" on="1"/>
        <pt x="254" y="431" on="0"/>
        <pt x="174" y="344" on="0"/>
        <pt x="174" y="310" on="1"/>
        <pt x="174" y="0" on="1"/>
        <pt x="65" y="0" on="1"/>
        <pt x="65" y="508" on="1"/>
        <pt x="174" y="508" on="1"/>
        <pt x="174" y="417" on="1"/>
        <pt x="236" y="523" on="0"/>
        <pt x="300" y="523" on="1"/>
        <pt x="365" y="523" on="0"/>
        <pt x="411" y="473" on="1"/>
        <pt x="460" y="420" on="0"/>
        <pt x="460" y="340" on="1"/>
        <pt x="460" y="0" on="1"/>
        <pt x="350" y="0" on="1"/>
      </contour>
    </TTGlyph>
    <TTGlyph name="nine" xMin="25" yMin="-27" xMax="499" yMax="672">
      <contour>
        <pt x="26" y="57" on="1"/>
        <pt x="87" y="136" on="1"/>
        <pt x="130" y="97" on="0"/>
        <pt x="197" y="68" on="0"/>
        <pt x="244" y="68" on="1"/>
        <pt x="317" y="68" on="0"/>
        <pt x="353" y="151" on="1"/>
        <pt x="382" y="216" on="0"/>
        <pt x="382" y="309" on="1"/>
        <pt x="309" y="223" on="0"/>
        <pt x="234" y="223" on="1"/>
        <pt x="150" y="223" on="0"/>
        <pt x="90" y="282" on="1"/>
        <pt x="24" y="344" on="0"/>
        <pt x="25" y="439" on="1"/>
        <pt x="25" y="537" on="0"/>
        <pt x="154" y="672" on="0"/>
        <pt x="257" y="672" on="1"/>
        <pt x="353" y="672" on="0"/>
        <pt x="420" y="602" on="1"/>
        <pt x="499" y="521" on="0"/>
        <pt x="499" y="372" on="1"/>
        <pt x="499" y="219" on="0"/>
        <pt x="452" y="118" on="1"/>
        <pt x="384" y="-26" on="0"/>
        <pt x="236" y="-27" on="1"/>
        <pt x="114" y="-27" on="0"/>
      </contour>
      <contour>
        <pt x="135" y="442" on="1"/>
        <pt x="135" y="390" on="0"/>
        <pt x="168" y="348" on="1"/>
        <pt x="203" y="303" on="0"/>
        <pt x="251" y="303" on="1"/>
        <pt x="307" y="303" on="0"/>
        <pt x="377" y="378" on="0"/>
        <pt x="377" y="435" on="1"/>
        <pt x="377" y="494" on="0"/>
        <pt x="349" y="537" on="1"/>
        <pt x="316" y="586" on="0"/>
        <pt x="257" y="586" on="1"/>
        <pt x="203" y="586" on="0"/>
        <pt x="135" y="504" on="0"/>
      </contour>
    </TTGlyph>
    <TTGlyph name="notequal" xMin="52" yMin="-20" xMax="398" yMax="552">
      <contour>
        <pt x="94" y="12" on="1"/>
        <pt x="132" y="128" on="1"/>
        <pt x="52" y="128" on="1"/>
        <pt x="52" y="228" on="1"/>
        <pt x="165" y="228" on="1"/>
        <pt x="180" y="272" on="1"/>
        <pt x="52" y="272" on="1"/>
        <pt x="52" y="373" on="1"/>
        <pt x="213" y="373" on="1"/>
        <pt x="272" y="552" on="1"/>
        <pt x="364" y="519" on="1"/>
        <pt x="314" y="373" on="1"/>
        <pt x="398" y="373" on="1"/>
        <pt x="398" y="272" on="1"/>
        <pt x="282" y="272" on="1"/>
        <pt x="266" y="228" on="1"/>
        <pt x="398" y="228" on="1"/>
        <pt x="398" y="128" on="1"/>
        <pt x="233" y="128" on="1"/>
        <pt x="184" y="-20" on="1"/>
      </contour>
    </TTGlyph>
    <TTGlyph name="ntilde" xMin="65" yMin="0" xMax="460" yMax="701">
      <contour>
        <pt x="254" y="593" on="1"/>
        <pt x="218" y="617" on="0"/>
        <pt x="209" y="616" on="1"/>
        <pt x="182" y="616" on="0"/>
        <pt x="141" y="568" on="1"/>
        <pt x="100" y="648" on="1"/>
        <pt x="140" y="699" on="0"/>
        <pt x="208" y="701" on="1"/>
        <pt x="239" y="702" on="0"/>
        <pt x="319" y="647" on="0"/>
        <pt x="330" y="647" on="1"/>
        <pt x="342" y="647" on="0"/>
        <pt x="381" y="679" on="1"/>
        <pt x="420" y="601" on="1"/>
        <pt x="404" y="585" on="0"/>
        <pt x="347" y="562" on="0"/>
        <pt x="332" y="562" on="1"/>
        <pt x="300" y="562" on="0"/>
      </contour>
      <contour>
        <pt x="350" y="328" on="1"/>
        <pt x="350" y="379" on="0"/>
        <pt x="332" y="407" on="1"/>
        <pt x="317" y="432" on="0"/>
        <pt x="292" y="431" on="1"/>
        <pt x="254" y="431" on="0"/>
        <pt x="174" y="344" on="0"/>
        <pt x="174" y="310" on="1"/>
        <pt x="174" y="0" on="1"/>
        <pt x="65" y="0" on="1"/>
        <pt x="65" y="508" on="1"/>
        <pt x="174" y="508" on="1"/>
        <pt x="174" y="417" on="1"/>
        <pt x="236" y="523" on="0"/>
        <pt x="300" y="523" on="1"/>
        <pt x="365" y="523" on="0"/>
        <pt x="411" y="473" on="1"/>
        <pt x="460" y="420" on="0"/>
        <pt x="460" y="340" on="1"/>
        <pt x="460" y="0" on="1"/>
        <pt x="350" y="0" on="1"/>
      </contour>
    </TTGlyph>
    <TTGlyph name="numbersign" xMin="71" yMin="308" xMax="456" yMax="698">
      <contour>
        <pt x="382" y="542" on="1"/>
        <pt x="382" y="507" on="1"/>
        <pt x="455" y="514" on="1"/>
        <pt x="455" y="429" on="1"/>
        <pt x="381" y="421" on="1"/>
        <pt x="381" y="332" on="1"/>
        <pt x="291" y="322" on="1"/>
        <pt x="292" y="412" on="1"/>
        <pt x="255" y="408" on="1"/>
        <pt x="254" y="318" on="1"/>
        <pt x="164" y="308" on="1"/>
        <pt x="165" y="398" on="1"/>
        <pt x="71" y="388" on="1"/>
        <pt x="71" y="473" on="1"/>
        <pt x="165" y="483" on="1"/>
        <pt x="165" y="519" on="1"/>
        <pt x="72" y="509" on="1"/>
        <pt x="72" y="594" on="1"/>
        <pt x="166" y="604" on="1"/>
        <pt x="166" y="674" on="1"/>
        <pt x="256" y="683" on="1"/>
        <pt x="255" y="614" on="1"/>
        <pt x="293" y="617" on="1"/>
        <pt x="293" y="687" on="1"/>
        <pt x="383" y="698" on="1"/>
        <pt x="382" y="628" on="1"/>
        <pt x="456" y="635" on="1"/>
        <pt x="456" y="550" on="1"/>
      </contour>
      <contour>
        <pt x="255" y="494" on="1"/>
        <pt x="292" y="497" on="1"/>
        <pt x="292" y="532" on="1"/>
        <pt x="255" y="528" on="1"/>
      </contour>
    </TTGlyph>
    <TTGlyph name="o" xMin="40" yMin="-11" xMax="519" yMax="524">
      <contour>
        <pt x="40" y="258" on="1"/>
        <pt x="40" y="389" on="0"/>
        <pt x="123" y="463" on="1"/>
        <pt x="192" y="524" on="0"/>
        <pt x="283" y="524" on="1"/>
        <pt x="373" y="524" on="0"/>
        <pt x="439" y="463" on="1"/>
        <pt x="519" y="390" on="0"/>
        <pt x="519" y="258" on="1"/>
        <pt x="519" y="168" on="0"/>
        <pt x="473" y="93" on="1"/>
        <pt x="408" y="-11" on="0"/>
        <pt x="282" y="-11" on="1"/>
        <pt x="144" y="-11" on="0"/>
        <pt x="81" y="94" on="1"/>
        <pt x="40" y="164" on="0"/>
      </contour>
      <contour>
        <pt x="159" y="252" on="1"/>
        <pt x="159" y="178" on="0"/>
        <pt x="188" y="127" on="1"/>
        <pt x="221" y="69" on="0"/>
        <pt x="278" y="69" on="1"/>
        <pt x="336" y="69" on="0"/>
        <pt x="370" y="128" on="1"/>
        <pt x="401" y="180" on="0"/>
        <pt x="400" y="257" on="1"/>
        <pt x="400" y="332" on="0"/>
        <pt x="373" y="384" on="1"/>
        <pt x="341" y="443" on="0"/>
        <pt x="287" y="443" on="1"/>
        <pt x="225" y="443" on="0"/>
        <pt x="189" y="383" on="1"/>
        <pt x="159" y="330" on="0"/>
      </contour>
    </TTGlyph>
    <TTGlyph name="oacute" xMin="40" yMin="-11" xMax="519" yMax="732">
      <contour>
        <pt x="172" y="641" on="1"/>
        <pt x="392" y="732" on="1"/>
        <pt x="456" y="652" on="1"/>
        <pt x="237" y="567" on="1"/>
      </contour>
      <contour>
        <pt x="40" y="258" on="1"/>
        <pt x="40" y="389" on="0"/>
        <pt x="123" y="463" on="1"/>
        <pt x="192" y="524" on="0"/>
        <pt x="283" y="524" on="1"/>
        <pt x="373" y="524" on="0"/>
        <pt x="439" y="463" on="1"/>
        <pt x="519" y="390" on="0"/>
        <pt x="519" y="258" on="1"/>
        <pt x="519" y="168" on="0"/>
        <pt x="473" y="93" on="1"/>
        <pt x="408" y="-11" on="0"/>
        <pt x="282" y="-11" on="1"/>
        <pt x="144" y="-11" on="0"/>
        <pt x="81" y="94" on="1"/>
        <pt x="40" y="164" on="0"/>
      </contour>
      <contour>
        <pt x="159" y="252" on="1"/>
        <pt x="159" y="178" on="0"/>
        <pt x="188" y="127" on="1"/>
        <pt x="221" y="69" on="0"/>
        <pt x="278" y="69" on="1"/>
        <pt x="336" y="69" on="0"/>
        <pt x="370" y="128" on="1"/>
        <pt x="401" y="180" on="0"/>
        <pt x="400" y="257" on="1"/>
        <pt x="400" y="332" on="0"/>
        <pt x="373" y="384" on="1"/>
        <pt x="341" y="443" on="0"/>
        <pt x="287" y="443" on="1"/>
        <pt x="225" y="443" on="0"/>
        <pt x="189" y="383" on="1"/>
        <pt x="159" y="330" on="0"/>
      </contour>
    </TTGlyph>
    <TTGlyph name="ocircumflex" xMin="40" yMin="-11" xMax="519" yMax="732">
      <contour>
        <pt x="148" y="534" on="1"/>
        <pt x="148" y="624" on="1"/>
        <pt x="290" y="732" on="1"/>
        <pt x="435" y="624" on="1"/>
        <pt x="435" y="535" on="1"/>
        <pt x="290" y="613" on="1"/>
      </contour>
      <contour>
        <pt x="40" y="258" on="1"/>
        <pt x="40" y="389" on="0"/>
        <pt x="123" y="463" on="1"/>
        <pt x="192" y="524" on="0"/>
        <pt x="283" y="524" on="1"/>
        <pt x="373" y="524" on="0"/>
        <pt x="439" y="463" on="1"/>
        <pt x="519" y="390" on="0"/>
        <pt x="519" y="258" on="1"/>
        <pt x="519" y="168" on="0"/>
        <pt x="473" y="93" on="1"/>
        <pt x="408" y="-11" on="0"/>
        <pt x="282" y="-11" on="1"/>
        <pt x="144" y="-11" on="0"/>
        <pt x="81" y="94" on="1"/>
        <pt x="40" y="164" on="0"/>
      </contour>
      <contour>
        <pt x="159" y="252" on="1"/>
        <pt x="159" y="178" on="0"/>
        <pt x="188" y="127" on="1"/>
        <pt x="221" y="69" on="0"/>
        <pt x="278" y="69" on="1"/>
        <pt x="336" y="69" on="0"/>
        <pt x="370" y="128" on="1"/>
        <pt x="401" y="180" on="0"/>
        <pt x="400" y="257" on="1"/>
        <pt x="400" y="332" on="0"/>
        <pt x="373" y="384" on="1"/>
        <pt x="341" y="443" on="0"/>
        <pt x="287" y="443" on="1"/>
        <pt x="225" y="443" on="0"/>
        <pt x="189" y="383" on="1"/>
        <pt x="159" y="330" on="0"/>
      </contour>
    </TTGlyph>
    <TTGlyph name="odieresis" xMin="39" yMin="-11" xMax="507" yMax="700">
      <component glyphName="dieresis" x="133" y="0" flags="0x1004"/>
      <component glyphName="o" x="0" y="0" flags="0x1004"/>
    </TTGlyph>
    <TTGlyph name="oe" xMin="91" yMin="-12" xMax="946" yMax="524">
      <contour>
        <pt x="214" y="252" on="1"/>
        <pt x="214" y="180" on="0"/>
        <pt x="245" y="131" on="1"/>
        <pt x="279" y="78" on="0"/>
        <pt x="338" y="78" on="1"/>
        <pt x="399" y="78" on="0"/>
        <pt x="434" y="132" on="1"/>
        <pt x="465" y="182" on="0"/>
        <pt x="465" y="257" on="1"/>
        <pt x="465" y="331" on="0"/>
        <pt x="435" y="379" on="1"/>
        <pt x="403" y="433" on="0"/>
        <pt x="347" y="433" on="1"/>
        <pt x="281" y="433" on="0"/>
        <pt x="246" y="378" on="1"/>
        <pt x="214" y="329" on="0"/>
      </contour>
      <contour>
        <pt x="754" y="70" on="1"/>
        <pt x="826" y="70" on="0"/>
        <pt x="883" y="152" on="1"/>
        <pt x="946" y="70" on="1"/>
        <pt x="858" y="-12" on="0"/>
        <pt x="746" y="-12" on="1"/>
        <pt x="663" y="-12" on="0"/>
        <pt x="614" y="26" on="1"/>
        <pt x="578" y="54" on="0"/>
        <pt x="551" y="112" on="1"/>
        <pt x="484" y="-11" on="0"/>
        <pt x="342" y="-11" on="1"/>
        <pt x="199" y="-11" on="0"/>
        <pt x="134" y="94" on="1"/>
        <pt x="91" y="164" on="0"/>
        <pt x="91" y="258" on="1"/>
        <pt x="91" y="389" on="0"/>
        <pt x="177" y="463" on="1"/>
        <pt x="248" y="524" on="0"/>
        <pt x="343" y="524" on="1"/>
        <pt x="404" y="524" on="0"/>
        <pt x="460" y="495" on="1"/>
        <pt x="522" y="462" on="0"/>
        <pt x="556" y="399" on="1"/>
        <pt x="622" y="519" on="0"/>
        <pt x="761" y="519" on="1"/>
        <pt x="841" y="519" on="0"/>
        <pt x="891" y="469" on="1"/>
        <pt x="946" y="416" on="0"/>
        <pt x="946" y="321" on="1"/>
        <pt x="946" y="244" on="1"/>
        <pt x="644" y="244" on="1"/>
        <pt x="651" y="70" on="0"/>
      </contour>
      <contour>
        <pt x="840" y="331" on="1"/>
        <pt x="838" y="372" on="0"/>
        <pt x="818" y="402" on="1"/>
        <pt x="794" y="439" on="0"/>
        <pt x="754" y="439" on="1"/>
        <pt x="665" y="439" on="0"/>
        <pt x="657" y="331" on="1"/>
      </contour>
    </TTGlyph>
    <TTGlyph name="ograve" xMin="40" yMin="-11" xMax="519" yMax="728">
      <contour>
        <pt x="396" y="569" on="1"/>
        <pt x="182" y="662" on="1"/>
        <pt x="230" y="728" on="1"/>
        <pt x="445" y="630" on="1"/>
      </contour>
      <contour>
        <pt x="40" y="258" on="1"/>
        <pt x="40" y="389" on="0"/>
        <pt x="123" y="463" on="1"/>
        <pt x="192" y="524" on="0"/>
        <pt x="283" y="524" on="1"/>
        <pt x="373" y="524" on="0"/>
        <pt x="439" y="463" on="1"/>
        <pt x="519" y="390" on="0"/>
        <pt x="519" y="258" on="1"/>
        <pt x="519" y="168" on="0"/>
        <pt x="473" y="93" on="1"/>
        <pt x="408" y="-11" on="0"/>
        <pt x="282" y="-11" on="1"/>
        <pt x="144" y="-11" on="0"/>
        <pt x="81" y="94" on="1"/>
        <pt x="40" y="164" on="0"/>
      </contour>
      <contour>
        <pt x="159" y="252" on="1"/>
        <pt x="159" y="178" on="0"/>
        <pt x="188" y="127" on="1"/>
        <pt x="221" y="69" on="0"/>
        <pt x="278" y="69" on="1"/>
        <pt x="336" y="69" on="0"/>
        <pt x="370" y="128" on="1"/>
        <pt x="401" y="180" on="0"/>
        <pt x="400" y="257" on="1"/>
        <pt x="400" y="332" on="0"/>
        <pt x="373" y="384" on="1"/>
        <pt x="341" y="443" on="0"/>
        <pt x="287" y="443" on="1"/>
        <pt x="225" y="443" on="0"/>
        <pt x="189" y="383" on="1"/>
        <pt x="159" y="330" on="0"/>
      </contour>
    </TTGlyph>
    <TTGlyph name="one" xMin="103" yMin="0" xMax="474" yMax="652">
      <contour>
        <pt x="474" y="102" on="1"/>
        <pt x="474" y="0" on="1"/>
        <pt x="103" y="0" on="1"/>
        <pt x="103" y="102" on="1"/>
        <pt x="240" y="102" on="1"/>
        <pt x="240" y="547" on="1"/>
        <pt x="113" y="547" on="1"/>
        <pt x="113" y="652" on="1"/>
        <pt x="350" y="652" on="1"/>
        <pt x="350" y="102" on="1"/>
      </contour>
    </TTGlyph>
    <TTGlyph name="oslash" xMin="40" yMin="-76" xMax="519" yMax="597">
      <contour>
        <pt x="426" y="562" on="1"/>
        <pt x="404" y="489" on="1"/>
        <pt x="519" y="418" on="0"/>
        <pt x="519" y="258" on="1"/>
        <pt x="519" y="168" on="0"/>
        <pt x="473" y="93" on="1"/>
        <pt x="408" y="-11" on="0"/>
        <pt x="282" y="-11" on="1"/>
        <pt x="264" y="-11" on="0"/>
        <pt x="255" y="-10" on="1"/>
        <pt x="236" y="-76" on="1"/>
        <pt x="126" y="-41" on="1"/>
        <pt x="145" y="26" on="1"/>
        <pt x="86" y="65" on="0"/>
        <pt x="59" y="142" on="1"/>
        <pt x="40" y="196" on="0"/>
        <pt x="40" y="258" on="1"/>
        <pt x="40" y="389" on="0"/>
        <pt x="123" y="463" on="1"/>
        <pt x="192" y="524" on="0"/>
        <pt x="283" y="524" on="1"/>
        <pt x="294" y="524" on="1"/>
        <pt x="315" y="597" on="1"/>
      </contour>
      <contour>
        <pt x="269" y="442" on="1"/>
        <pt x="215" y="434" on="0"/>
        <pt x="185" y="375" on="1"/>
        <pt x="158" y="324" on="0"/>
        <pt x="159" y="252" on="1"/>
        <pt x="159" y="191" on="0"/>
        <pt x="180" y="142" on="1"/>
      </contour>
      <contour>
        <pt x="400" y="257" on="1"/>
        <pt x="400" y="331" on="0"/>
        <pt x="373" y="384" on="1"/>
        <pt x="279" y="69" on="1"/>
        <pt x="337" y="70" on="0"/>
        <pt x="371" y="128" on="1"/>
        <pt x="400" y="181" on="0"/>
      </contour>
    </TTGlyph>
    <TTGlyph name="otilde" xMin="40" yMin="-11" xMax="519" yMax="701">
      <contour>
        <pt x="286" y="593" on="1"/>
        <pt x="249" y="617" on="0"/>
        <pt x="241" y="616" on="1"/>
        <pt x="214" y="616" on="0"/>
        <pt x="173" y="568" on="1"/>
        <pt x="133" y="648" on="1"/>
        <pt x="173" y="699" on="0"/>
        <pt x="241" y="701" on="1"/>
        <pt x="272" y="702" on="0"/>
        <pt x="351" y="647" on="0"/>
        <pt x="361" y="647" on="1"/>
        <pt x="374" y="647" on="0"/>
        <pt x="414" y="679" on="1"/>
        <pt x="452" y="601" on="1"/>
        <pt x="436" y="585" on="0"/>
        <pt x="379" y="562" on="0"/>
        <pt x="364" y="562" on="1"/>
        <pt x="334" y="562" on="0"/>
      </contour>
      <contour>
        <pt x="40" y="258" on="1"/>
        <pt x="40" y="389" on="0"/>
        <pt x="123" y="463" on="1"/>
        <pt x="192" y="524" on="0"/>
        <pt x="283" y="524" on="1"/>
        <pt x="373" y="524" on="0"/>
        <pt x="439" y="463" on="1"/>
        <pt x="519" y="390" on="0"/>
        <pt x="519" y="258" on="1"/>
        <pt x="519" y="168" on="0"/>
        <pt x="473" y="93" on="1"/>
        <pt x="408" y="-11" on="0"/>
        <pt x="282" y="-11" on="1"/>
        <pt x="144" y="-11" on="0"/>
        <pt x="81" y="94" on="1"/>
        <pt x="40" y="164" on="0"/>
      </contour>
      <contour>
        <pt x="159" y="252" on="1"/>
        <pt x="159" y="178" on="0"/>
        <pt x="188" y="127" on="1"/>
        <pt x="221" y="69" on="0"/>
        <pt x="278" y="69" on="1"/>
        <pt x="336" y="69" on="0"/>
        <pt x="370" y="128" on="1"/>
        <pt x="401" y="180" on="0"/>
        <pt x="400" y="257" on="1"/>
        <pt x="400" y="332" on="0"/>
        <pt x="373" y="384" on="1"/>
        <pt x="341" y="443" on="0"/>
        <pt x="287" y="443" on="1"/>
        <pt x="225" y="443" on="0"/>
        <pt x="189" y="383" on="1"/>
        <pt x="159" y="330" on="0"/>
      </contour>
    </TTGlyph>
    <TTGlyph name="p" xMin="65" yMin="-202" xMax="492" yMax="525">
      <contour>
        <pt x="174" y="29" on="1"/>
        <pt x="174" y="-202" on="1"/>
        <pt x="65" y="-202" on="1"/>
        <pt x="65" y="508" on="1"/>
        <pt x="174" y="508" on="1"/>
        <pt x="174" y="424" on="1"/>
        <pt x="187" y="464" on="0"/>
        <pt x="271" y="525" on="0"/>
        <pt x="313" y="525" on="1"/>
        <pt x="409" y="525" on="0"/>
        <pt x="455" y="443" on="1"/>
        <pt x="492" y="376" on="0"/>
        <pt x="492" y="267" on="1"/>
        <pt x="492" y="-24" on="0"/>
        <pt x="279" y="-24" on="1"/>
        <pt x="248" y="-23" on="0"/>
      </contour>
      <contour>
        <pt x="174" y="317" on="1"/>
        <pt x="174" y="117" on="1"/>
        <pt x="237" y="70" on="0"/>
        <pt x="280" y="70" on="1"/>
        <pt x="327" y="70" on="0"/>
        <pt x="352" y="133" on="1"/>
        <pt x="372" y="184" on="0"/>
        <pt x="373" y="254" on="1"/>
        <pt x="373" y="335" on="0"/>
        <pt x="356" y="375" on="1"/>
        <pt x="334" y="431" on="0"/>
        <pt x="278" y="431" on="1"/>
        <pt x="253" y="431" on="0"/>
        <pt x="217" y="387" on="1"/>
        <pt x="184" y="348" on="0"/>
      </contour>
    </TTGlyph>
    <TTGlyph name="paragraph" xMin="51" yMin="0" xMax="447" yMax="657">
      <contour>
        <pt x="346" y="0" on="1"/>
        <pt x="346" y="657" on="1"/>
        <pt x="447" y="657" on="1"/>
        <pt x="447" y="0" on="1"/>
      </contour>
      <contour>
        <pt x="216" y="0" on="1"/>
        <pt x="216" y="325" on="1"/>
        <pt x="50" y="325" on="0"/>
        <pt x="51" y="495" on="1"/>
        <pt x="51" y="583" on="0"/>
        <pt x="93" y="622" on="1"/>
        <pt x="132" y="658" on="0"/>
        <pt x="214" y="657" on="1"/>
        <pt x="317" y="657" on="1"/>
        <pt x="317" y="0" on="1"/>
      </contour>
    </TTGlyph>
    <TTGlyph name="parenleft" xMin="47" yMin="-146" xMax="251" yMax="808">
      <contour>
        <pt x="47" y="331" on="1"/>
        <pt x="47" y="584" on="0"/>
        <pt x="166" y="808" on="1"/>
        <pt x="249" y="762" on="1"/>
        <pt x="155" y="512" on="0"/>
        <pt x="155" y="331" on="1"/>
        <pt x="155" y="220" on="0"/>
        <pt x="183" y="109" on="1"/>
        <pt x="196" y="60" on="0"/>
        <pt x="251" y="-102" on="1"/>
        <pt x="166" y="-146" on="1"/>
        <pt x="47" y="89" on="0"/>
      </contour>
    </TTGlyph>
    <TTGlyph name="parenright" xMin="75" yMin="-146" xMax="275" yMax="807">
      <contour>
        <pt x="75" y="-102" on="1"/>
        <pt x="131" y="65" on="0"/>
        <pt x="142" y="106" on="1"/>
        <pt x="171" y="217" on="0"/>
        <pt x="171" y="327" on="1"/>
        <pt x="171" y="516" on="0"/>
        <pt x="78" y="763" on="1"/>
        <pt x="161" y="807" on="1"/>
        <pt x="276" y="589" on="0"/>
        <pt x="275" y="334" on="1"/>
        <pt x="275" y="83" on="0"/>
        <pt x="161" y="-146" on="1"/>
      </contour>
    </TTGlyph>
    <TTGlyph name="partialdiff" xMin="44" yMin="-17" xMax="522" yMax="706">
      <contour>
        <pt x="44" y="244" on="1"/>
        <pt x="43" y="385" on="0"/>
        <pt x="114" y="457" on="1"/>
        <pt x="176" y="520" on="0"/>
        <pt x="284" y="520" on="1"/>
        <pt x="354" y="520" on="0"/>
        <pt x="408" y="463" on="1"/>
        <pt x="400" y="490" on="0"/>
        <pt x="382" y="525" on="1"/>
        <pt x="362" y="564" on="0"/>
        <pt x="347" y="574" on="1"/>
        <pt x="313" y="600" on="0"/>
        <pt x="251" y="600" on="1"/>
        <pt x="180" y="600" on="0"/>
        <pt x="103" y="565" on="1"/>
        <pt x="72" y="681" on="1"/>
        <pt x="154" y="706" on="0"/>
        <pt x="231" y="706" on="1"/>
        <pt x="342" y="706" on="0"/>
        <pt x="403" y="660" on="1"/>
        <pt x="522" y="573" on="0"/>
        <pt x="522" y="305" on="1"/>
        <pt x="522" y="155" on="0"/>
        <pt x="473" y="78" on="1"/>
        <pt x="414" y="-17" on="0"/>
        <pt x="276" y="-17" on="1"/>
        <pt x="168" y="-17" on="0"/>
        <pt x="103" y="66" on="1"/>
        <pt x="45" y="141" on="0"/>
      </contour>
      <contour>
        <pt x="283" y="426" on="1"/>
        <pt x="229" y="426" on="0"/>
        <pt x="165" y="339" on="0"/>
        <pt x="165" y="257" on="1"/>
        <pt x="165" y="185" on="0"/>
        <pt x="232" y="88" on="0"/>
        <pt x="287" y="88" on="1"/>
        <pt x="416" y="88" on="0"/>
        <pt x="416" y="272" on="1"/>
        <pt x="416" y="312" on="0"/>
        <pt x="411" y="350" on="1"/>
        <pt x="356" y="426" on="0"/>
      </contour>
    </TTGlyph>
    <TTGlyph name="percent" xMin="3" yMin="-84" xMax="522" yMax="666">
      <contour>
        <pt x="23" y="530" on="1"/>
        <pt x="23" y="588" on="0"/>
        <pt x="91" y="666" on="0"/>
        <pt x="143" y="666" on="1"/>
        <pt x="195" y="666" on="0"/>
        <pt x="264" y="589" on="0"/>
        <pt x="264" y="530" on="1"/>
        <pt x="264" y="465" on="0"/>
        <pt x="197" y="394" on="0"/>
        <pt x="143" y="394" on="1"/>
        <pt x="90" y="394" on="0"/>
        <pt x="23" y="465" on="0"/>
      </contour>
      <contour>
        <pt x="3" y="-47" on="1"/>
        <pt x="379" y="649" on="1"/>
        <pt x="480" y="610" on="1"/>
        <pt x="111" y="-84" on="1"/>
      </contour>
      <contour>
        <pt x="276" y="134" on="1"/>
        <pt x="276" y="192" on="0"/>
        <pt x="347" y="271" on="0"/>
        <pt x="400" y="271" on="1"/>
        <pt x="452" y="271" on="0"/>
        <pt x="522" y="193" on="0"/>
        <pt x="522" y="134" on="1"/>
        <pt x="522" y="66" on="0"/>
        <pt x="455" y="-6" on="0"/>
        <pt x="345" y="-6" on="0"/>
        <pt x="312" y="29" on="1"/>
        <pt x="276" y="66" on="0"/>
      </contour>
      <contour>
        <pt x="118" y="527" on="1"/>
        <pt x="118" y="485" on="0"/>
        <pt x="168" y="485" on="0"/>
        <pt x="168" y="527" on="1"/>
        <pt x="168" y="572" on="0"/>
        <pt x="142" y="572" on="1"/>
        <pt x="118" y="572" on="0"/>
      </contour>
      <contour>
        <pt x="375" y="130" on="1"/>
        <pt x="375" y="87" on="0"/>
        <pt x="425" y="87" on="0"/>
        <pt x="425" y="130" on="1"/>
        <pt x="425" y="176" on="0"/>
        <pt x="399" y="176" on="1"/>
        <pt x="375" y="176" on="0"/>
      </contour>
    </TTGlyph>
    <TTGlyph name="period" xMin="37" yMin="-9" xMax="215" yMax="168">
      <contour>
        <pt x="37" y="79" on="1"/>
        <pt x="37" y="116" on="0"/>
        <pt x="90" y="168" on="0"/>
        <pt x="126" y="168" on="1"/>
        <pt x="162" y="168" on="0"/>
        <pt x="215" y="116" on="0"/>
        <pt x="215" y="79" on="1"/>
        <pt x="215" y="42" on="0"/>
        <pt x="163" y="-9" on="0"/>
        <pt x="126" y="-9" on="1"/>
        <pt x="90" y="-9" on="0"/>
        <pt x="37" y="42" on="0"/>
      </contour>
    </TTGlyph>
    <TTGlyph name="periodcentered" xMin="42" yMin="322" xMax="219" yMax="524">
      <contour>
        <pt x="42" y="423" on="1"/>
        <pt x="42" y="464" on="0"/>
        <pt x="94" y="524" on="0"/>
        <pt x="131" y="524" on="1"/>
        <pt x="169" y="524" on="0"/>
        <pt x="219" y="465" on="0"/>
        <pt x="219" y="423" on="1"/>
        <pt x="219" y="382" on="0"/>
        <pt x="169" y="322" on="0"/>
        <pt x="131" y="322" on="1"/>
        <pt x="94" y="322" on="0"/>
        <pt x="42" y="382" on="0"/>
      </contour>
    </TTGlyph>
    <TTGlyph name="perthousand" xMin="23" yMin="-84" xMax="861" yMax="666">
      <contour>
        <pt x="612" y="127" on="1"/>
        <pt x="612" y="184" on="0"/>
        <pt x="684" y="262" on="0"/>
        <pt x="737" y="262" on="1"/>
        <pt x="790" y="262" on="0"/>
        <pt x="861" y="184" on="0"/>
        <pt x="861" y="127" on="1"/>
        <pt x="861" y="60" on="0"/>
        <pt x="793" y="-10" on="0"/>
        <pt x="737" y="-10" on="1"/>
        <pt x="682" y="-10" on="0"/>
        <pt x="612" y="61" on="0"/>
      </contour>
      <contour>
        <pt x="23" y="530" on="1"/>
        <pt x="23" y="587" on="0"/>
        <pt x="93" y="666" on="0"/>
        <pt x="146" y="666" on="1"/>
        <pt x="200" y="666" on="0"/>
        <pt x="271" y="589" on="0"/>
        <pt x="271" y="530" on="1"/>
        <pt x="271" y="465" on="0"/>
        <pt x="202" y="394" on="0"/>
        <pt x="146" y="394" on="1"/>
        <pt x="92" y="394" on="0"/>
        <pt x="23" y="465" on="0"/>
      </contour>
      <contour>
        <pt x="341" y="127" on="1"/>
        <pt x="341" y="184" on="0"/>
        <pt x="414" y="262" on="0"/>
        <pt x="467" y="262" on="1"/>
        <pt x="520" y="262" on="0"/>
        <pt x="591" y="184" on="0"/>
        <pt x="591" y="127" on="1"/>
        <pt x="591" y="60" on="0"/>
        <pt x="522" y="-10" on="0"/>
        <pt x="467" y="-10" on="1"/>
        <pt x="411" y="-10" on="0"/>
        <pt x="341" y="61" on="0"/>
      </contour>
      <contour>
        <pt x="24" y="-47" on="1"/>
        <pt x="412" y="649" on="1"/>
        <pt x="516" y="610" on="1"/>
        <pt x="134" y="-84" on="1"/>
      </contour>
      <contour>
        <pt x="712" y="124" on="1"/>
        <pt x="712" y="81" on="0"/>
        <pt x="737" y="81" on="1"/>
        <pt x="763" y="81" on="0"/>
        <pt x="763" y="124" on="1"/>
        <pt x="763" y="138" on="0"/>
        <pt x="757" y="152" on="1"/>
        <pt x="749" y="169" on="0"/>
        <pt x="736" y="169" on="1"/>
        <pt x="712" y="169" on="0"/>
      </contour>
      <contour>
        <pt x="121" y="527" on="1"/>
        <pt x="121" y="485" on="0"/>
        <pt x="146" y="485" on="1"/>
        <pt x="172" y="485" on="0"/>
        <pt x="172" y="527" on="1"/>
        <pt x="172" y="572" on="0"/>
        <pt x="145" y="572" on="1"/>
        <pt x="121" y="572" on="0"/>
      </contour>
      <contour>
        <pt x="441" y="124" on="1"/>
        <pt x="441" y="81" on="0"/>
        <pt x="467" y="81" on="1"/>
        <pt x="493" y="81" on="0"/>
        <pt x="493" y="124" on="1"/>
        <pt x="493" y="138" on="0"/>
        <pt x="486" y="152" on="1"/>
        <pt x="478" y="169" on="0"/>
        <pt x="466" y="169" on="1"/>
        <pt x="441" y="169" on="0"/>
      </contour>
    </TTGlyph>
    <TTGlyph name="pi" xMin="71" yMin="0" xMax="473" yMax="520">
      <contour>
        <pt x="354" y="420" on="1"/>
        <pt x="227" y="420" on="1"/>
        <pt x="227" y="0" on="1"/>
        <pt x="109" y="0" on="1"/>
        <pt x="109" y="420" on="1"/>
        <pt x="71" y="420" on="1"/>
        <pt x="71" y="520" on="1"/>
        <pt x="473" y="520" on="1"/>
        <pt x="473" y="0" on="1"/>
        <pt x="354" y="0" on="1"/>
      </contour>
    </TTGlyph>
    <TTGlyph name="plus" xMin="53" yMin="98" xMax="457" yMax="534">
      <contour>
        <pt x="302" y="98" on="1"/>
        <pt x="208" y="98" on="1"/>
        <pt x="208" y="272" on="1"/>
        <pt x="53" y="272" on="1"/>
        <pt x="53" y="369" on="1"/>
        <pt x="208" y="369" on="1"/>
        <pt x="208" y="534" on="1"/>
        <pt x="302" y="534" on="1"/>
        <pt x="302" y="369" on="1"/>
        <pt x="457" y="369" on="1"/>
        <pt x="457" y="272" on="1"/>
        <pt x="302" y="272" on="1"/>
      </contour>
    </TTGlyph>
    <TTGlyph name="plusminus" xMin="53" yMin="-39" xMax="457" yMax="529">
      <contour>
        <pt x="302" y="91" on="1"/>
        <pt x="207" y="91" on="1"/>
        <pt x="207" y="266" on="1"/>
        <pt x="53" y="266" on="1"/>
        <pt x="53" y="364" on="1"/>
        <pt x="207" y="364" on="1"/>
        <pt x="207" y="529" on="1"/>
        <pt x="302" y="529" on="1"/>
        <pt x="302" y="364" on="1"/>
        <pt x="457" y="364" on="1"/>
        <pt x="457" y="266" on="1"/>
        <pt x="302" y="266" on="1"/>
      </contour>
      <contour>
        <pt x="67" y="50" on="1"/>
        <pt x="452" y="50" on="1"/>
        <pt x="452" y="-39" on="1"/>
        <pt x="67" y="-39" on="1"/>
      </contour>
    </TTGlyph>
    <TTGlyph name="product" xMin="126" yMin="0" xMax="523" yMax="657">
      <contour>
        <pt x="397" y="0" on="1"/>
        <pt x="397" y="542" on="1"/>
        <pt x="252" y="542" on="1"/>
        <pt x="252" y="0" on="1"/>
        <pt x="126" y="0" on="1"/>
        <pt x="126" y="657" on="1"/>
        <pt x="523" y="657" on="1"/>
        <pt x="523" y="0" on="1"/>
      </contour>
    </TTGlyph>
    <TTGlyph name="q" xMin="38" yMin="-202" xMax="456" yMax="520">
      <contour>
        <pt x="346" y="461" on="1"/>
        <pt x="346" y="508" on="1"/>
        <pt x="456" y="508" on="1"/>
        <pt x="456" y="-202" on="1"/>
        <pt x="346" y="-202" on="1"/>
        <pt x="346" y="44" on="1"/>
        <pt x="293" y="6" on="0"/>
        <pt x="283" y="0" on="1"/>
        <pt x="243" y="-24" on="0"/>
        <pt x="217" y="-24" on="1"/>
        <pt x="131" y="-24" on="0"/>
        <pt x="83" y="60" on="1"/>
        <pt x="38" y="137" on="0"/>
        <pt x="38" y="258" on="1"/>
        <pt x="38" y="346" on="0"/>
        <pt x="79" y="426" on="1"/>
        <pt x="127" y="520" on="0"/>
        <pt x="203" y="520" on="1"/>
        <pt x="250" y="520" on="0"/>
        <pt x="282" y="505" on="1"/>
        <pt x="302" y="496" on="0"/>
      </contour>
      <contour>
        <pt x="251" y="432" on="1"/>
        <pt x="156" y="431" on="0"/>
        <pt x="156" y="249" on="1"/>
        <pt x="156" y="175" on="0"/>
        <pt x="209" y="67" on="0"/>
        <pt x="250" y="67" on="1"/>
        <pt x="264" y="67" on="0"/>
        <pt x="295" y="95" on="1"/>
        <pt x="342" y="138" on="0"/>
        <pt x="346" y="141" on="1"/>
        <pt x="346" y="349" on="1"/>
        <pt x="337" y="377" on="0"/>
        <pt x="278" y="432" on="0"/>
      </contour>
    </TTGlyph>
</ttFont>
